<svg width="291" height="98" viewBox="0 0 291 98" fill="none" xmlns="http://www.w3.org/2000/svg">
<path d="M48.5432 96.56C47.5458 96.56 46.6845 96.1973 45.9592 95.472C45.2338 94.7467 44.8712 93.8853 44.8712 92.888V81.328H4.20716C3.20982 81.328 2.34849 80.9653 1.62316 80.24C0.897823 79.5147 0.535156 78.6533 0.535156 77.656V58.208C0.535156 56.6667 1.03382 55.2613 2.03116 53.992L40.5192 3.672C41.7885 2.13067 43.4658 1.36 45.5512 1.36H73.8391C74.8365 1.36 75.6978 1.72267 76.4232 2.448C77.1485 3.17334 77.5112 4.03467 77.5112 5.032V53.72H89.3432C90.4312 53.72 91.3378 54.0827 92.0632 54.808C92.7885 55.5333 93.1512 56.3947 93.1512 57.392V77.656C93.1512 78.6533 92.7885 79.5147 92.0632 80.24C91.3378 80.9653 90.4765 81.328 89.4792 81.328H77.5112V92.888C77.5112 93.8853 77.1485 94.7467 76.4232 95.472C75.6978 96.1973 74.8365 96.56 73.8391 96.56H48.5432ZM45.8232 55.216V35.632L31.5432 55.216H45.8232Z" fill="#00D9B2"/>
<path d="M145.695 97.92C132.548 97.8293 122.348 94.6107 115.095 88.264C107.842 81.9173 103.807 73.5307 102.991 63.104C102.719 59.3867 102.583 54.6267 102.583 48.824C102.583 42.9307 102.719 38.08 102.991 34.272C103.444 27.5627 105.394 21.6693 108.839 16.592C112.375 11.424 117.271 7.38933 123.527 4.488C129.874 1.496 137.263 0 145.695 0C154.127 0 161.471 1.496 167.727 4.488C174.074 7.38933 178.97 11.424 182.415 16.592C185.951 21.6693 187.946 27.5627 188.399 34.272C188.671 38.08 188.807 42.9307 188.807 48.824C188.807 54.6267 188.671 59.3867 188.399 63.104C187.583 73.5307 183.548 81.9173 176.295 88.264C169.042 94.6107 158.842 97.8293 145.695 97.92ZM145.695 71.264C150.228 71.264 152.676 68.3173 153.039 62.424C153.22 59.7947 153.311 55.216 153.311 48.688C153.311 42.0693 153.22 37.536 153.039 35.088C152.676 29.2853 150.228 26.3387 145.695 26.248C141.162 26.3387 138.714 29.2853 138.351 35.088C138.17 39.984 138.079 44.5173 138.079 48.688C138.079 52.5867 138.17 57.1653 138.351 62.424C138.714 68.3173 141.162 71.264 145.695 71.264Z" fill="#00D9B2"/>
<path d="M246.168 96.56C245.171 96.56 244.31 96.1973 243.584 95.472C242.859 94.7467 242.496 93.8853 242.496 92.888V81.328H201.832C200.835 81.328 199.973 80.9653 199.248 80.24C198.523 79.5147 198.16 78.6533 198.16 77.656V58.208C198.16 56.6667 198.659 55.2613 199.656 53.992L238.144 3.672C239.413 2.13067 241.091 1.36 243.176 1.36H271.464C272.461 1.36 273.323 1.72267 274.048 2.448C274.773 3.17334 275.136 4.03467 275.136 5.032V53.72H286.968C288.056 53.72 288.963 54.0827 289.688 54.808C290.413 55.5333 290.776 56.3947 290.776 57.392V77.656C290.776 78.6533 290.413 79.5147 289.688 80.24C288.963 80.9653 288.102 81.328 287.104 81.328H275.136V92.888C275.136 93.8853 274.773 94.7467 274.048 95.472C273.323 96.1973 272.461 96.56 271.464 96.56H246.168ZM243.448 55.216V35.632L229.168 55.216H243.448Z" fill="#00D9B2"/>
<rect x="130.999" y="20.5596" width="35" height="59" fill="#00D9B2"/>
<path d="M142.318 61.6402C144.969 63.7713 149.853 62.861 152.115 61.4052C154.376 59.9493 158.111 56.3405 160.129 51.3179C162.604 45.1612 163.811 34.9647 163.605 29.7017C163.551 28.3026 162.747 27.1622 161.375 26.8857C160.474 26.7043 159.22 26.5368 157.507 26.451C152.119 26.1811 143.769 27.8685 137.138 33.2688C131.675 37.7176 128.801 44.0704 128.521 47.6881C128.357 49.8065 127.597 54.8768 131.129 60.4445C134.662 66.0122 139.136 68.4814 139.136 68.4814C143.506 71.1629 149.629 72.1166 149.669 71.5301C149.709 70.9435 149.364 71.68 143.669 68.793C132.031 61.7743 136.286 48.6837 141.046 43.3943C146.416 37.4274 152.735 35.5049 153.849 36.1707C154.666 37.4053 148.428 38.1502 143.448 45.1964C139.291 51.0785 138.411 58.4998 142.318 61.6402Z" fill="white"/>
</svg>
