<svg width="90" height="56" viewBox="0 0 90 56" fill="none" xmlns="http://www.w3.org/2000/svg">
<g clip-path="url(#clip0)">
<path fill-rule="evenodd" clip-rule="evenodd" d="M35.498 7.19678C40.5146 9.30599 43.0415 14.7095 44.7362 19.5625C44.9434 20.4936 45.123 21.4038 45.2729 22.2992H42.8058C42.4239 20.7113 41.9557 19.1454 41.4033 17.6084C40.1411 14.2613 38.3989 11.1154 36.2314 8.26953L35.498 7.19678Z" fill="white"/>
<path fill-rule="evenodd" clip-rule="evenodd" d="M44.7118 37.1509C44.4563 38.1456 44.1552 39.1606 43.806 40.2032C42.9606 42.6405 41.64 44.8859 39.9207 46.8091C39.7245 46.9782 39.2474 47.5616 39.3323 47.3169C40.0815 45.16 41.1235 43.1149 41.8848 40.9622C42.3277 39.7143 42.6978 38.4417 42.9932 37.1509H44.7118Z" fill="white"/>
<path fill-rule="evenodd" clip-rule="evenodd" d="M48.1194 13.558C49.8914 16.2145 51.1506 19.1791 51.8319 22.2988H51.0113C50.4085 19.4982 49.4493 16.7864 48.1572 14.2296C48.0661 14.0529 47.9988 13.8649 47.9572 13.6706C47.9519 13.5977 48.0787 13.4975 48.1194 13.5583V13.558Z" fill="white"/>
<path fill-rule="evenodd" clip-rule="evenodd" d="M50.8315 37.1509C50.4607 38.184 50.0286 39.1941 49.5375 40.1758C49.3736 40.4861 49.1255 40.7438 48.8216 40.9194C48.6617 41.0033 48.8063 40.5903 48.8465 40.4637C49.2136 39.3429 49.5925 38.2479 49.946 37.151L50.8315 37.1509Z" fill="white"/>
<path fill-rule="evenodd" clip-rule="evenodd" d="M29.0114 51.9125C28.946 51.99 28.8703 52.0582 28.7864 52.1152C28.7042 52.2009 28.6098 52.2741 28.5063 52.3324C28.4251 52.3656 28.3346 52.3682 28.2516 52.3396C28.1497 52.295 28.0593 52.2276 27.9874 52.1427C27.8592 52.0069 27.7633 51.8435 27.645 51.6989C27.4026 51.414 27.1891 51.1058 27.0076 50.7787C26.9296 50.6017 26.8413 50.4295 26.7429 50.2629C26.6785 50.1673 26.6081 50.0451 26.4953 50.0207C26.4502 50.019 26.4058 50.0323 26.3689 50.0584C26.3321 50.0845 26.3049 50.1221 26.2916 50.1652C26.2824 50.2778 26.3049 50.3907 26.3567 50.4912C26.4535 50.8111 26.5777 51.1144 26.7054 51.4236C26.8087 51.6727 26.854 51.942 26.8379 52.2111C26.8395 52.3454 26.8029 52.4774 26.7323 52.5916C26.6981 52.617 26.6572 52.6318 26.6146 52.6342C26.5721 52.6365 26.5298 52.6264 26.4929 52.6051C26.3647 52.5232 26.2483 52.4244 26.1467 52.3113C25.8831 52.0849 25.664 51.8116 25.5005 51.5051C25.2498 51.0722 25.0347 50.6372 24.8238 50.1845C24.7391 50.0026 24.661 49.8173 24.5698 49.6387C24.5238 49.5488 24.497 49.4356 24.4132 49.3796C24.0365 49.2035 23.6297 49.1007 23.2145 49.0767C22.661 48.9696 22.1223 48.8306 21.5793 48.6816C20.1255 48.151 19.0096 47.3594 17.6428 46.7259C17.4675 46.6404 17.2837 46.5734 17.0945 46.5259C16.9522 46.4759 16.7988 46.4663 16.6514 46.4983C16.5403 46.5378 16.4805 46.6652 16.4198 46.7665C16.336 46.9067 16.2959 47.0693 16.2221 47.2152C16.0111 47.6462 15.7746 48.0643 15.5139 48.4673C15.3387 48.7052 15.1404 48.9253 14.9218 49.1241C14.8194 49.248 14.7005 49.3573 14.5684 49.4488C14.4816 49.4958 14.3492 49.5393 14.2736 49.4758C14.1981 49.4123 14.2261 49.2767 14.2474 49.1801C14.3094 48.9625 14.3871 48.7497 14.48 48.5433C14.9342 47.3496 15.3942 46.1578 15.8512 44.9649C16.4859 43.2552 17.1206 41.5454 17.7552 39.8356C18.2157 38.6043 18.6761 37.3732 19.1362 36.1422C19.3512 35.583 19.5506 34.9996 19.7972 34.4537C19.841 34.3563 19.9172 34.277 20.0129 34.2295C20.0528 34.2135 20.0955 34.2059 20.1385 34.2072C20.1815 34.2085 20.2237 34.2187 20.2625 34.2372C20.317 34.2746 20.3563 34.3305 20.373 34.3945C20.4113 34.5049 20.443 34.6176 20.4679 34.7318C20.9002 37.3715 21.5999 39.9605 22.556 42.4587C22.6344 42.7501 22.7226 43.0389 22.791 43.3329C22.8578 43.6199 22.8831 43.9167 22.9618 44.2008C23.0285 44.4411 23.1381 44.6679 23.2262 44.9015C23.3507 45.2405 23.5 45.5699 23.6728 45.887C23.7705 46.0028 23.8552 46.1289 23.9254 46.2632C24.0175 46.5001 24.1633 46.7015 23.8473 46.7221C23.7405 46.6991 23.6381 46.6589 23.544 46.6032C23.0517 46.4006 22.628 46.2109 22.1274 46.0286L21.4858 45.7615C21.2634 45.6354 21.0382 45.5144 20.8187 45.3838C20.6292 45.2706 20.4448 45.1484 20.2593 45.0289C20.1051 44.9296 19.9611 44.8123 19.7988 44.7269C19.7514 44.7021 19.6805 44.6681 19.6398 44.7027C19.6165 44.7276 19.6009 44.7585 19.5946 44.792C19.5884 44.8255 19.5919 44.86 19.6046 44.8915C19.6427 44.9849 19.7373 45.0441 19.8081 45.116C20.095 45.4071 20.3647 45.7303 20.6555 46.0122C20.7725 46.1258 20.9024 46.2257 21.0257 46.3325C21.7814 46.791 22.4425 47.4024 23.219 47.8199C23.7776 48.1414 24.3737 48.3926 24.9939 48.5678C25.1055 48.5938 25.2358 48.645 25.3378 48.5924C25.3836 48.565 25.4205 48.5249 25.444 48.4769C25.4675 48.429 25.4766 48.3752 25.4702 48.3222C25.2652 47.1664 24.1803 46.2185 23.9563 45.0172C23.9495 44.9736 23.9538 44.9291 23.9688 44.8876C23.9839 44.8462 24.0091 44.8092 24.0422 44.7802C24.0768 44.7534 24.118 44.7366 24.1614 44.7316C24.2048 44.7265 24.2488 44.7335 24.2885 44.7516C24.4041 44.8324 24.4968 44.9418 24.5576 45.069C25.2828 46.2974 25.7624 47.4734 26.5919 48.698C27.2354 49.5403 27.9476 50.3277 28.7214 51.0522C28.8116 51.142 28.8941 51.2394 28.968 51.3431C29.039 51.4312 29.0871 51.5354 29.1082 51.6465C29.1062 51.7438 29.0722 51.8377 29.0113 51.9136L29.0114 51.9125ZM12.9877 48.9065C12.9248 49.0495 12.842 49.1828 12.7417 49.3026C12.7051 49.3362 12.6606 49.3602 12.6123 49.3721C12.5641 49.3841 12.5135 49.3838 12.4654 49.3711C12.3415 49.326 12.2745 49.189 12.179 49.0979C11.985 48.871 11.788 48.665 11.5732 48.4579C11.4839 48.3804 11.3589 48.3307 11.3048 48.2257C11.2745 48.1333 11.2754 48.0336 11.3076 47.9419C11.334 47.8122 11.3797 47.6872 11.4432 47.5711C11.8279 46.9492 12.2663 46.3623 12.7533 45.8169C13.2649 45.1997 13.8234 44.6229 14.4239 44.0917C14.5706 43.9494 14.7171 43.8072 14.8636 43.665C14.9508 43.541 15.0742 43.3334 15.2335 43.2971C15.269 43.2877 15.3065 43.2893 15.3411 43.3017C15.3756 43.3142 15.4056 43.3369 15.4269 43.3668C15.4491 43.459 15.4376 43.556 15.3944 43.6404C15.338 43.8154 15.2459 43.9776 15.1752 44.1476C14.9303 44.7353 14.7015 45.3306 14.4326 45.9079C14.0711 46.6836 13.6886 47.4465 13.3354 48.227C13.2194 48.4532 13.1035 48.6796 12.9877 48.9061V48.9065ZM10.7355 40.0287C9.80927 38.5178 9.06882 36.9006 8.53023 35.2123C8.51159 35.1238 8.47283 35.0407 8.41694 34.9696C8.25578 34.8179 8.05471 34.7154 7.83732 34.6739C6.68223 34.5197 5.43853 34.7706 4.25222 34.6089C4.18887 34.6012 4.12812 34.5791 4.07455 34.5444C4.03356 34.5168 3.9841 34.4765 3.98244 34.427C3.97778 34.3862 3.9827 34.3448 3.99682 34.3063C4.01094 34.2677 4.03386 34.2329 4.06377 34.2048C4.703 33.8304 5.40459 33.5745 6.13476 33.4495C6.8763 33.3376 7.62401 33.2682 8.36822 33.1732C8.79975 33.0606 9.24367 33.0024 9.68965 32.9999C9.7986 33.0259 9.89438 33.0906 9.95915 33.182C10.0313 33.2866 10.0917 33.3987 10.1395 33.5164C10.2553 33.8316 10.3919 34.1373 10.5022 34.4545C10.5449 34.6047 10.579 34.7571 10.6044 34.9111C10.7186 35.2499 10.8628 35.5777 11.0353 35.8908C11.5228 36.7715 11.981 37.6408 12.484 38.4999C12.8072 39.015 13.1822 39.5223 13.4895 40.0251C13.5551 40.1658 13.5684 40.3253 13.5271 40.475C13.4405 41.1054 13.252 41.7175 12.9689 42.2874C12.919 42.3917 12.8179 42.7051 12.6893 42.7715C12.6495 42.7846 12.6072 42.7881 12.5658 42.7817C12.5244 42.7753 12.4851 42.7591 12.4512 42.7346C12.3683 42.6849 12.3253 42.588 12.2624 42.5149C12.1718 42.3642 12.0811 42.2138 11.9903 42.0635C11.7595 41.6552 11.5219 41.2577 11.2707 40.8614C11.0927 40.5836 10.9142 40.3059 10.7353 40.0283L10.7355 40.0287ZM4.67277 15.896C4.6968 15.8211 4.74751 15.7577 4.81526 15.7177C4.85225 15.705 4.89172 15.7012 4.93048 15.7066C4.96923 15.7119 5.00618 15.7263 5.03833 15.7486C5.22436 15.869 5.39912 16.006 5.56048 16.1578C5.79351 16.3605 6.0118 16.5796 6.23672 16.7905L6.75462 17.3487L7.44155 18.1359C7.654 18.3815 7.86643 18.6269 8.07882 18.8722L8.6928 19.5826L9.29498 20.3228C10.0318 21.2492 10.8302 22.1074 11.6107 22.9965C12.3341 23.9376 13.11 24.8371 13.9349 25.6907C14.6083 26.4546 15.2587 27.2488 15.9714 27.9767C16.0951 28.103 16.2486 28.2004 16.3601 28.3373C16.4192 28.4026 16.4539 28.4864 16.4584 28.5744C16.4631 28.6887 16.4226 28.8004 16.3457 28.8852C16.252 28.9415 16.1427 28.9664 16.0339 28.9562C15.8681 28.9679 15.7013 28.9477 15.5348 28.9431C15.3204 28.9487 15.106 28.9543 14.8915 28.9598C13.638 29.0365 12.3739 29.223 11.1277 29.3835C10.9879 29.4019 10.8482 29.4276 10.7071 29.4321C10.5922 29.4379 10.477 29.4296 10.364 29.4075C10.2835 29.399 10.2077 29.3655 10.1472 29.3116C9.78885 28.8991 9.57765 26.3571 9.46381 25.7056C9.4558 25.6586 9.37705 25.5946 9.34214 25.6276C9.2877 25.6794 9.30051 25.7769 9.31064 25.851C9.40072 26.5068 9.41288 29.1877 9.06868 29.6902C8.94342 29.773 8.80293 29.8302 8.6554 29.8582C8.23054 29.9785 7.796 30.0615 7.35672 30.1062C7.27505 30.1179 7.1919 30.0998 7.12249 30.0552C6.91286 29.7339 6.78778 29.3648 6.75886 28.9822C6.43943 26.877 6.3003 24.7485 6.34301 22.6197C6.3991 21.9273 6.50769 21.287 6.54435 20.595C6.56332 20.4509 6.5753 20.3055 6.60136 20.1626C6.64791 19.9995 6.68573 19.834 6.71465 19.6669C6.72474 19.5412 6.70797 19.4148 6.66547 19.2961C6.59788 19.1461 6.51511 19.0033 6.41844 18.8701C6.10694 18.3756 5.84499 17.8718 5.55726 17.3645C5.35518 17.0405 5.15844 16.7123 4.95562 16.3899C4.87718 16.2977 4.80651 16.1991 4.74433 16.0952C4.71901 16.0339 4.66061 15.9612 4.67277 15.8959V15.896ZM17.8991 31.9822C17.9859 31.9739 18.0734 31.9883 18.1529 32.0241C18.1793 32.0407 18.2016 32.0631 18.2181 32.0895C18.2346 32.116 18.245 32.1458 18.2485 32.1768C18.2566 32.2578 18.2387 32.3393 18.1974 32.4095C18.0609 32.6392 17.8825 32.8424 17.7253 33.0591C17.4682 33.4596 17.2017 33.8135 16.9388 34.2498C16.3211 35.2746 15.6419 36.2393 15.0724 37.296C14.7724 37.887 14.5366 38.5078 14.2066 39.0816C14.1615 39.1598 14.1053 39.2935 14.0197 39.3228C13.9872 39.336 13.9513 39.3381 13.9175 39.3286C13.8837 39.3192 13.854 39.2988 13.8331 39.2706C13.7578 39.1898 13.6947 39.0983 13.6458 38.9992C13.178 38.1681 12.8758 37.216 12.4593 36.3602C11.9544 35.3205 11.5277 34.2446 11.1827 33.1415C11.1508 33.0391 11.1607 32.9283 11.2103 32.8333C11.2611 32.7447 11.3769 32.7147 11.46 32.6555C12.9269 32.599 14.4047 32.42 15.8617 32.2296C16.5249 32.1535 17.2341 31.9967 17.8986 31.9821L17.8991 31.9822ZM18.7443 4.76302C18.8247 4.48389 18.9392 4.21571 19.0851 3.96456L20.2641 4.14251C20.2106 4.38051 20.157 4.61838 20.1034 4.85614C19.8975 5.7742 19.7382 6.70213 19.6263 7.63634C19.5033 8.98209 19.5037 10.3363 19.6278 11.682C19.7212 12.9959 19.8673 14.4502 20.0147 15.6837C20.0538 16.0552 20.0634 16.4292 20.0432 16.8023C19.9859 16.8987 19.9874 17.0756 19.8793 17.0915C19.6399 17.127 19.557 16.5656 19.5109 16.4226C19.3513 15.6108 19.1784 14.8354 19.0586 14.0257C19.0018 13.6749 18.945 13.3242 18.8883 12.9734C18.4914 10.2538 18.4427 7.49472 18.7434 4.76284L18.7443 4.76302ZM33.3318 14.1951C33.8611 13.9066 34.4082 13.6519 34.9697 13.4324C35.1383 13.3653 35.3389 13.6443 35.4244 13.7494C35.4987 13.9244 35.6163 14.1303 35.5331 14.3257C35.4869 14.4347 35.4118 14.5292 35.3161 14.5989C34.9698 14.8453 34.5885 14.9397 34.223 15.1575C31.8114 16.5943 29.6105 18.3857 27.318 20.0075C27.1494 20.1478 26.9772 20.2812 26.8049 20.41C26.6327 20.5389 26.4158 20.6887 26.2216 20.8504C26.0275 21.0121 26.0267 21.0494 25.9412 21.067C25.8556 21.0847 25.8251 20.9836 25.8407 20.9289C26.0563 20.5527 26.3321 20.2143 26.6571 19.9273C28.1728 18.3151 29.7946 16.8061 31.5117 15.4103C32.0958 14.9722 32.7034 14.5664 33.3317 14.1945L33.3318 14.1951ZM32.4443 53.1046C32.3284 53.1084 32.1093 53.0701 32.1293 52.956C32.1621 52.771 32.3858 52.6766 32.5392 52.5683C36.7668 49.5832 39.4252 44.1366 40.8159 39.3052C41.0104 38.5797 41.1773 37.8656 41.3225 37.1511H36.5837C36.9775 37.3548 37.3161 37.6506 37.5708 38.0134C37.7235 38.2264 37.8416 38.4622 37.9208 38.7121C38.0318 39.1684 38.0251 39.6454 37.9015 40.0985C37.697 41.0295 37.3384 41.9198 36.8405 42.7327C36.655 43.0176 36.3171 43.2081 36.1202 43.5106C35.9699 43.7416 35.932 44.0356 35.7604 44.2685C35.5573 44.5169 35.3372 44.7508 35.1017 44.9685C34.3168 45.8153 33.439 46.5709 32.4848 47.221C32.3506 47.3014 32.2118 47.374 32.0693 47.4385C31.2851 47.7904 30.415 47.9049 29.5665 47.768C29.086 47.6067 28.6639 47.3067 28.3538 46.9058C27.5307 45.8364 26.8896 44.6386 26.4564 43.3606C25.656 41.3226 25.0336 39.2316 24.387 37.1512H22.8759C22.4052 37.1316 21.9615 36.9262 21.6421 36.5799C21.3227 36.2336 21.1536 35.7748 21.172 35.3041V31.4081C20.9029 31.6853 20.5669 31.8883 20.1964 31.9975C19.004 32.3936 17.2369 30.9369 16.9401 28.8464C16.6432 26.756 17.5191 25.6954 18.9756 25.5634C19.4118 25.5583 19.8421 25.6639 20.2263 25.8705C20.6104 26.0771 20.9359 26.3779 21.172 26.7446V25.6654C21.0602 25.4983 20.9236 25.3492 20.7668 25.2233C20.6577 25.1477 20.5361 25.0919 20.4076 25.0587C20.2779 25.0235 20.1445 25.0032 20.0102 24.9981C19.3073 25.0737 18.5993 25.0905 17.8936 25.0483C17.7312 25.0136 17.5794 24.941 17.4505 24.8364C17.352 24.709 17.2737 24.5672 17.2184 24.4159C17.0688 24.1657 16.9192 23.9154 16.7695 23.6651C16.6272 23.4732 16.4848 23.2813 16.3422 23.0895C15.5985 22.1764 14.856 21.3001 14.0508 20.4411C13.6554 20.0226 13.2598 19.6042 12.8641 19.1857L11.5594 17.8372L10.4449 16.6582L9.07752 15.2535C8.79948 14.9732 8.52133 14.6928 8.24305 14.4123C8.02341 14.1866 7.80367 13.961 7.58385 13.7354C7.4013 13.5458 7.21469 13.3598 7.03582 13.1665C6.94 13.0658 6.84955 12.96 6.76485 12.8498C6.69319 12.7536 6.57935 12.651 6.7082 12.5642C6.72985 12.5496 6.78723 12.5793 6.80676 12.5964C6.95348 12.724 7.1142 12.8359 7.26084 12.9634C7.70137 13.4519 8.24339 13.8381 8.84891 14.095C8.88498 14.1036 8.92241 14.1045 8.95887 14.0979C8.99533 14.0913 9.03002 14.0771 9.06076 14.0564C9.15773 13.994 9.23599 13.9064 9.28724 13.8031C10.6486 10.6991 12.2936 7.50463 14.9425 5.29041C15.2154 5.00188 15.5741 4.80916 15.9653 4.74091C16.0776 4.74576 16.1883 4.76904 16.293 4.80981C16.4886 4.87428 16.5232 4.92752 16.5286 5.13052C16.5181 5.37299 16.4864 5.61407 16.4337 5.85097C15.97 8.70544 15.9509 11.6145 16.3773 14.4748C16.4168 14.6739 16.4562 14.8729 16.4956 15.0718C16.5309 15.2359 16.5661 15.4 16.6013 15.564C16.6392 15.7678 16.677 15.9715 16.7147 16.1753C16.9791 17.1319 17.1769 18.1059 17.4212 19.0686C17.6016 19.8263 17.7522 20.6004 17.9669 21.3482C18.0631 21.6828 18.2038 22.0042 18.2931 22.3405C18.3852 22.6868 18.3642 23.048 18.428 23.3968C18.4561 23.5729 18.4997 23.7461 18.5585 23.9145C18.6136 23.9761 18.6824 24.024 18.7593 24.0543C18.8785 24.1226 19.0037 24.1798 19.1334 24.225C19.6194 24.3133 20.1167 24.3186 20.6045 24.2408C20.7935 24.2301 20.983 24.229 21.1721 24.2374V24.1453C21.1661 23.7998 21.2563 23.4594 21.4328 23.1624C21.6094 22.8653 21.8651 22.6233 22.1715 22.4634C21.9228 21.4799 21.7274 20.4838 21.586 19.4792C21.1246 15.4547 19.1583 7.89782 22.4326 4.49757C22.5461 4.38335 22.6966 4.31326 22.8571 4.29982C25.9902 4.05888 30.4171 6.92326 31.8967 9.66035C31.9756 9.81689 32.0216 9.9879 32.032 10.1629C32.053 10.3712 32.039 10.5815 31.9905 10.7852C31.7826 11.5985 31.3663 12.3435 30.7825 12.9467C28.8027 15.1134 26.7759 17.3086 24.9735 19.6237C24.259 20.5062 23.5491 21.3875 22.8735 22.2991H27.9958C28.2691 21.9763 28.5439 21.6548 28.8204 21.3346C29.3101 20.7912 29.8043 20.267 30.3222 19.7504C30.8703 19.1988 31.4237 18.6799 32.0077 18.1662C32.7336 17.5196 33.5382 16.9671 34.4024 16.5219C34.6234 16.4071 34.8524 16.3086 35.0878 16.2272C35.4389 16.1156 35.8039 16.0536 36.1721 16.043C36.3426 16.0509 36.5094 16.0948 36.6617 16.1719C36.7896 16.2246 36.9036 16.3063 36.9946 16.4106C37.323 16.8625 37.5643 17.3716 37.7062 17.9119C38.1803 19.4381 38.5565 20.8743 38.8615 22.3005H41.1712C40.8069 20.638 40.3411 18.9993 39.7764 17.3938C38.1 12.725 35.352 8.51444 31.7531 5.10031C31.2877 4.64982 30.8204 4.2033 30.3439 3.76414C31.1142 3.69165 31.8748 3.64505 32.6479 3.61391C43.5785 3.52734 50.8739 12.585 53.1917 22.2987H54.4697C52.8003 13.8394 47.126 6.37541 37.6575 3.59513C36.4631 3.24827 35.2355 3.02831 33.9949 2.93887C32.945 2.86093 31.8899 2.88672 30.8449 3.01587C30.2555 3.0957 29.6663 3.17746 29.0773 3.26115L28.0941 2.73459C27.4547 2.41737 26.8599 2.05641 26.2004 1.78268C24.1601 0.880942 21.9757 0.34908 19.7492 0.211914C16.5411 0.288203 13.4264 1.30626 10.7925 3.13939C6.56637 6.46758 3.51542 11.0602 2.08553 16.246C1.38051 18.7188 0.950292 21.2618 0.80269 23.8289C0.566897 31.3124 2.47504 38.7075 6.3023 45.1426C7.64383 47.1619 9.17679 49.0473 10.8799 50.7726C13.2643 52.9743 16.1303 54.5882 19.2492 55.4858C21.6035 56.1216 24.0819 56.141 26.4459 55.542C28.1905 55.0917 29.8766 54.439 31.4697 53.5973C31.587 53.5505 31.7044 53.5037 31.8218 53.4571C34.3129 53.5578 36.8001 53.1767 39.1468 52.3346C41.3825 51.389 43.4912 50.1676 45.4237 48.6987C49.0267 45.6062 51.7584 41.6252 53.3475 37.1508H52.0593C49.0287 45.646 42.2549 52.7671 32.4443 53.1046Z" fill="white"/>
<path fill-rule="evenodd" clip-rule="evenodd" d="M85.2071 34.0306H71.5732V31.3955H85.2071V34.0305V34.0306ZM88.7858 31.0482C88.4361 30.8153 88.0516 30.6396 87.6466 30.5276C87.1039 30.3694 86.5492 30.256 85.988 30.1885C85.3314 30.1063 84.6703 30.0659 84.0087 30.0676H65.7774V31.3955H67.6343V34.0305H65.7774V35.3308H83.9462C84.6116 35.3325 85.2764 35.2922 85.9367 35.21C86.5051 35.1431 87.0668 35.0287 87.6161 34.868C88.0274 34.7533 88.4187 34.5765 88.7766 34.3436C88.8987 34.2771 89.0024 34.1812 89.0782 34.0647C89.154 33.9481 89.1996 33.8145 89.2108 33.6759V31.722C89.2011 31.5833 89.1572 31.4492 89.0831 31.3317C89.0089 31.2141 88.9068 31.1167 88.7858 31.0482ZM57.634 30.8306C57.34 30.6618 57.0311 30.5203 56.7113 30.4078C56.348 30.2848 55.9735 30.1975 55.5932 30.1472C55.0968 30.0831 54.5966 30.0533 54.0961 30.0581C53.5771 30.0536 53.0585 30.0834 52.5435 30.1472C52.142 30.1978 51.7459 30.285 51.3603 30.4078C51.0265 30.5172 50.7031 30.6563 50.3942 30.8234C50.0979 30.986 49.7907 31.1676 49.4723 31.368L43.2423 35.3412H47.8207L52.1198 32.6082L54.0304 31.485L55.9185 32.6081L60.3911 35.3411H64.8187L58.5888 31.4042C58.241 31.189 57.9226 30.9977 57.6337 30.8306H57.634ZM40.6988 32.5764H26.9828V31.7393H40.6988V32.5764ZM44.6103 32.115C44.6046 31.9538 44.5631 31.7959 44.4888 31.6527C44.4144 31.5095 44.3092 31.3846 44.1806 31.2872C43.8359 31.0048 43.4436 30.7862 43.0221 30.6416C42.4777 30.446 41.9156 30.3041 41.3436 30.2179C40.6859 30.1155 40.0212 30.0651 39.3556 30.067H23.033V35.3511H26.9828V34.2066H39.7938C40.4103 34.2087 41.0256 34.1534 41.6319 34.0417C42.16 33.9496 42.6762 33.7989 43.171 33.5925C43.558 33.4367 43.9135 33.212 44.2203 32.9293C44.3382 32.828 44.4337 32.7034 44.5008 32.5633C44.5679 32.4232 44.6052 32.2707 44.6103 32.1154V32.115ZM46.1799 26.6891C46.4142 26.8283 46.668 26.9321 46.9328 26.9969C47.2252 27.0715 47.5259 27.1086 47.8276 27.1074H54.0094V27.6576H45.8654V28.8948H53.5726C53.87 28.8959 54.166 28.8544 54.4516 28.7715C54.7142 28.6982 54.9646 28.5868 55.1949 28.4408C55.396 28.3147 55.5711 28.1512 55.7107 27.9592C55.8349 27.7889 55.9026 27.5838 55.9041 27.373V24.1347H53.9982V25.9216H47.1732V24.1336H45.4652V25.6362C45.4651 25.8474 45.5334 26.053 45.6599 26.2221C45.7999 26.4113 45.9768 26.5702 46.1799 26.6891ZM35.9225 25.3314H42.5887V25.9382H35.9225V25.3314ZM35.9225 27.1242H42.1524C42.4545 27.1254 42.7554 27.0851 43.0466 27.0045C43.3112 26.934 43.5635 26.8236 43.7949 26.6772C43.9954 26.552 44.169 26.3881 44.3055 26.1951C44.4284 26.0218 44.4946 25.8148 44.4951 25.6024C44.4955 25.3836 44.4216 25.1711 44.2856 24.9997C44.1321 24.8059 43.9401 24.6459 43.7218 24.53C43.4652 24.3903 43.1906 24.2867 42.9056 24.2222C42.5888 24.1474 42.2641 24.1103 41.9385 24.1117H33.9991V28.8948H35.9225V27.1246V27.1242ZM24.8625 25.3486H33.0256V24.1001H25.212H22.9849C22.9849 24.1001 22.9844 25.376 22.9844 25.5706V28.8941H24.8625V25.348V25.3486ZM83.2204 25.4038L84.3418 26.4212H82.6408L83.2201 25.4038H83.2204ZM82.0406 27.6465H85.5975L87.0146 28.8949H88.9973L85.2414 25.3304C85.0325 25.1357 84.8442 24.9633 84.6729 24.8122C84.5133 24.6688 84.3406 24.5408 84.1571 24.4297C83.9807 24.3251 83.7905 24.2456 83.5921 24.1935C83.3659 24.1364 83.1333 24.109 82.9 24.1118C82.6727 24.107 82.4459 24.1346 82.2263 24.1935C82.057 24.2401 81.899 24.3205 81.7615 24.4297C81.6313 24.536 81.5193 24.6629 81.4299 24.8053C81.3383 24.9527 81.2454 25.117 81.1513 25.2981L79.3378 28.8949H81.388L82.0411 27.6465H82.0406ZM70.0171 25.3369H76.5409V28.9225H78.4475V24.1174H68.1387V28.9227H70.0171V25.3369ZM67.1762 28.9225V24.1174H56.8672V28.9227H58.7453V25.3369H65.2694V28.9225H67.1762Z" fill="white"/>
</g>
<defs>
<clipPath id="clip0">
<rect width="88.4211" height="55.7665" fill="white" transform="translate(0.789062 0.210449)"/>
</clipPath>
</defs>
</svg>
