<svg width="96" height="52" viewBox="0 0 96 52" fill="none" xmlns="http://www.w3.org/2000/svg">
<path fill-rule="evenodd" clip-rule="evenodd" d="M68.671 4.10529H68.9806L69.6774 5.65445H70.8387L69.9871 3.95037C70.1419 3.87291 70.2194 3.79546 70.3742 3.64054C70.529 3.40816 70.6839 3.17579 70.6065 2.86596C70.6065 2.09137 70.0645 1.54917 69.2903 1.54917H67.6645V5.65445H68.671V4.10529ZM68.671 2.47866H69.2129C69.4452 2.47866 69.6 2.63358 69.6 2.86596C69.6 3.09833 69.4452 3.33071 69.2129 3.33071H68.671V2.47866ZM83.3032 4.80241C83.1484 4.80241 82.9161 4.72496 82.6839 4.6475C82.6065 4.6475 82.529 4.57004 82.4516 4.49258L81.7548 5.11225C81.9097 5.26716 82.1419 5.42208 82.2968 5.49954C82.6065 5.577 82.9161 5.65445 83.2258 5.65445C84.3097 5.65445 84.929 5.1897 84.929 4.33766C84.929 3.64054 84.5419 3.25325 83.7677 3.17579L83.3032 3.09833C83.071 3.02087 82.9161 2.94341 82.9161 2.7885C82.9161 2.55612 83.1484 2.40121 83.5355 2.40121C83.6903 2.40121 83.8452 2.40121 83.9226 2.47866C84.0774 2.47866 84.1548 2.55612 84.1548 2.63358L84.8516 2.01392C84.6968 1.859 84.5419 1.78154 84.3097 1.70408C84.0774 1.54917 83.7677 1.54917 83.4581 1.54917C82.529 1.54917 81.9871 2.01392 81.9871 2.86596C81.9871 3.48562 82.2968 3.87291 83.071 4.02783L83.5355 4.10529C83.7677 4.10529 83.9226 4.18275 83.9226 4.41512C83.9226 4.6475 83.6903 4.80241 83.3032 4.80241ZM86.5548 4.02783H87.5613V5.65445H88.5677V1.54917H87.5613V3.17579H86.5548V1.54917H85.5484V5.65445H86.5548V4.02783ZM74.4 4.41512C74.4 4.02783 74.2452 3.79546 73.8581 3.56308C74.1677 3.33071 74.3226 3.02087 74.3226 2.71104C74.3226 2.01392 73.7806 1.54917 73.0065 1.54917H71.3032V5.65445H73.0839C73.8581 5.65445 74.4 5.1897 74.4 4.41512ZM72.3097 2.47866H72.929C73.1613 2.47866 73.3161 2.63358 73.3161 2.7885C73.3161 3.02087 73.1613 3.17579 72.929 3.17579H72.3097V2.47866ZM73.0065 4.72496H72.3097V4.02783H73.0065C73.1613 4.02783 73.3935 4.18275 73.3935 4.33766V4.41512C73.3935 4.57004 73.2387 4.72496 73.0839 4.72496H73.0065ZM91.8968 5.1897C92.3613 4.80241 92.3613 4.18275 92.3613 3.64054V3.25325C92.3613 2.63358 92.2065 2.24629 91.8968 2.01392C91.6645 1.70408 91.2 1.54917 90.8129 1.54917C90.3484 1.47171 89.9613 1.70408 89.6516 2.01392C89.3419 2.32375 89.2645 2.63358 89.2645 3.48562V3.718C89.2645 4.26021 89.2645 4.80241 89.6516 5.1897C90.271 5.80937 91.2774 5.80937 91.8968 5.1897ZM90.271 3.40816C90.271 3.09833 90.271 2.7885 90.4258 2.63358C90.5032 2.47866 90.6581 2.40121 90.8129 2.40121C90.9677 2.40121 91.1226 2.47866 91.2 2.63358C91.2774 2.7885 91.3548 3.02087 91.3548 3.40816V3.718C91.3548 4.26021 91.2774 4.49258 91.2 4.6475C91.1226 4.72496 90.9677 4.80241 90.8129 4.80241C90.6581 4.80241 90.5032 4.72496 90.4258 4.6475C90.271 4.49258 90.271 4.26021 90.271 3.718V3.40816ZM64.8 5.03479H66.0387L66.1936 5.65445H67.2774L65.8064 1.54917H65.0323L63.5613 5.65445H64.5677L64.8 5.03479ZM65.4194 3.09833L65.729 4.18275H65.0323L65.4194 3.09833ZM79.4323 4.10529H79.8194L80.5161 5.65445H81.6774L80.8258 3.95037C80.9806 3.87291 81.0581 3.79546 81.2129 3.64054C81.3677 3.40816 81.4452 3.17579 81.4452 2.86596C81.4452 2.09137 80.9032 1.54917 80.0516 1.54917H78.5032V5.65445H79.4323V4.10529ZM79.4323 2.47866H80.0516C80.2839 2.47866 80.4387 2.63358 80.4387 2.86596C80.4387 3.09833 80.2839 3.33071 80.0516 3.33071H79.4323V2.47866ZM77.8064 4.72496H76.0258V4.02783H77.5742V3.17579H76.0258V2.47866H77.8064V1.54917H75.0194V5.65445H77.8064V4.72496ZM26.0903 17.3507H26.1677V0L22.4516 0.929499V16.8084L26.0903 17.3507ZM58.2968 24.4768C53.729 23.3149 56.0516 27.6526 54.1936 23.8571L55.8194 23.5473L0.309677 15.0269L0 24.0895L36.2323 28.9694L36.3097 23.7797L48.3097 25.019C45.8323 28.2723 30.0387 34.6239 26.7871 35.9406L4.87742 43.9963C4.25806 44.1512 4.02581 44.2287 3.56129 44.7709C2.0129 46.3975 1.47097 49.8057 4.56774 51.2774C4.95484 51.4323 5.34194 51.5872 5.80645 51.5872C12.1548 51.6647 30.8903 41.5176 36.0774 38.6517C39.0194 37.1025 54.5032 27.1104 56.671 27.4202C60.1548 27.9624 62.4774 29.3567 66.3484 29.3567L67.2774 27.6526L66.0387 26.026C64.8 25.9485 59.2258 26.2584 58.2968 24.4768ZM7.12258 48.7987H7.04516C6.34839 48.7987 5.72903 48.179 5.72903 47.4819C5.72903 46.7073 6.34839 46.1651 7.04516 46.1651C7.81936 46.1651 8.36129 46.7848 8.36129 47.4819C8.36129 48.179 7.81936 48.7987 7.12258 48.7987ZM51.2516 27.885C50.4774 27.885 49.8581 27.2653 49.8581 26.4907C49.8581 25.7936 50.4774 25.1739 51.2516 25.1739C51.9484 25.2514 52.5677 25.7936 52.5677 26.5682C52.5677 27.2653 51.9484 27.885 51.2516 27.885ZM72.5419 6.81633C71.8452 6.66141 71.1484 6.58395 70.4516 6.58395C69.8323 6.58395 69.2129 6.66141 68.5936 6.81633C67.1226 7.12616 65.8064 7.82329 64.8774 8.9077C63.4839 10.4569 62.7097 12.4708 62.7097 14.9494C62.7097 17.4281 63.4065 19.5195 64.8 20.9912C66.1161 22.5404 68.0516 23.3149 70.4516 23.3149C72.8516 23.3149 74.7097 22.5404 76.1032 21.0687C77.4968 19.5195 78.1936 17.5056 78.1936 14.9494C78.1936 12.3159 77.4968 10.302 76.1806 8.83024C75.1742 7.74583 73.9355 7.0487 72.5419 6.81633ZM73.2387 18.8224C72.6194 19.7519 71.6129 20.2941 70.4516 20.2166C67.8968 20.2166 66.6581 18.4351 66.6581 14.9494C66.6581 13.2454 66.9677 12.006 67.6645 11.0765C68.3613 10.147 69.2903 9.68228 70.4516 9.68228C73.0065 9.68228 74.3226 11.3864 74.3226 14.9494C74.3226 16.5761 73.9355 17.8929 73.2387 18.8224ZM94.6065 1.54917H92.9806V5.65445H93.9871V4.18275H94.6065C95.4581 4.18275 96 3.64054 96 2.86596C96 2.09137 95.4581 1.54917 94.6065 1.54917ZM94.6065 3.33071H93.9871V2.47866H94.6065C94.8387 2.47866 94.9935 2.63358 94.9935 2.86596C94.9935 3.09833 94.8387 3.33071 94.6065 3.33071ZM86.4 18.0478L81.9871 6.89379H78.1161L83.1484 19.3646C83.8452 21.2236 84.2323 22.5404 84.3097 23.5473C84.3097 23.7797 84.3097 24.0121 84.2323 24.167C84.0774 24.4768 83.9226 24.7092 83.6903 24.9416C83.4581 25.1739 83.071 25.5612 82.2968 25.7936C81.9097 25.8711 81.4452 25.9485 80.9806 25.9485H79.9742L78.5032 27.6526L79.9742 29.2792C85.3935 29.5116 87.0194 26.1034 87.0194 26.1034V26.026L87.0968 25.9485L94.2968 6.89379H90.4258L86.4 18.0478ZM57.0581 22.0756L58.0645 22.2305C58.529 21.9207 59.071 21.4559 59.3806 21.2236C60.8516 20.0617 61.6258 18.5125 61.6258 16.4986C61.6258 13.4777 60.2323 11.5413 57.5226 10.6118C59.3806 9.60483 60.3097 8.21058 60.3097 6.42904C60.3097 4.6475 59.6903 3.25325 58.3742 2.24629C57.0581 1.23933 55.2774 0.774583 53.0323 0.774583C51.7935 0.774583 49.7032 0.852041 46.7613 1.00696L46.4516 20.449L48.6968 20.8363L57.0581 22.0756ZM57.6 16.0339C57.6 17.3507 57.1355 18.3576 56.3613 18.9773C55.5871 19.5195 54.3484 19.8293 52.5677 19.8293C52.1032 19.8293 51.4839 19.7519 50.7097 19.7519V12.4708C51.6387 12.4708 52.2581 12.3933 52.6452 12.3933C54.5032 12.3933 55.7419 12.7032 56.4387 13.2454C57.2129 13.865 57.6 14.7171 57.6 16.0339ZM52.9548 4.02783C55.2774 4.02783 56.4387 4.87987 56.4387 6.58395C56.4387 8.52041 55.1226 9.44991 52.5677 9.44991C51.9484 9.44991 51.2516 9.44991 50.7097 9.37245V4.10529C51.5613 4.02783 52.2581 4.02783 52.9548 4.02783ZM60.929 5.65445H62.0129C62.7871 5.65445 63.2516 5.1897 63.2516 4.41512C63.2516 4.02783 63.0968 3.79546 62.7871 3.56308C63.0968 3.33071 63.2516 3.02087 63.2516 2.71104C63.2516 2.01392 62.7097 1.54917 61.9355 1.54917H60.2323V3.40816C60.3097 3.48562 60.3871 3.64054 60.3871 3.718C60.6968 4.33766 60.8516 4.95733 60.929 5.65445ZM61.2387 2.47866H61.8581C62.0903 2.47866 62.2452 2.63358 62.2452 2.7885C62.2452 3.02087 62.0903 3.17579 61.8581 3.17579H61.2387V2.47866ZM61.2387 4.02783H61.8581C62.0903 4.02783 62.2452 4.10529 62.2452 4.33766V4.41512C62.2452 4.57004 62.0903 4.72496 61.8581 4.72496H61.2387V4.02783ZM4.49032 10.7667C4.64516 8.9077 5.03226 7.43599 5.80645 6.19666C6.8129 4.87987 8.12903 4.18275 9.83226 4.18275C13.6258 4.18275 15.5613 6.81633 15.5613 12.006C15.5613 13.4003 15.4065 14.6396 15.0968 15.724L19.1226 16.3437C19.4323 14.9494 19.6645 13.4777 19.5871 12.006C19.5871 8.44295 18.8129 5.73191 17.1097 3.718C15.4065 1.78154 13.0065 0.774583 9.83226 0.697124C6.96774 0.697124 4.64516 1.70408 2.94194 3.87291C1.39355 5.80937 0.541936 8.13312 0.387097 10.8442V11.9286L0.309677 13.4777L4.4129 14.0974C4.33548 13.3228 4.4129 11.6962 4.49032 10.7667ZM29.3419 17.8929L33.9097 18.59C33.7548 18.4351 33.6774 18.2027 33.5226 18.0478C33.1355 17.2732 32.9032 16.2662 32.9032 15.1044C32.9032 13.4003 33.3677 12.0835 34.1419 11.154C34.9935 10.2245 36.1548 9.75974 37.6258 9.75974C38.4774 9.75974 39.329 10.0696 40.1032 10.7667V19.5195L43.8968 20.0617V0L40.1032 0.929499V7.35854C39.0968 6.81633 37.9355 6.58395 36.7742 6.58395C34.6065 6.58395 32.7484 7.35854 31.2774 8.98516C29.8065 10.6118 29.0323 12.6257 29.0323 15.1818C29.0323 16.0339 29.1097 16.8084 29.2645 17.583L29.3419 17.8929Z" fill="white"/>
</svg>
