<svg width="40" height="24" viewBox="0 0 40 24" fill="none" xmlns="http://www.w3.org/2000/svg">
<path d="M39.1238 21.2685C38.3864 20.8483 37.6411 20.4518 36.8799 20.0791C36.6737 19.9761 36.4993 19.7065 36.4993 19.4845C36.4993 17.3357 36.4993 15.179 36.4993 13.0302C36.4993 12.8161 36.6579 12.7209 36.8482 12.8161C37.5221 13.1491 38.1961 13.498 38.8542 13.8707C38.9256 13.9103 38.9811 13.8786 38.9811 13.7993C38.9811 13.3315 38.9811 12.8637 38.9811 12.3958C38.9811 12.3165 38.9256 12.2135 38.8542 12.1738C38.1961 11.8012 37.5221 11.4523 36.8482 11.1193C36.6579 11.0241 36.4993 10.7783 36.4993 10.5642C36.4993 9.24798 36.4993 7.93968 36.4993 6.62345C36.4993 6.39351 36.6658 6.29043 36.8799 6.39351C37.6411 6.76617 38.3864 7.16263 39.1318 7.5908C39.2824 7.67802 39.4172 7.62252 39.4331 7.46393C39.4806 7.0992 39.5282 6.73446 39.5758 6.36972C39.5758 6.34593 39.5599 6.31422 39.5361 6.29836C37.9503 5.36272 36.309 4.54603 34.628 3.85619C34.5329 3.81655 34.4694 3.87998 34.4853 3.98306C34.5329 4.29229 34.5725 4.60153 34.6201 4.90283C34.6439 5.0852 34.6597 5.25965 34.6597 5.43409C34.6597 9.9061 34.6597 14.3781 34.6597 18.8501C34.6597 19.1514 34.6359 19.4448 34.5884 19.7223C34.5487 19.9602 34.5091 20.1981 34.4694 20.428C34.4615 20.4756 34.5011 20.539 34.5487 20.5628C36.2376 21.2527 37.8948 22.0693 39.4886 23.0129C39.5361 23.0446 39.5758 23.0129 39.5679 22.9574C39.5203 22.553 39.4727 22.1486 39.4251 21.7443C39.4093 21.5619 39.2745 21.3557 39.1238 21.2685ZM10.4601 2.16729C7.01089 3.04742 3.65688 4.41123 0.516947 6.26664C0.461443 6.29836 0.421797 6.37765 0.429726 6.44108C0.48523 6.76617 0.532805 7.08334 0.588309 7.40843C0.604167 7.48772 0.604167 7.56702 0.604167 7.65424C0.604167 12.1659 0.604167 16.6855 0.604167 21.1971C0.604167 21.4985 0.58038 21.8156 0.540734 22.1407C0.501089 22.4182 0.469372 22.6878 0.429726 22.9653C0.421797 23.0208 0.461443 23.0526 0.509017 23.0208C1.16713 22.6323 1.82525 22.2676 2.49923 21.9266C2.5468 21.9028 2.58645 21.8315 2.57852 21.7839C2.53887 21.554 2.49923 21.3161 2.46751 21.0861C2.41993 20.8086 2.39615 20.5232 2.39615 20.2139C2.39615 17.9462 2.39615 15.6864 2.39615 13.4187C2.39615 13.2998 2.48337 13.165 2.58645 13.1095C3.10977 12.8399 3.64102 12.5861 4.17227 12.3483C4.25156 12.3086 4.31499 12.2135 4.31499 12.1263C4.31499 11.7219 4.31499 11.3175 4.31499 10.9131C4.31499 10.8259 4.25156 10.7862 4.17227 10.8179C3.64102 11.0558 3.10977 11.3096 2.58645 11.5791C2.48337 11.6346 2.39615 11.5791 2.39615 11.4681C2.39615 9.97746 2.39615 8.49472 2.39615 7.00405C2.39615 6.86925 2.4913 6.71067 2.61816 6.64724C4.9414 5.4658 7.35978 4.5381 9.83366 3.86412C9.98431 3.82448 10.1191 3.67382 10.135 3.50731C10.2618 3.07121 10.3887 2.64304 10.5076 2.20694C10.4997 2.17522 10.4838 2.15936 10.4601 2.16729ZM10.1905 17.518C10.1905 16.1939 10.1905 14.8697 10.1905 13.5376C10.1905 13.3949 10.135 13.268 10.0319 13.1967C9.80987 13.0381 9.58786 12.8795 9.36584 12.7209C9.15969 12.5703 9.15969 12.2214 9.36584 11.9597C9.58786 11.6743 9.80987 11.3968 10.0319 11.1193C10.135 10.9924 10.1905 10.8417 10.1905 10.699C10.1905 9.17662 10.1905 7.65423 10.1905 6.13185C10.1905 5.56888 9.75437 5.23586 9.21519 5.38651C7.86724 5.77504 6.53515 6.24285 5.23477 6.78996C5.15548 6.82168 5.09998 6.93269 5.12376 7.00405C5.16341 7.11506 5.20306 7.22606 5.2427 7.33707C5.26649 7.4005 5.27442 7.47186 5.27442 7.54323C5.27442 11.4206 5.27442 15.2979 5.27442 19.1752C5.27442 19.5082 5.2427 19.8571 5.17134 20.2139C5.14755 20.3408 5.12376 20.4756 5.09205 20.6025C5.08412 20.6659 5.11584 20.6976 5.17134 20.6738C5.78981 20.4122 6.41621 20.1743 7.05054 19.9523C7.10604 19.9364 7.14569 19.8651 7.12983 19.8175C7.10604 19.7065 7.08226 19.5955 7.05054 19.4845C6.97918 19.1832 6.94746 18.8581 6.94746 18.525C6.94746 17.3357 6.94746 16.1384 6.94746 14.949C6.94746 14.505 7.28841 14.0213 7.70866 13.8786C8.1289 13.7359 8.47778 13.9896 8.47778 14.4336C8.47778 15.623 8.47778 16.8203 8.47778 18.0096C8.47778 18.3427 8.43814 18.6915 8.36677 19.0404C8.34299 19.1673 8.31127 19.2942 8.28748 19.421C8.27955 19.4765 8.31127 19.5162 8.36677 19.5003C9.0011 19.3021 9.64336 19.1118 10.2856 18.9453C10.3411 18.9294 10.3808 18.866 10.3649 18.8184C10.3411 18.7074 10.3094 18.5964 10.2856 18.4775C10.2301 18.1762 10.1905 17.8511 10.1905 17.518ZM8.47778 10.8972C8.47778 11.4364 8.05754 12.0073 7.54215 12.1897C7.46285 12.2135 7.37563 12.2452 7.29634 12.2769C7.10604 12.3403 6.94746 12.2373 6.94746 12.0311C6.94746 10.6197 6.94746 9.21627 6.94746 7.80489C6.94746 7.59873 7.10604 7.37672 7.29634 7.31328C7.57386 7.21813 7.84345 7.12298 8.12097 7.03576C8.3192 6.97233 8.47778 7.09127 8.47778 7.29743C8.47778 8.48679 8.47778 9.69201 8.47778 10.8972ZM24.5263 2.76198C25.3589 2.85713 26.1914 2.98399 27.0161 3.13464C27.1112 3.1505 27.1905 3.08707 27.1905 2.98399C27.1905 2.59547 27.1905 2.20694 27.1905 1.81841C27.1905 1.71534 27.1112 1.62018 27.0161 1.60433C25.9456 1.4061 24.8673 1.25545 23.781 1.15237C22.7502 1.04929 21.9097 1.85806 21.9097 2.9047C21.9097 5.52923 21.9097 8.15377 21.9097 10.7783C21.9097 10.8814 21.7591 10.8893 21.7353 10.7862C21.1564 7.63045 20.5697 4.48259 19.9909 1.3506C19.9512 1.12858 19.753 0.962069 19.531 0.969998C18.9918 0.977927 18.4605 0.993787 17.9214 1.0255C17.8579 1.0255 17.8183 1.08894 17.8421 1.14444C17.8421 1.14444 18.1117 2.08007 18.1275 2.48446C18.1275 6.54416 18.1275 10.6039 18.1275 14.6556C18.1275 14.7825 18.2306 14.8777 18.3495 14.8697C18.7936 14.8539 19.2297 14.838 19.6737 14.838C19.7926 14.838 19.8957 14.7349 19.8957 14.616C19.8957 12.6654 19.8957 10.7149 19.8957 8.77224C19.8957 8.66916 20.0464 8.6533 20.0702 8.75638C20.5935 11.5871 21.1247 14.4257 21.648 17.2802C21.7036 17.5577 21.9414 17.7718 22.2189 17.7876C22.7978 17.8193 23.3687 17.8669 23.9396 17.9224C24.0664 17.9383 24.1457 17.8193 24.0981 17.6925C24.0902 17.6766 24.0902 17.6608 24.0823 17.6528C23.8127 16.963 23.67 16.2415 23.67 15.5199C23.67 11.5236 23.67 7.52737 23.67 3.5311C23.6779 3.05535 24.0585 2.70647 24.5263 2.76198ZM30.1322 9.36692C30.2353 9.29556 30.2908 9.16869 30.2908 9.02597C30.2908 7.41636 30.2908 5.79882 30.2908 4.18922C30.2908 3.84033 30.3146 3.49938 30.3701 3.17429C30.4097 2.94435 30.4494 2.7144 30.489 2.48446C30.4969 2.45274 30.4652 2.4131 30.4335 2.40517C29.7754 2.2228 29.1093 2.04836 28.4354 1.90563C28.3878 1.8977 28.3561 1.92942 28.364 1.977C28.4037 2.2228 28.4433 2.4686 28.475 2.70647C28.5305 3.06328 28.5622 3.41216 28.5622 3.76104C28.5622 5.41823 28.5622 7.06748 28.5622 8.72466C28.5622 8.93082 28.4037 9.05769 28.2054 9.01804C27.9913 8.97047 27.7693 8.92289 27.5552 8.88325C27.357 8.8436 27.1905 8.64537 27.1905 8.43922C27.1905 7.24192 27.1905 6.0367 27.1905 4.8394C27.1905 4.68875 27.0716 4.54603 26.9288 4.52224C26.4134 4.42709 25.906 4.3478 25.3906 4.27644C25.3034 4.26851 25.2479 4.33194 25.2637 4.41916C25.3192 4.69668 25.3747 4.96627 25.4302 5.24379C25.4382 5.29136 25.4461 5.33894 25.4461 5.38651C25.4461 9.04183 25.4461 12.6892 25.4461 16.3445C25.4461 16.6458 25.4223 16.9471 25.3747 17.2405C25.3351 17.4863 25.2954 17.7321 25.2479 17.9779C25.2399 18.0334 25.2796 18.081 25.3351 18.0889C25.9932 18.1841 26.6513 18.2872 27.3094 18.414C27.3649 18.422 27.4046 18.3823 27.3967 18.3268C27.357 18.0651 27.3174 17.8035 27.2698 17.5418C27.2222 17.2326 27.1984 16.9234 27.1984 16.6221C27.1984 14.7904 27.1984 12.9667 27.1984 11.1351C27.1984 10.929 27.357 10.7942 27.5632 10.8338C27.7773 10.8735 27.9993 10.921 28.2134 10.9686C28.4116 11.0082 28.5702 11.2144 28.5702 11.4206C28.5702 13.2522 28.5702 15.0759 28.5702 16.9075C28.5702 17.2088 28.5464 17.5101 28.4988 17.7956C28.4592 18.0414 28.4195 18.2792 28.3799 18.525C28.3719 18.5726 28.4116 18.636 28.4671 18.644C29.1173 18.7867 29.7675 18.9532 30.4177 19.1356C30.4732 19.1514 30.5128 19.1118 30.4969 19.0563C30.4573 18.7946 30.4177 18.525 30.378 18.2634C30.3304 17.9541 30.3066 17.6449 30.3066 17.3436C30.3066 15.5199 30.3066 13.6962 30.3066 11.8725C30.3066 11.7298 30.2511 11.5791 30.1481 11.4443C29.926 11.1668 29.704 10.8893 29.482 10.6118C29.2679 10.3501 29.2679 10.0012 29.482 9.8506C29.6961 9.69201 29.9181 9.5255 30.1322 9.36692ZM33.4069 4.16543C33.4466 3.95134 33.4783 3.72933 33.5179 3.51524C33.5259 3.46767 33.4862 3.40423 33.4386 3.38045C32.8043 3.14257 32.17 2.92849 31.5277 2.72233C31.4802 2.70647 31.4405 2.73819 31.4484 2.80162C31.4881 3.04742 31.5198 3.2853 31.5594 3.5311C31.615 3.88791 31.6387 4.24472 31.6387 4.5936C31.6387 8.9784 31.6387 13.3632 31.6387 17.748C31.6387 18.0493 31.615 18.3427 31.5674 18.6281C31.5277 18.866 31.4881 19.1118 31.4484 19.3497C31.4405 19.3972 31.4802 19.4607 31.5277 19.4765C32.17 19.6748 32.8043 19.8968 33.4386 20.1267C33.4862 20.1426 33.5259 20.1109 33.5179 20.0554C33.4783 19.7858 33.4386 19.5241 33.399 19.2545C33.3514 18.9374 33.3276 18.6281 33.3276 18.3268C33.3276 13.942 33.3276 9.55722 33.3276 5.17242C33.3276 4.82354 33.3594 4.49052 33.4069 4.16543ZM19.6737 16.1939C18.9759 16.2018 18.2702 16.2256 17.5725 16.2652C17.1681 16.289 16.8351 16.0115 16.7954 15.6071C16.4307 11.4206 16.058 7.23399 15.6933 3.05535C15.6616 2.69854 15.6854 2.33381 15.7646 1.977C15.8122 1.75498 15.8598 1.53297 15.9074 1.31888C15.9232 1.24752 15.8677 1.19201 15.8043 1.19994C14.6387 1.32681 13.489 1.50918 12.3393 1.73912C12.26 1.75498 12.2045 1.83427 12.2203 1.91356C12.2679 2.11972 12.3075 2.32588 12.3551 2.53203C12.4265 2.85713 12.4503 3.20601 12.4186 3.55489C11.9983 8.58194 11.586 13.609 11.1658 18.644C11.1578 18.6995 11.1975 18.7312 11.253 18.7153C11.7763 18.5964 12.2996 18.4854 12.8229 18.3823C12.8705 18.3744 12.9022 18.3347 12.9102 18.2872C13.0053 17.185 13.0925 16.0908 13.1877 14.9887C13.2194 14.5684 13.5603 14.1957 13.9647 14.1323C14.0282 14.1244 14.0916 14.1165 14.1471 14.1006C14.5515 14.0372 14.8924 14.3068 14.9242 14.7191C14.9717 15.2503 15.0114 15.7736 15.059 16.3049C15.1462 17.2722 15.947 17.9145 16.9144 17.8352C17.8262 17.7638 18.746 17.7242 19.6658 17.7163C19.7926 17.7163 19.8878 17.6132 19.8878 17.4943C19.8878 17.1374 19.8878 16.7727 19.8878 16.4159C19.8957 16.289 19.8006 16.186 19.6737 16.1939ZM14.4563 12.7526C14.1867 12.7923 13.9251 12.8319 13.6555 12.8795C13.4969 12.9033 13.37 12.7923 13.3859 12.6258C13.5683 10.4056 13.7586 8.18548 13.9409 5.97326C13.9568 5.83054 14.155 5.79882 14.1709 5.94155C14.3533 8.09826 14.5436 10.2629 14.7339 12.4196C14.7418 12.5703 14.6149 12.7289 14.4563 12.7526Z" fill="white"/>
</svg>
