<svg width="79" height="45" viewBox="0 0 79 45" fill="none" xmlns="http://www.w3.org/2000/svg">
<path fill-rule="evenodd" clip-rule="evenodd" d="M79.0004 43.9962V30.1188H71.8437L71.8464 37.7108C71.8464 39.743 70.1974 41.3981 68.1645 41.3981C67.1868 41.3974 66.2493 41.0087 65.558 40.3173C64.8666 39.626 64.4779 38.6885 64.4772 37.7108L64.4745 0.409668H57.3164V43.9962H79.0004ZM25.2224 36.407C25.2224 40.7421 22.4002 44.6495 14.3798 44.6495C6.35388 44.6495 3.53711 39.5514 3.53711 36.407V30.1188H10.6918V37.7108C10.6932 38.6889 11.0826 39.6264 11.7745 40.3177C12.4665 41.009 13.4044 41.3976 14.3825 41.3981C16.4187 41.3981 18.0678 39.6922 18.0678 37.658L18.0651 0.410345H25.2224V36.407ZM52.1121 14.9376V7.51151C52.1121 2.68556 47.7214 0.409668 44.9554 0.409668H30.6427V43.9962H44.9547C50.3243 43.9962 52.1114 40.5242 52.1114 38.3045V25.2401C52.1114 23.3954 50.2139 20.9536 47.3924 20.9536C50.2146 20.9543 52.1121 17.1066 52.1121 14.9376ZM42.1386 40.4294L37.7967 40.4199V22.8525H42.1386C44.9547 22.8525 44.9547 24.861 44.9547 31.6887C44.9547 38.5197 44.9547 40.4294 42.1386 40.4294ZM41.7013 19.1753L37.7974 19.1699V4.52618H41.7013C44.3049 4.52618 44.9554 5.07315 44.9554 11.8995C44.9547 18.7319 44.3042 19.1753 41.7013 19.1753Z" fill="white"/>
<path fill-rule="evenodd" clip-rule="evenodd" d="M7.11325 17.0829C6.0143 17.0829 4.96036 17.5194 4.18329 18.2965C3.40621 19.0736 2.96966 20.1275 2.96966 21.2264C2.96966 22.3254 3.40621 23.3793 4.18329 24.1564C4.96036 24.9335 6.0143 25.37 7.11325 25.37C8.21166 25.3693 9.26484 24.9324 10.0412 24.1554C10.8176 23.3784 11.2536 22.3249 11.2535 21.2264C11.2536 20.128 10.8176 19.0745 10.0412 18.2975C9.26484 17.5205 8.21166 17.0836 7.11325 17.0829ZM0.496094 0.409668L7.11325 15.4785L13.7263 0.409668H0.496094Z" fill="white"/>
</svg>
