<svg width="119" height="33" viewBox="0 0 119 33" fill="none" xmlns="http://www.w3.org/2000/svg">
<path d="M30.9514 16.2042C30.7543 15.8075 30.2295 15.4835 29.7852 15.4835H28.8829C28.4396 15.4835 27.9209 15.8112 27.7292 16.2109L20.5734 31.1606C20.3745 31.556 20.5906 31.8392 21.0348 31.8392H22.6884C23.3413 31.8392 23.6405 31.5423 23.8172 31.1786C23.9943 30.8149 24.3887 30.024 24.4642 29.8628C24.5661 29.6445 24.8807 29.5108 25.324 29.5113L33.0233 29.5153C33.4671 29.5162 33.7522 29.6005 33.8836 29.8628C33.9692 30.0335 34.3627 30.7449 34.5561 31.1329C34.7512 31.521 35.0788 31.8392 35.7148 31.8392H38.1142C38.5579 31.8392 38.7523 31.5024 38.5925 31.1896C38.4319 30.8762 30.9512 16.2042 30.9512 16.2042H30.9514ZM26.4306 27.2024C25.9873 27.2024 25.7784 26.8721 25.965 26.471L28.7847 20.4301C28.9724 20.0277 29.2759 20.0305 29.4588 20.4327L32.2042 26.4735C32.3871 26.8765 32.1744 27.2065 31.7316 27.2065L26.4306 27.2024ZM86.2452 16.3198V31.1509C86.2452 31.5593 86.6078 31.8392 87.052 31.8392H89.0075C89.4507 31.8392 89.8137 31.556 89.8137 31.1123V16.2899C89.8137 15.8457 89.5272 15.484 89.0839 15.484H87.052C86.6078 15.4835 86.2452 15.7565 86.2452 16.3198ZM53.4764 25.6095C53.2215 25.2464 53.3615 24.8456 53.7858 24.7188C53.7858 24.7188 55.4754 24.2131 56.2842 23.4879C57.0934 22.7605 57.5001 21.7107 57.5001 20.3421C57.5001 19.4473 57.3436 18.695 57.0321 18.0829C56.7206 17.4725 56.2739 16.9728 55.6929 16.5905C55.1117 16.2061 54.4162 15.9241 53.6059 15.7475C52.7949 15.5717 51.7004 15.5204 51.7004 15.5204C51.1636 15.4981 50.6263 15.4858 50.089 15.4837H41.9684C41.5255 15.4837 41.1625 15.8454 41.1625 16.2896V31.1124C41.1625 31.5564 41.5252 31.8394 41.9684 31.8394H43.8901C44.3337 31.8394 44.6964 31.5561 44.6964 31.1124C44.6964 31.1124 44.6977 25.2167 44.7013 25.2167C44.7045 25.2167 44.7066 25.2136 44.7066 25.2094C44.7066 25.2045 48.3495 25.2003 48.3495 25.2003C48.7925 25.2003 49.3646 25.4966 49.621 25.8596L53.4027 31.1844C53.7541 31.656 54.0883 31.8392 54.5317 31.8392H57.0437C57.4873 31.8392 57.5569 31.4209 57.4034 31.2038C57.2513 30.9878 53.4764 25.6095 53.4764 25.6095ZM51.9472 22.599C51.4495 22.7135 50.8894 22.7364 50.8894 22.7364C50.3526 22.7579 49.8153 22.7696 49.278 22.7715H45.5137C45.07 22.7715 44.7074 22.4084 44.7074 21.9652V18.9619C44.7074 18.5183 45.07 18.1557 45.5136 18.1557H49.2779C49.7216 18.1557 50.4463 18.1716 50.8893 18.1902C50.8893 18.1902 51.4495 18.2122 51.9471 18.3272C52.4446 18.442 52.8396 18.6022 53.1283 18.809C53.4183 19.0172 53.6254 19.2613 53.7507 19.5422C53.8741 19.823 53.937 20.1285 53.937 20.4625C53.937 20.7946 53.8741 21.1023 53.7507 21.3825C53.6254 21.6633 53.4185 21.9073 53.1283 22.1155C52.8396 22.3238 52.4448 22.4861 51.9472 22.599ZM110.254 15.4835C109.811 15.4835 109.452 15.7757 109.452 16.203L109.457 25.6844C109.457 26.1288 109.206 26.2297 108.898 25.9103L99.4042 16.063C99.096 15.7437 98.645 15.4835 98.0372 15.4835H96.2519C95.6907 15.4835 95.4448 15.7831 95.4448 16.0865V31.2482C95.4448 31.5508 95.7329 31.8394 96.1771 31.8394H97.9654C98.4077 31.8394 98.718 31.5982 98.718 31.1898C98.718 30.9849 98.7273 21.2015 98.7273 21.2015C98.7273 20.7582 98.9781 20.6571 99.2849 20.9772L109.184 31.2682C109.499 31.5829 109.881 31.8395 110.56 31.8395H111.903C112.347 31.8395 112.71 31.4769 112.71 31.0331V16.2902C112.71 15.846 112.347 15.4843 111.903 15.4843H110.254V15.4835ZM71.5469 24.7286C71.3316 25.116 70.9771 25.1148 70.7649 24.7266L66.1242 16.2042C65.9271 15.8087 65.5225 15.4835 64.9585 15.4835H62.4417C61.9981 15.4835 61.6346 15.8453 61.6346 16.2894V31.0934C61.6346 31.5362 61.926 31.8392 62.4417 31.8392H64.0062C64.4503 31.8392 64.7702 31.5593 64.7702 31.1316C64.7702 30.9266 64.7768 20.3645 64.7936 20.3645C64.8108 20.3645 70.5858 31.1286 70.5858 31.1286C70.7949 31.5192 71.3081 31.521 71.5213 31.1319C71.5213 31.1319 77.3437 20.3951 77.3609 20.3951C77.3791 20.3951 77.3725 30.8231 77.3725 31.1315C77.3725 31.5596 77.7145 31.8391 78.1585 31.8391H79.9605C80.4045 31.8391 80.7664 31.618 80.7664 31.0327V16.2897C80.766 16.0761 80.681 15.8713 80.53 15.7203C80.3789 15.5692 80.1741 15.4842 79.9605 15.4838H77.5477C76.9319 15.4838 76.5615 15.7978 76.3414 16.1834L71.5467 24.7286H71.5469ZM0 23.6469C0 31.6338 8.16937 32.0388 9.80726 32.0388C15.2285 32.0388 17.5194 30.5739 17.6144 30.5107C17.9534 30.3188 18.3664 29.9319 18.3664 29.2071V23.6942C18.366 23.4499 18.2688 23.2157 18.096 23.0429C17.9232 22.8702 17.6889 22.773 17.4446 22.7727H10.6339C10.1247 22.7727 9.79045 23.1864 9.79045 23.6942V24.2651C9.79045 24.7739 10.1247 25.1887 10.6339 25.1887H14.5731C14.7558 25.1888 14.9311 25.2614 15.0604 25.3906C15.1897 25.5197 15.2624 25.695 15.2625 25.8777C15.2625 25.8777 15.2588 28.2942 15.2588 28.4473C14.4806 28.765 10.9358 29.8006 8.08786 29.1214C3.95631 28.1331 3.63427 24.7246 3.63427 23.7036C3.63427 22.8467 3.89131 18.5539 8.96533 18.1197C13.0723 17.7682 15.7772 19.4263 15.804 19.4427C16.2867 19.6929 16.7863 19.5145 17.0556 19.0034C17.0568 18.9994 17.568 17.9651 17.568 17.9651C17.7807 17.5395 17.709 17.0982 17.1897 16.746C17.1551 16.7262 14.2759 15.165 9.8083 15.165C0.274742 15.1655 0 22.7788 0 23.6469ZM115.272 29.8031H114.57V29.5499H116.278V29.8031H115.573V31.8565H115.272V29.8031H115.272ZM118.65 30.8436C118.633 30.5217 118.612 30.1316 118.612 29.8476H118.605C118.516 30.1422 118.419 30.4344 118.315 30.7239L117.907 31.8426H117.681L117.305 30.7446C117.195 30.4161 117.107 30.1214 117.041 29.8477H117.034C117.024 30.1879 117.01 30.5279 116.99 30.8676L116.928 31.8562H116.644L116.805 29.5496H117.185L117.579 30.6653C117.666 30.9214 117.743 31.1805 117.811 31.4422H117.818C117.88 31.2096 117.962 30.9564 118.065 30.6653L118.476 29.5496H118.856L119 31.8562H118.705L118.65 30.8436H118.65Z" fill="white"/>
<path d="M109.352 11.3961L98.6536 11.3956C98.2614 11.3956 97.9247 11.2005 97.7289 10.861C97.533 10.5214 97.533 10.1329 97.7292 9.79328L103.079 0.533419C103.274 0.194268 103.611 0 104.003 0C104.395 0 104.732 0.194268 104.928 0.533419L110.276 9.79372C110.473 10.1333 110.473 10.5222 110.277 10.8618C110.081 11.2009 109.744 11.3961 109.352 11.3961Z" fill="white"/>
</svg>
