<svg width="12" height="21" viewBox="0 0 12 21" fill="none" xmlns="http://www.w3.org/2000/svg">
<path d="M11.999 10.5468C11.991 10.8883 11.8566 11.2148 11.6217 11.4629L3.34357 20.086C3.08885 20.3492 2.74019 20.5006 2.37402 20.5071C2.00784 20.5136 1.65402 20.3747 1.3901 20.1208C1.12619 19.8668 0.973718 19.5186 0.966107 19.1525C0.958496 18.7863 1.09637 18.4321 1.3495 18.1674L8.71141 10.5037L1.3495 2.83989C1.09637 2.57522 0.958498 2.22099 0.966108 1.85483C0.97372 1.48868 1.12619 1.14048 1.39011 0.88655C1.65402 0.632625 2.00784 0.493704 2.37402 0.500218C2.7402 0.506733 3.08885 0.658156 3.34357 0.921308L11.6217 9.54436C11.7482 9.67787 11.8468 9.83532 11.9116 10.0075C11.9764 10.1796 12.0061 10.363 11.999 10.5468Z" fill="white"/>
</svg>
