<svg width="109" height="32" viewBox="0 0 109 32" fill="none" xmlns="http://www.w3.org/2000/svg">
<path fill-rule="evenodd" clip-rule="evenodd" d="M104.963 32H4.03704C1.7763 32 0 30.24 0 28V4C0 1.76 1.7763 0 4.03704 0H104.963C107.224 0 109 1.76 109 4V28C109 30.24 107.224 32 104.963 32Z" fill="black"/>
<path fill-rule="evenodd" clip-rule="evenodd" d="M55.1751 13.2435C53.2931 13.2435 51.8032 14.615 51.8032 16.5197C51.8032 18.3483 53.2931 19.7959 55.1751 19.7959C57.0571 19.7959 58.5471 18.4245 58.5471 16.5197C58.5471 14.5388 57.0571 13.2435 55.1751 13.2435ZM55.1738 18.4243C54.1544 18.4243 53.2918 17.5862 53.2918 16.4433C53.2918 15.3004 54.1544 14.4624 55.1738 14.4624C56.1932 14.4624 57.0558 15.2243 57.0558 16.4433C57.0558 17.5862 56.1932 18.4243 55.1738 18.4243ZM47.882 13.2435C46 13.2435 44.5101 14.615 44.5101 16.5197C44.5101 18.3483 46 19.7959 47.882 19.7959C49.764 19.7959 51.2539 18.4245 51.2539 16.5197C51.2539 14.5388 49.764 13.2435 47.882 13.2435ZM47.8814 18.4243C46.862 18.4243 45.9994 17.5862 45.9994 16.4433C45.9994 15.3004 46.862 14.4624 47.8814 14.4624C48.9008 14.4624 49.7634 15.2243 49.7634 16.4433C49.7634 17.5862 48.9008 18.4243 47.8814 18.4243ZM39.1775 14.2335V15.605H42.5494C42.471 16.3669 42.1574 16.9764 41.7653 17.3573C41.2948 17.8145 40.5106 18.3478 39.1775 18.3478C37.0602 18.3478 35.4919 16.7478 35.4919 14.6907C35.4919 12.6335 37.1386 11.0335 39.1775 11.0335C40.2753 11.0335 41.1379 11.4907 41.7653 12.024L42.7847 11.0335C41.9221 10.2716 40.8243 9.66211 39.2559 9.66211C36.4329 9.66211 34.002 11.9478 34.002 14.6907C34.002 17.4335 36.4329 19.7193 39.2559 19.7193C40.8243 19.7193 41.9221 19.2621 42.8631 18.2716C43.8041 17.3573 44.1178 16.0621 44.1178 15.0716C44.1178 14.7669 44.1178 14.4621 44.0394 14.2335H39.1775ZM74.7783 15.3007C74.4647 14.5388 73.6805 13.2435 71.9553 13.2435C70.2302 13.2435 68.8186 14.5388 68.8186 16.5197C68.8186 18.3483 70.2302 19.7959 72.1122 19.7959C73.6021 19.7959 74.5431 18.8816 74.8568 18.3483L73.7589 17.5864C73.3668 18.1197 72.8963 18.5007 72.1122 18.5007C71.328 18.5007 70.8575 18.1959 70.4654 17.5102L74.9352 15.6816L74.7783 15.3007ZM70.2293 16.3671C70.2293 15.1481 71.2488 14.4624 71.9545 14.4624C72.5034 14.4624 73.0524 14.7671 73.2092 15.1481L70.2293 16.3671ZM66.5455 19.4914H68.0346V9.96755H66.5455V19.4914ZM64.1925 13.9301C63.8004 13.5492 63.173 13.1682 62.3889 13.1682C60.7421 13.1682 59.1738 14.6159 59.1738 16.4444C59.1738 18.273 60.6637 19.6444 62.3889 19.6444C63.173 19.6444 63.8004 19.2635 64.1141 18.8825H64.1925V19.3397C64.1925 20.5587 63.4867 21.2444 62.3889 21.2444C61.5263 21.2444 60.8989 20.6349 60.7421 20.1016L59.4874 20.6349C59.8795 21.473 60.8205 22.5397 62.4673 22.5397C64.1925 22.5397 65.604 21.5492 65.604 19.1873V13.3968H64.1925V13.9301ZM62.4669 18.4243C61.4475 18.4243 60.5849 17.5862 60.5849 16.4433C60.5849 15.3004 61.4475 14.4624 62.4669 14.4624C63.4864 14.4624 64.2705 15.3004 64.2705 16.4433C64.2705 17.5862 63.4864 18.4243 62.4669 18.4243ZM81.6021 9.96755H78.0734V19.4914H79.5633V15.9104H81.6021C83.2489 15.9104 84.8173 14.7676 84.8173 12.939C84.8173 11.1104 83.2489 9.96755 81.6021 9.96755ZM81.6819 14.5389H79.5646V11.2627H81.6819C82.7797 11.2627 83.407 12.177 83.407 12.8627C83.3286 13.7008 82.7013 14.5389 81.6819 14.5389ZM90.6958 13.1682C89.5979 13.1682 88.5001 13.6254 88.108 14.6159L89.4411 15.1492C89.7547 14.6159 90.2253 14.4635 90.7742 14.4635C91.5583 14.4635 92.2641 14.9206 92.3425 15.6825V15.7587C92.1073 15.6063 91.4799 15.3778 90.8526 15.3778C89.4411 15.3778 88.0296 16.1397 88.0296 17.5111C88.0296 18.8063 89.2058 19.6444 90.4605 19.6444C91.4799 19.6444 91.9504 19.1873 92.3425 18.7301H92.4209V19.492H93.8324V15.8349C93.6756 14.1587 92.3425 13.1682 90.6958 13.1682ZM90.5415 18.4254C90.071 18.4254 89.3652 18.1968 89.3652 17.5873C89.3652 16.8254 90.2278 16.5968 90.9336 16.5968C91.5609 16.5968 91.8746 16.7492 92.2667 16.9015C92.1098 17.8158 91.3256 18.4254 90.5415 18.4254ZM98.774 13.3951L97.1272 17.5094H97.0488L95.3236 13.3951H93.7553L96.3431 19.1856L94.8531 22.3856H96.3431L100.342 13.3951H98.774ZM85.6007 19.4914H87.0897V9.96755H85.6007V19.4914Z" fill="white"/>
<path fill-rule="evenodd" clip-rule="evenodd" d="M9.92988 5.71484C9.69463 5.94342 9.61621 6.32437 9.61621 6.78151V23.6196C9.61621 24.0768 9.77305 24.4577 10.0083 24.6863L10.0867 24.7625L19.8105 15.3148V15.1625L9.92988 5.71484Z" fill="url(#paint0_linear)"/>
<path fill-rule="evenodd" clip-rule="evenodd" d="M22.9485 18.5143L19.7334 15.3905V15.1619L22.9485 12.0381L23.0269 12.1143L26.8694 14.2476C27.9672 14.8571 27.9672 15.8476 26.8694 16.4571L22.9485 18.5143Z" fill="url(#paint1_linear)"/>
<path fill-rule="evenodd" clip-rule="evenodd" d="M23.0254 18.4383L19.7318 15.2383L9.92969 24.7621C10.3218 25.143 10.8707 25.143 11.5764 24.8383L23.0254 18.4383Z" fill="url(#paint2_linear)"/>
<path fill-rule="evenodd" clip-rule="evenodd" d="M23.0254 12.0391L11.5764 5.7153C10.8707 5.33435 10.3218 5.41054 9.92969 5.79149L19.7318 15.2391L23.0254 12.0391Z" fill="url(#paint3_linear)"/>
<path fill-rule="evenodd" clip-rule="evenodd" d="M22.947 18.3613L11.5764 24.6089C10.9491 24.9899 10.4002 24.9137 10.0081 24.6089L9.92969 24.6851L10.0081 24.7613C10.4002 25.0661 10.9491 25.1423 11.5764 24.7613L22.947 18.3613Z" fill="black"/>
<path fill-rule="evenodd" clip-rule="evenodd" d="M9.92992 24.6111C9.69464 24.3825 9.61621 24.0016 9.61621 23.5444V23.6206C9.61621 24.0778 9.77306 24.4587 10.0083 24.6873V24.6111H9.92992ZM26.8699 16.2288L22.949 18.3621L23.0274 18.4383L26.8699 16.3049C27.4188 16.0002 27.654 15.6192 27.654 15.2383C27.654 15.6192 27.3404 15.924 26.8699 16.2288Z" fill="black"/>
<path opacity="0.25" fill-rule="evenodd" clip-rule="evenodd" d="M11.5766 5.79031L26.868 14.2475C27.3385 14.5522 27.6522 14.857 27.6522 15.2379C27.6522 14.857 27.4169 14.476 26.868 14.1713L11.5766 5.71412C10.4788 5.1046 9.61621 5.56174 9.61621 6.78079V6.85698C9.61621 5.71412 10.4788 5.18079 11.5766 5.79031Z" fill="white"/>
<defs>
<linearGradient id="paint0_linear" x1="15.4478" y1="-5.65849" x2="-0.069453" y2="-1.34024" gradientUnits="userSpaceOnUse">
<stop stop-color="#00A0FF"/>
<stop offset="0.007" stop-color="#00A1FF"/>
<stop offset="0.26" stop-color="#00BEFF"/>
<stop offset="0.512" stop-color="#00D2FF"/>
<stop offset="0.76" stop-color="#00DFFF"/>
<stop offset="1" stop-color="#00E3FF"/>
</linearGradient>
<linearGradient id="paint1_linear" x1="28.3075" y1="7.51942" x2="9.33292" y2="7.51942" gradientUnits="userSpaceOnUse">
<stop stop-color="#FFE000"/>
<stop offset="0.409" stop-color="#FFBD00"/>
<stop offset="0.775" stop-color="#FFA500"/>
<stop offset="1" stop-color="#FF9C00"/>
</linearGradient>
<linearGradient id="paint2_linear" x1="9.68107" y1="10.2966" x2="-2.31333" y2="31.0225" gradientUnits="userSpaceOnUse">
<stop stop-color="#FF3A44"/>
<stop offset="1" stop-color="#C31162"/>
</linearGradient>
<linearGradient id="paint3_linear" x1="2.30916" y1="3.10924" x2="7.6221" y2="12.3757" gradientUnits="userSpaceOnUse">
<stop stop-color="#32A071"/>
<stop offset="0.069" stop-color="#2DA771"/>
<stop offset="0.476" stop-color="#15CF74"/>
<stop offset="0.801" stop-color="#06E775"/>
<stop offset="1" stop-color="#00F076"/>
</linearGradient>
</defs>
</svg>
