<svg width="18" height="18" viewBox="0 0 18 18" fill="none" xmlns="http://www.w3.org/2000/svg">
<path d="M9 0.666992C7.35188 0.666992 5.74078 1.15571 4.37043 2.07136C3.00007 2.987 1.93201 4.28843 1.30131 5.81109C0.670603 7.33375 0.505582 9.00924 0.827112 10.6257C1.14864 12.2421 1.94228 13.7269 3.10768 14.8923C4.27307 16.0577 5.75786 16.8513 7.37431 17.1729C8.99075 17.4944 10.6662 17.3294 12.1889 16.6987C13.7116 16.068 15.013 14.9999 15.9286 13.6296C16.8443 12.2592 17.333 10.6481 17.333 8.99999C17.333 7.90569 17.1175 6.8221 16.6987 5.81109C16.2799 4.80009 15.6661 3.88146 14.8923 3.10767C14.1185 2.33388 13.1999 1.72008 12.1889 1.3013C11.1779 0.882532 10.0943 0.666992 9 0.666992ZM12.583 7.00899L8.775 12.009C8.69741 12.1094 8.59797 12.1909 8.48421 12.2472C8.37045 12.3035 8.24537 12.3332 8.11845 12.334C7.99152 12.3347 7.86609 12.3066 7.75165 12.2517C7.63722 12.1967 7.5368 12.1165 7.458 12.017L5.425 9.42499C5.28907 9.25035 5.22809 9.02886 5.25547 8.80925C5.28285 8.58965 5.39635 8.38992 5.571 8.25399C5.74564 8.11807 5.96713 8.05709 6.18673 8.08447C6.40634 8.11185 6.60607 8.22535 6.742 8.39999L8.1 10.133L11.25 5.96699C11.3168 5.87947 11.4001 5.80595 11.4953 5.75064C11.5905 5.69533 11.6957 5.65931 11.8048 5.64464C11.9139 5.62997 12.0248 5.63693 12.1312 5.66513C12.2376 5.69333 12.3375 5.74222 12.425 5.80899C12.5125 5.87577 12.586 5.95913 12.6413 6.05432C12.6967 6.14951 12.7327 6.25466 12.7473 6.36377C12.762 6.47288 12.7551 6.58381 12.7269 6.69023C12.6987 6.79664 12.6498 6.89647 12.583 6.98399V7.00899Z" fill="#A7A39C"/>
</svg>
