<svg width="50" height="50" viewBox="0 0 50 50" fill="none" xmlns="http://www.w3.org/2000/svg">
<path d="M25 50C38.8071 50 50 38.8071 50 25C50 11.1929 38.8071 0 25 0C11.1929 0 0 11.1929 0 25C0 38.8071 11.1929 50 25 50Z" fill="#3563C3"/>
<mask id="mask0" style="mask-type:alpha" maskUnits="userSpaceOnUse" x="0" y="0" width="50" height="50">
<path d="M25 50C38.8071 50 50 38.8071 50 25C50 11.1929 38.8071 0 25 0C11.1929 0 0 11.1929 0 25C0 38.8071 11.1929 50 25 50Z" fill="#3563C3"/>
</mask>
<g mask="url(#mask0)">
<path fill-rule="evenodd" clip-rule="evenodd" d="M36.8165 30.6405H31.5386C31.5386 39.3183 31.5386 50 31.5386 50H23.7177C23.7177 50 23.7177 39.4219 23.7177 30.6405H20V23.7982H23.7177V19.3725C23.7177 16.2029 25.1811 11.25 31.6104 11.25L37.4058 11.2729V17.9148C37.4058 17.9148 33.8842 17.9148 33.1994 17.9148C32.5146 17.9148 31.5412 18.267 31.5412 19.7787V23.7995H37.5L36.8165 30.6405Z" fill="white"/>
</g>
</svg>
