<svg width="140" height="114" viewBox="0 0 140 114" fill="none" xmlns="http://www.w3.org/2000/svg">
<path fill-rule="evenodd" clip-rule="evenodd" d="M0 8C0 3.58172 3.58172 0 8 0H132C136.418 0 140 3.58172 140 8V14C140 15.1046 139.105 16 138 16H2C0.895426 16 0 15.1046 0 14V8ZM13 8C13 9.65685 11.6569 11 10 11C8.34315 11 7 9.65685 7 8C7 6.34315 8.34315 5 10 5C11.6569 5 13 6.34315 13 8ZM20 11C21.6569 11 23 9.65685 23 8C23 6.34315 21.6569 5 20 5C18.3431 5 17 6.34315 17 8C17 9.65685 18.3431 11 20 11ZM33 8C33 9.65685 31.6569 11 30 11C28.3431 11 27 9.65685 27 8C27 6.34315 28.3431 5 30 5C31.6569 5 33 6.34315 33 8ZM0 106C0 110.418 3.58172 114 8 114H132C136.418 114 140 110.418 140 106V23C140 21.8954 139.105 21 138 21H2C0.895426 21 0 21.8954 0 23V106ZM32.1126 63.3625C31.2345 62.4594 31.2345 60.9951 32.1126 60.0919L35.8257 56.2729L31.5886 51.9091C30.7111 51.0054 30.7111 49.5401 31.5886 48.6364C32.4661 47.7327 33.8888 47.7327 34.7663 48.6364L39.0056 53.0024L43.2424 48.6448C44.1205 47.7417 45.5442 47.7417 46.4223 48.6448C47.3004 49.548 47.3004 51.0123 46.4223 51.9154L42.1834 56.2752L45.8884 60.0909C46.7659 60.9947 46.7659 62.4599 45.8884 63.3636C45.0109 64.2674 43.5882 64.2674 42.7107 63.3636L39.0035 59.5457L35.2925 63.3625C34.4144 64.2657 32.9907 64.2657 32.1126 63.3625ZM94.1126 63.3625C93.2345 62.4594 93.2345 60.9951 94.1126 60.0919L97.8257 56.2729L93.5886 51.9091C92.7111 51.0054 92.7111 49.5401 93.5886 48.6364C94.4661 47.7327 95.8888 47.7327 96.7663 48.6364L101.006 53.0024L105.242 48.6448C106.12 47.7417 107.544 47.7417 108.422 48.6448C109.3 49.548 109.3 51.0123 108.422 51.9154L104.183 56.2752L107.888 60.0909C108.766 60.9947 108.766 62.4599 107.888 63.3636C107.011 64.2674 105.588 64.2674 104.711 63.3636L101.004 59.5457L97.2925 63.3625C96.4144 64.2657 94.9907 64.2657 94.1126 63.3625ZM91.0175 88.9824C91.9875 88.0125 91.9935 86.4314 90.9501 85.5408C88.4424 83.4004 85.6101 81.6634 82.5545 80.3978C78.7328 78.8148 74.6366 78 70.5 78C66.3633 78 62.2672 78.8148 58.4455 80.3978C55.3899 81.6634 52.5576 83.4004 50.0499 85.5408C49.0065 86.4314 49.0125 88.0125 49.9824 88.9825C50.9524 89.9524 52.5183 89.9422 53.5747 89.0671C55.6119 87.3796 57.8938 86.0032 60.3465 84.9873C63.5655 83.6539 67.0157 82.9676 70.5 82.9676C73.9843 82.9676 77.4344 83.6539 80.6535 84.9873C83.1062 86.0032 85.388 87.3796 87.4253 89.0671C88.4817 89.9422 90.0476 89.9524 91.0175 88.9824Z" fill="#00D9B2"/>
</svg>
