<svg width="14" height="15" viewBox="0 0 14 15" fill="none" xmlns="http://www.w3.org/2000/svg">
<path d="M13.0608 8.38341C13.2286 8.19325 13.314 7.94422 13.2982 7.69111C13.2824 7.43799 13.1667 7.20152 12.9766 7.03371C12.6278 6.72665 12.0513 6.66622 11.7619 6.99492L9.89151 9.12027C9.83697 9.18222 9.71549 9.21633 9.65368 9.16192C9.63899 9.14896 9.627 9.13323 9.61839 9.11563C9.60978 9.09804 9.60472 9.07892 9.6035 9.05937C9.60228 9.03981 9.60493 9.02022 9.61128 9.00169C9.61763 8.98316 9.62758 8.96606 9.64054 8.95137L12.8316 5.32673C12.9148 5.2328 12.9787 5.12339 13.0196 5.00475C13.0604 4.88612 13.0775 4.76059 13.0698 4.63535C13.0621 4.51011 13.0298 4.38761 12.9748 4.27486C12.9197 4.16212 12.8429 4.06134 12.7489 3.97829C12.3885 3.66106 11.8164 3.60491 11.4982 3.96632L8.27947 7.6227C8.26626 7.63803 8.25013 7.65059 8.23203 7.65964C8.21393 7.6687 8.19421 7.67408 8.17402 7.67547C8.15382 7.67686 8.13356 7.67423 8.11438 7.66773C8.09521 7.66124 8.07752 7.65101 8.06233 7.63764C8.04714 7.62426 8.03475 7.60801 8.02587 7.58981C8.017 7.57162 8.01183 7.55185 8.01065 7.53164C8.00947 7.51144 8.0123 7.4912 8.01899 7.47209C8.02568 7.45299 8.03609 7.4354 8.04962 7.42035L12.3332 2.55342C12.5021 2.36471 12.5892 2.11662 12.5752 1.86373C12.5612 1.61084 12.4473 1.37386 12.2586 1.20493C12.0699 1.036 11.8218 0.948948 11.569 0.962931C11.3161 0.976915 11.0791 1.09079 10.9102 1.27949L6.63957 6.13043C6.61233 6.16145 6.57389 6.18039 6.5327 6.18307C6.49151 6.18576 6.45093 6.17198 6.41989 6.14477C6.40456 6.13124 6.39198 6.11476 6.383 6.0964C6.37401 6.07803 6.36873 6.05807 6.36746 6.03766C6.36619 6.01725 6.36895 5.99679 6.37558 5.97744C6.38222 5.9581 6.3926 5.94026 6.40613 5.92492L6.62889 5.6719L6.63108 5.66982L6.63278 5.66826C6.82405 5.45127 7.21152 5.01179 7.6425 4.52295C8.49952 3.55088 9.52923 2.38263 9.52923 2.38263C9.83683 2.03323 9.73003 1.45505 9.3668 1.13517C9.27244 1.05232 9.16269 0.988853 9.04381 0.948411C8.92493 0.907968 8.79924 0.891337 8.67393 0.899467C8.54862 0.907597 8.42614 0.94033 8.31348 0.995795C8.20082 1.05126 8.10019 1.12837 8.01733 1.22273L3.33741 6.53865C3.2871 6.59578 3.20494 6.60517 3.12634 6.53596C3.06726 6.48395 3.01684 6.38002 3.00522 6.19358L2.93174 5.01543C2.91233 4.70559 2.77857 4.4339 2.57061 4.25082C2.47228 4.16438 2.35768 4.09845 2.23352 4.05692C2.10937 4.01539 1.97816 3.99908 1.84762 4.00896C1.2555 4.04735 0.834356 4.52838 0.787189 5.15438C0.486466 9.14561 1.96344 11.4982 2.97821 12.5823C3.08248 12.6772 3.16139 12.7228 3.16139 12.6536L3.07796 12.4867C2.95282 12.3199 2.87239 12.072 2.84442 11.9738C2.7308 11.5748 2.75302 11.2352 2.76632 11.032C2.76788 11.0082 2.76931 10.9862 2.7704 10.9663C2.79616 10.4907 3.15408 9.64844 3.85744 9.04813C4.71123 8.31942 5.80177 8.07271 6.50951 8.09181C6.73455 8.09788 6.89965 8.11605 7.01836 8.13712C7.1993 8.16924 7.30822 8.31646 7.31962 8.49988C7.36251 9.18985 7.23504 10.5315 6.929 11.3468C6.67934 12.012 6.20016 12.4969 5.90786 12.6947C5.61556 12.8926 4.97743 13.0269 4.62307 12.7553C4.10093 12.355 4.19387 11.3785 4.72157 10.5941C5.11039 10.0161 5.56886 9.74954 5.83838 9.59281C6.00705 9.49473 6.10172 9.43968 6.05902 9.37828C5.91074 9.29429 5.08743 9.5657 4.40089 10.3649C3.7923 11.0734 3.28161 12.8525 4.82998 13.7382C5.3578 14.0021 5.54494 14.0371 5.9456 14.0943C7.21613 14.2101 8.39283 13.6841 9.26402 12.7008L13.0608 8.38341Z" fill="#BEBAB5"/>
</svg>
