<svg width="30" height="30" viewBox="0 0 30 30" fill="none" xmlns="http://www.w3.org/2000/svg">
<path d="M28.7799 15C29.4538 15 30.0052 15.5472 29.9504 16.2188C29.7109 19.1575 28.6092 21.9706 26.7703 24.2984C24.6784 26.9464 21.7548 28.8116 18.4719 29.5927C15.189 30.3737 11.7386 30.025 8.67841 28.6028C5.61819 27.1807 3.12692 24.7682 1.6072 21.7552C0.0874881 18.7423 -0.371875 15.3049 0.303351 11.9986C0.978578 8.69229 2.74894 5.71027 5.32834 3.53445C7.90773 1.35862 11.1454 0.11612 14.5182 0.00773844C17.4832 -0.0875386 20.4003 0.698531 22.906 2.25263C23.4786 2.60779 23.5909 3.37644 23.1904 3.91832C22.7899 4.4602 22.0286 4.56908 21.4504 4.22302C19.3908 2.99025 17.0127 2.36896 14.5966 2.4466C11.7725 2.53735 9.06146 3.57773 6.90167 5.3996C4.74188 7.22147 3.25951 9.71839 2.69412 12.4868C2.12874 15.2553 2.51337 18.1335 3.78587 20.6563C5.05837 23.1791 7.14437 25.1992 9.70677 26.39C12.2692 27.5808 15.1582 27.8728 17.9071 27.2188C20.656 26.5648 23.104 25.003 24.8555 22.7858C26.354 20.889 27.2679 18.6072 27.5007 16.2182C27.566 15.5476 28.1061 15 28.7799 15Z" fill="#00D9B2"/>
</svg>
