<svg width="20" height="20" viewBox="0 0 20 20" fill="none" xmlns="http://www.w3.org/2000/svg">
<path d="M6.36693 11.5104C7.66846 11.5104 8.71153 12.5637 8.71153 13.8745V17.0213C8.71153 18.3228 7.66846 19.3844 6.36693 19.3844H3.24695C1.95465 19.3844 0.902344 18.3228 0.902344 17.0213V13.8745C0.902344 12.5637 1.95465 11.5104 3.24695 11.5104H6.36693ZM17.0193 11.5104C18.3116 11.5104 19.3639 12.5637 19.3639 13.8745V17.0213C19.3639 18.3228 18.3116 19.3844 17.0193 19.3844H13.8993C12.5978 19.3844 11.5547 18.3228 11.5547 17.0213V13.8745C11.5547 12.5637 12.5978 11.5104 13.8993 11.5104H17.0193ZM6.36693 0.922852C7.66846 0.922852 8.71153 1.98441 8.71153 3.28689V6.4337C8.71153 7.74449 7.66846 8.79682 6.36693 8.79682H3.24695C1.95465 8.79682 0.902344 7.74449 0.902344 6.4337V3.28689C0.902344 1.98441 1.95465 0.922852 3.24695 0.922852H6.36693ZM17.0193 0.922852C18.3116 0.922852 19.3639 1.98441 19.3639 3.28689V6.4337C19.3639 7.74449 18.3116 8.79682 17.0193 8.79682H13.8993C12.5978 8.79682 11.5547 7.74449 11.5547 6.4337V3.28689C11.5547 1.98441 12.5978 0.922852 13.8993 0.922852H17.0193Z" fill="#00D9B2"/>
</svg>
