<svg width="20" height="24" viewBox="0 0 20 24" fill="none" xmlns="http://www.w3.org/2000/svg">
<path d="M18.1362 13.2602C17.8664 13.2602 17.6078 13.3673 17.417 13.5581C17.2263 13.7488 17.1192 14.0075 17.1192 14.2772V20.3772C17.1192 20.6469 17.012 20.9056 16.8213 21.0963C16.6306 21.287 16.3719 21.3942 16.1022 21.3942H3.89817C3.62844 21.3942 3.36976 21.287 3.17904 21.0963C2.98832 20.9056 2.88117 20.6469 2.88117 20.3772V9.91819C2.88117 9.64846 2.98832 9.38978 3.17904 9.19906C3.36976 9.00834 3.62844 8.90119 3.89817 8.90119H5.64217C5.91189 8.90119 6.17057 8.79404 6.3613 8.60331C6.55202 8.41259 6.65917 8.15391 6.65917 7.88419C6.65917 7.61446 6.55202 7.35578 6.3613 7.16506C6.17057 6.97434 5.91189 6.86719 5.64217 6.86719H3.89817C3.08899 6.86719 2.31296 7.18863 1.74079 7.7608C1.16861 8.33298 0.847168 9.10901 0.847168 9.91819V20.3792C0.847168 21.1884 1.16861 21.9644 1.74079 22.5366C2.31296 23.1087 3.08899 23.4302 3.89817 23.4302H16.0982C16.9073 23.4302 17.6834 23.1087 18.2556 22.5366C18.8277 21.9644 19.1492 21.1884 19.1492 20.3792V14.2792C19.1497 14.0098 19.0433 13.7512 18.8534 13.5602C18.6635 13.3691 18.4055 13.2612 18.1362 13.2602Z" fill="#333435"/>
<path d="M8.06387 5.43373L9.20019 4.29741L9.19241 14.2089C9.19241 14.4797 9.29999 14.7394 9.49148 14.9309C9.68296 15.1224 9.94267 15.23 10.2135 15.23C10.4843 15.23 10.744 15.1224 10.9355 14.9309C11.127 14.7394 11.2345 14.4797 11.2345 14.2089L11.2437 4.30024L12.3779 5.43444C12.5687 5.62516 12.8273 5.73231 13.0971 5.73231C13.3668 5.73231 13.6255 5.62516 13.8162 5.43444C14.0069 5.24372 14.1141 4.98504 14.1141 4.71531C14.1141 4.44559 14.0069 4.18691 13.8162 3.99618L10.9397 1.11967C10.7491 0.929072 10.4906 0.821935 10.221 0.821802C9.9515 0.821669 9.69292 0.928553 9.50213 1.11897L6.62562 3.99548C6.43489 4.1862 6.32774 4.44488 6.32774 4.71461C6.32774 4.98433 6.43489 5.24301 6.62562 5.43373C6.81634 5.62446 7.07502 5.73161 7.34474 5.73161C7.61447 5.73161 7.87315 5.62446 8.06387 5.43373Z" fill="#333435"/>
<path d="M1.86417 13.2602C2.1339 13.2602 2.39257 13.3673 2.5833 13.5581C2.77402 13.7488 2.88117 14.0075 2.88117 14.2772V20.3772C2.88117 20.5107 2.90748 20.643 2.95858 20.7664C3.00969 20.8898 3.08461 21.0019 3.17904 21.0963C3.27348 21.1908 3.38559 21.2657 3.50898 21.3168C3.63237 21.3679 3.76462 21.3942 3.89817 21.3942H16.0982C16.3679 21.3942 16.6266 21.287 16.8173 21.0963C17.008 20.9056 17.1152 20.6469 17.1152 20.3772V9.91819C17.1152 9.64846 17.008 9.38978 16.8173 9.19906C16.6266 9.00834 16.3679 8.90119 16.0982 8.90119H14.3592C14.0894 8.90119 13.8308 8.79404 13.64 8.60331C13.4493 8.41259 13.3422 8.15391 13.3422 7.88419C13.3422 7.61446 13.4493 7.35578 13.64 7.16506C13.8308 6.97434 14.0894 6.86719 14.3592 6.86719H16.1022C16.9113 6.86719 17.6874 7.18863 18.2596 7.7608C18.8317 8.33298 19.1532 9.10901 19.1532 9.91819V20.3792C19.1532 21.1884 18.8317 21.9644 18.2596 22.5366C17.6874 23.1087 16.9113 23.4302 16.1022 23.4302H3.89817C3.08899 23.4302 2.31296 23.1087 1.74079 22.5366C1.16861 21.9644 0.84717 21.1884 0.84717 20.3792V14.2792C0.846907 14.1455 0.873018 14.013 0.92401 13.8894C0.975001 13.7658 1.04987 13.6534 1.14433 13.5588C1.2388 13.4641 1.351 13.389 1.47452 13.3378C1.59804 13.2866 1.73045 13.2602 1.86417 13.2602Z" fill="#333435"/>
</svg>
