<svg width="21" height="24" viewBox="0 0 21 24" fill="none" xmlns="http://www.w3.org/2000/svg">
<path fill-rule="evenodd" clip-rule="evenodd" d="M10.2341 0.0834961C4.69342 0.0834961 0.112793 4.51398 0.112793 9.99549C0.112793 12.7577 1.11616 15.3221 2.77081 17.4956C4.57926 19.8932 6.82752 21.9821 9.37258 23.6218C10.0082 24.0293 10.531 24.0007 11.1101 23.6218C13.6408 21.9821 15.889 19.8932 17.7131 17.4956C19.3666 15.3221 20.3711 12.7577 20.3711 9.99549C20.3711 4.51398 15.7905 0.0834961 10.2341 0.0834961ZM10.242 16.7127C13.8318 16.7127 16.742 13.8025 16.742 10.2127C16.742 6.62281 13.8318 3.71266 10.242 3.71266C6.65211 3.71266 3.74196 6.62281 3.74196 10.2127C3.74196 13.8025 6.65211 16.7127 10.242 16.7127Z" fill="white"/>
<path fill-rule="evenodd" clip-rule="evenodd" d="M10.2419 14.0042C12.3359 14.0042 14.0335 12.3066 14.0335 10.2126C14.0335 10.0758 14.0263 9.94068 14.0122 9.80764C13.9728 9.43689 13.408 9.40278 13.0988 9.61113C12.8398 9.78569 12.5277 9.88758 12.1919 9.88758C11.2944 9.88758 10.5669 9.16004 10.5669 8.26258C10.5669 7.92671 10.6688 7.61465 10.8433 7.35561C11.0517 7.04643 11.0176 6.48163 10.6468 6.44227C10.5138 6.42814 10.3787 6.4209 10.2419 6.4209C8.14778 6.4209 6.4502 8.11849 6.4502 10.2126C6.4502 12.3066 8.14778 14.0042 10.2419 14.0042Z" fill="white"/>
</svg>
