<svg width="32" height="32" viewBox="0 0 32 32" fill="none" xmlns="http://www.w3.org/2000/svg">
<path d="M16 32C24.8366 32 32 24.8366 32 16C32 7.16344 24.8366 0 16 0C7.16344 0 0 7.16344 0 16C0 24.8366 7.16344 32 16 32Z" fill="url(#paint0_linear)"/>
<path d="M16.3135 11.9014C14.0688 11.9014 12.209 13.7291 12.209 16.0059C12.209 18.2827 14.0368 20.1105 16.3135 20.1105C18.5902 20.1105 20.418 18.2506 20.418 16.0059C20.418 13.7612 18.5581 11.9014 16.3135 11.9014ZM16.3135 18.6354C14.8705 18.6354 13.684 17.4489 13.684 16.0059C13.684 14.5629 14.8705 13.3764 16.3135 13.3764C17.7565 13.3764 18.9429 14.5629 18.9429 16.0059C18.9429 17.4489 17.7565 18.6354 16.3135 18.6354Z" fill="white"/>
<path d="M20.5804 12.7349C21.094 12.7349 21.5102 12.3185 21.5102 11.8049C21.5102 11.2914 21.094 10.875 20.5804 10.875C20.0668 10.875 19.6504 11.2914 19.6504 11.8049C19.6504 12.3185 20.0668 12.7349 20.5804 12.7349Z" fill="white"/>
<path d="M22.9857 9.39972C22.1519 8.53391 20.9655 8.08496 19.6187 8.08496H13.013C10.2231 8.08496 8.36328 9.94482 8.36328 12.7346V19.3083C8.36328 20.6871 8.81223 21.8736 9.71012 22.7394C10.5759 23.5732 11.7303 23.9901 13.045 23.9901H19.5866C20.9655 23.9901 22.1199 23.5411 22.9536 22.7394C23.8194 21.9057 24.2684 20.7192 24.2684 19.3404V12.7346C24.2684 11.3878 23.8194 10.2334 22.9857 9.39972ZM22.8575 19.3404C22.8575 20.3344 22.5047 21.1361 21.9275 21.6813C21.3503 22.2263 20.5486 22.515 19.5866 22.515H13.045C12.083 22.515 11.2813 22.2263 10.7042 21.6813C10.1269 21.104 9.83834 20.3023 9.83834 19.3083V12.7346C9.83834 11.7726 10.1269 10.971 10.7042 10.3938C11.2493 9.8486 12.083 9.56002 13.045 9.56002H19.6508C20.6127 9.56002 21.4144 9.8486 21.9916 10.4258C22.5367 11.003 22.8575 11.8047 22.8575 12.7346V19.3404Z" fill="white"/>
<defs>
<linearGradient id="paint0_linear" x1="27" y1="3.37139e-07" x2="5.5" y2="32" gradientUnits="userSpaceOnUse">
<stop stop-color="#7449C7"/>
<stop offset="0.568383" stop-color="#E74B6C"/>
<stop offset="1" stop-color="#FEB358"/>
</linearGradient>
</defs>
</svg>
