<svg width="32" height="32" viewBox="0 0 32 32" fill="none" xmlns="http://www.w3.org/2000/svg">
<path d="M16 32C24.8366 32 32 24.8366 32 16C32 7.16344 24.8366 0 16 0C7.16344 0 0 7.16344 0 16C0 24.8366 7.16344 32 16 32Z" fill="#1388DB"/>
<path fill-rule="evenodd" clip-rule="evenodd" d="M23.587 11.7448C23.7121 11.3155 23.587 11 22.9915 11H21.0222C20.5215 11 20.2907 11.2725 20.1655 11.5731C20.1655 11.5731 19.1641 14.0848 17.7455 15.7163C17.2865 16.1886 17.0779 16.3388 16.8275 16.3388C16.7024 16.3388 16.5212 16.1885 16.5212 15.7592V11.7448C16.5212 11.2296 16.3759 11 15.9586 11H12.8641C12.5512 11 12.363 11.2391 12.363 11.4658C12.363 11.9542 13.0723 12.0668 13.1454 13.4408V16.4247C13.1454 17.0789 13.0306 17.1976 12.7802 17.1976C12.1127 17.1976 10.4888 14.6746 9.5257 11.7878C9.33695 11.2267 9.14764 11 8.64437 11H6.67516C6.11253 11 6 11.2725 6 11.5731C6 12.1098 6.6676 14.7717 9.10848 18.2924C10.7357 20.6967 13.0284 22 15.1146 22C16.3663 22 16.5212 21.7105 16.5212 21.2119V19.3947C16.5212 18.8158 16.6398 18.7002 17.0362 18.7002C17.3282 18.7002 17.8289 18.8505 18.9972 20.0098C20.3324 21.3837 20.5525 22 21.3036 22H23.2728C23.8354 22 24.1167 21.7105 23.9544 21.1393C23.7768 20.5699 23.1394 19.7439 22.2935 18.7646C21.8345 18.2065 21.1461 17.6054 20.9374 17.3048C20.6453 16.9185 20.7288 16.7467 20.9374 16.4032C20.9374 16.4032 23.3366 12.9255 23.587 11.7448Z" fill="white"/>
</svg>
