<svg width="24" height="21" viewBox="0 0 24 21" fill="none" xmlns="http://www.w3.org/2000/svg">
<path d="M9.84653 16.1152L8.96191 18.7691" stroke="#BEBAB5" stroke-width="2.6" stroke-linecap="round"/>
<mask id="path-2-inside-1" fill="white">
<path d="M22.6619 6.3228C23.3505 6.40823 23.846 7.03809 23.6891 7.71397C23.1395 10.0815 21.8808 12.237 20.0668 13.8841C17.9415 15.8139 15.1947 16.9179 12.325 16.9956C9.45526 17.0733 6.65275 16.1197 4.42603 14.3078C2.52557 12.7613 1.15201 10.6771 0.474995 8.34288C0.281714 7.67648 0.742405 7.02071 1.42535 6.89812C2.1083 6.77554 2.75331 7.23371 2.965 7.8945C3.52355 9.63801 4.57805 11.192 6.01196 12.3588C7.77242 13.7913 9.9881 14.5453 12.2569 14.4838C14.5258 14.4224 16.6974 13.5496 18.3777 12.0238C19.7463 10.7811 20.7151 9.17227 21.1785 7.40107C21.3541 6.72979 21.9733 6.23736 22.6619 6.3228Z"/>
</mask>
<path d="M22.6619 6.3228C23.3505 6.40823 23.846 7.03809 23.6891 7.71397C23.1395 10.0815 21.8808 12.237 20.0668 13.8841C17.9415 15.8139 15.1947 16.9179 12.325 16.9956C9.45526 17.0733 6.65275 16.1197 4.42603 14.3078C2.52557 12.7613 1.15201 10.6771 0.474995 8.34288C0.281714 7.67648 0.742405 7.02071 1.42535 6.89812C2.1083 6.77554 2.75331 7.23371 2.965 7.8945C3.52355 9.63801 4.57805 11.192 6.01196 12.3588C7.77242 13.7913 9.9881 14.5453 12.2569 14.4838C14.5258 14.4224 16.6974 13.5496 18.3777 12.0238C19.7463 10.7811 20.7151 9.17227 21.1785 7.40107C21.3541 6.72979 21.9733 6.23736 22.6619 6.3228Z" fill="#BEBAB5" stroke="#BEBAB5" stroke-width="2" mask="url(#path-2-inside-1)"/>
<path d="M2.76953 15.231L4.53876 12.5771" stroke="#BEBAB5" stroke-width="2.6" stroke-linecap="round"/>
<path d="M22.2305 15.231L20.4612 12.5771" stroke="#BEBAB5" stroke-width="2.6" stroke-linecap="round"/>
<path d="M15.1535 16.1152L16.0381 18.7691" stroke="#BEBAB5" stroke-width="2.6" stroke-linecap="round"/>
</svg>
