<svg width="21" height="21" viewBox="0 0 21 21" fill="none" xmlns="http://www.w3.org/2000/svg">
<path fill-rule="evenodd" clip-rule="evenodd" d="M20.006 10.0064C20.006 15.5301 15.5282 20.008 10.0045 20.008C4.48077 20.008 0.00292969 15.5301 0.00292969 10.0064C0.00292969 4.48272 4.48077 0.00488281 10.0045 0.00488281C15.5282 0.00488281 20.006 4.48272 20.006 10.0064ZM7.22997 5.47844C7.22997 4.92616 7.67768 4.47844 8.22997 4.47844H11.469C13.3512 4.47844 14.877 6.00427 14.877 7.88647C14.877 9.76867 13.3512 11.2945 11.469 11.2945H9.22997V12.0477H10.9232C11.4755 12.0477 11.9232 12.4954 11.9232 13.0477C11.9232 13.6 11.4755 14.0477 10.9232 14.0477H9.22997V14.7092C9.22997 15.2615 8.78225 15.7092 8.22997 15.7092C7.67768 15.7092 7.22997 15.2615 7.22997 14.7092V14.0477H6.49241C5.94013 14.0477 5.49241 13.6 5.49241 13.0477C5.49241 12.4954 5.94013 12.0477 6.49241 12.0477H7.22997V11.2945H6.49241C5.94013 11.2945 5.49241 10.8468 5.49241 10.2945C5.49241 9.74221 5.94013 9.29449 6.49241 9.29449H7.22997V5.47844ZM9.22997 9.29449H11.469C12.2466 9.29449 12.877 8.6641 12.877 7.88647C12.877 7.10884 12.2466 6.47844 11.469 6.47844H9.22997V9.29449Z" fill="white"/>
</svg>
