<svg width="24" height="24" viewBox="0 0 24 24" fill="none" xmlns="http://www.w3.org/2000/svg">
<path fill-rule="evenodd" clip-rule="evenodd" d="M15.5474 1.18436C15.8173 0.751971 16.3866 0.62023 16.819 0.89011C17.2514 1.15999 17.3831 1.7293 17.1133 2.16169L14.8077 5.85555H18.1975C21.3041 5.85555 23.8225 8.37395 23.8225 11.4806V17.7657C23.8225 20.8723 21.3041 23.3907 18.1975 23.3907H6.375C3.2684 23.3907 0.75 20.8723 0.75 17.7657V11.4806C0.75 8.37395 3.2684 5.85555 6.375 5.85555H8.92267L6.61712 2.16169C6.34724 1.7293 6.47898 1.15999 6.91137 0.89011C7.34376 0.62023 7.91306 0.751971 8.18294 1.18436L11.0985 5.85555H12.6319L15.5474 1.18436ZM7.39339 8.62427C5.25329 8.62427 3.51839 10.3592 3.51839 12.4993V16.747C3.51839 18.8871 5.25329 20.622 7.39339 20.622H11.6411C13.7812 20.622 15.5161 18.8871 15.5161 16.747V12.4993C15.5161 10.3592 13.7812 8.62427 11.6411 8.62427H7.39339ZM21.0544 10.9315C21.0544 11.6961 20.4346 12.3158 19.6701 12.3158C18.9055 12.3158 18.2857 11.6961 18.2857 10.9315C18.2857 10.1669 18.9055 9.54714 19.6701 9.54714C20.4346 9.54714 21.0544 10.1669 21.0544 10.9315ZM19.6701 16.9303C20.4346 16.9303 21.0544 16.3105 21.0544 15.546C21.0544 14.7814 20.4346 14.1616 19.6701 14.1616C18.9055 14.1616 18.2857 14.7814 18.2857 15.546C18.2857 16.3105 18.9055 16.9303 19.6701 16.9303Z" fill="#8D71A9"/>
</svg>
