<svg width="24" height="24" viewBox="0 0 24 24" fill="none" xmlns="http://www.w3.org/2000/svg">
<path d="M9.75863 2.42986C10.9876 1.19163 12.9938 1.19163 14.2333 2.42041L15 3.18604C15.2941 3.4801 15.6933 3.64919 16.1134 3.64919H17.1953C18.939 3.64919 20.357 5.06597 20.357 6.80937V7.89217C20.357 8.31122 20.525 8.71031 20.8191 9.00438L21.5754 9.76056C22.1741 10.3487 22.4998 11.1469 22.4998 11.9871C22.5103 12.8273 22.1846 13.6265 21.5964 14.2241L20.8191 15.0013C20.525 15.2953 20.357 15.6944 20.357 16.1156V17.1963C20.357 18.9397 18.939 20.3586 17.1953 20.3586H16.1134C15.6933 20.3586 15.2941 20.5255 15 20.8196L14.2438 21.5758C13.624 22.1965 12.8152 22.5 12.0064 22.5C11.1977 22.5 10.3889 22.1965 9.76914 21.5873L9.00236 20.8196C8.70825 20.5255 8.30911 20.3586 7.88896 20.3586H6.80707C5.06343 20.3586 3.64542 18.9397 3.64542 17.1963V16.1156C3.64542 15.6944 3.47736 15.2953 3.18325 14.9908L2.42698 14.2451C1.19803 13.0174 1.18753 11.0103 2.41647 9.77211L3.18325 9.00438C3.47736 8.71031 3.64542 8.31122 3.64542 7.88062V6.80937C3.64542 5.06597 5.06343 3.64919 6.80707 3.64919H7.88896C8.30911 3.64919 8.70825 3.4801 9.00236 3.18604L9.75863 2.42986ZM14.7059 13.783C14.1912 13.783 13.7816 14.1936 13.7816 14.6967C13.7816 15.2113 14.1912 15.6209 14.7059 15.6209C15.2101 15.6209 15.6198 15.2113 15.6198 14.6967C15.6198 14.1936 15.2101 13.783 14.7059 13.783ZM15.3467 8.6473C14.9895 8.29127 14.4118 8.29127 14.0547 8.6473L8.65574 14.0455C8.29861 14.4026 8.29861 14.9908 8.65574 15.3478C8.8238 15.5264 9.05488 15.6209 9.29647 15.6209C9.54856 15.6209 9.77964 15.5264 9.9477 15.3478L15.3467 9.95065C15.7038 9.59357 15.7038 9.00438 15.3467 8.6473ZM9.30697 8.38474C8.80279 8.38474 8.38264 8.79433 8.38264 9.29845C8.38264 9.81412 8.80279 10.2227 9.30697 10.2227C9.81115 10.2227 10.2208 9.81412 10.2208 9.29845C10.2208 8.79433 9.81115 8.38474 9.30697 8.38474Z" fill="#FF6A6A"/>
</svg>
