<svg width="18" height="24" viewBox="0 0 18 24" fill="none" xmlns="http://www.w3.org/2000/svg">
<path d="M14.4281 4.38123H8.46404V9.73842C8.46404 9.91172 8.36106 10.0686 8.20189 10.1374C8.14645 10.1613 8.08772 10.173 8.02957 10.173C7.92099 10.173 7.81392 10.1323 7.73165 10.0549L6.37793 8.78132L5.02427 10.0549C4.89804 10.1737 4.7132 10.2061 4.55409 10.1374C4.39486 10.0686 4.29194 9.91172 4.29194 9.73842V4.38123H3.18104C2.80322 4.38123 2.49579 4.07362 2.49579 3.69581C2.49579 3.31787 2.80322 3.01038 3.18104 3.01038H15.4472C16.0399 3.01038 16.5223 2.52814 16.5223 1.93531C16.5223 1.34248 16.04 0.860352 15.4472 0.860352H3.18098C1.61756 0.860352 0.345703 2.13238 0.345703 3.69575V19.9147C0.345703 21.6929 1.79242 23.1396 3.57063 23.1396H14.4281C16.2063 23.1396 17.653 21.6929 17.653 19.9147V7.60604C17.653 5.82801 16.2063 4.38123 14.4281 4.38123Z" fill="#6787C4"/>
</svg>
