<svg width="34" height="34" viewBox="0 0 34 34" fill="none" xmlns="http://www.w3.org/2000/svg">
<g opacity="0.8">
<path d="M17.0001 34.0001C14.7667 34.006 12.5542 33.569 10.4909 32.7143C8.42757 31.8595 6.55402 30.604 4.97915 29.0205C3.39555 27.4457 2.14005 25.5724 1.2853 23.5091C0.430552 21.4458 -0.00596751 19.2334 6.16117e-05 17.0001C-0.00596751 14.7667 0.430552 12.5544 1.2853 10.4911C2.14005 8.42776 3.39555 6.55447 4.97915 4.97965C6.55402 3.39611 8.42757 2.14065 10.4909 1.28591C12.5542 0.431165 14.7667 -0.00588613 17.0001 6.47667e-05C19.2334 -0.00612086 21.4445 0.430827 23.5079 1.28558C25.5712 2.14034 27.4449 3.39592 29.0196 4.97965C30.6032 6.55447 31.8587 8.42776 32.7135 10.4911C33.5682 12.5544 34.0061 14.7667 34.0001 17.0001C34.0061 19.2334 33.5682 21.4458 32.7135 23.5091C31.8587 25.5724 30.6032 27.4457 29.0196 29.0205C27.4449 30.6042 25.5712 31.8598 23.5079 32.7146C21.4445 33.5693 19.2334 34.0063 17.0001 34.0001ZM10.0399 14.6782C9.42428 14.6789 8.83297 14.9238 8.39769 15.3591C7.96241 15.7943 7.71777 16.3845 7.71702 17.0001C7.71815 17.6151 7.96375 18.2046 8.39907 18.6392C8.83439 19.0737 9.42478 19.3177 10.0399 19.3177H14.6814V23.9616C14.6821 24.5772 14.9268 25.1673 15.362 25.6026C15.7973 26.0379 16.3886 26.2828 17.0042 26.2835C17.6198 26.2828 18.2097 26.0379 18.645 25.6026C19.0803 25.1673 19.3249 24.5772 19.3257 23.9616V19.3121H23.9658C24.5809 19.3121 25.1699 19.068 25.6052 18.6335C26.0405 18.199 26.2861 17.6095 26.2873 16.9944C26.2865 16.3788 26.0419 15.7887 25.6066 15.3534C25.1713 14.9181 24.5814 14.6733 23.9658 14.6725H19.3257V10.0287C19.3249 9.41308 19.0803 8.82292 18.645 8.38764C18.2097 7.95236 17.6198 7.70749 17.0042 7.70674C16.3886 7.70749 15.7973 7.95236 15.362 8.38764C14.9268 8.82292 14.6821 9.41308 14.6814 10.0287V14.6725L10.0399 14.6782Z" fill="#A7A39C"/>
</g>
</svg>
