<svg width="22" height="14" viewBox="0 0 22 14" fill="none" xmlns="http://www.w3.org/2000/svg">
<path fill-rule="evenodd" clip-rule="evenodd" d="M21.4952 0.947987C21.6481 0.401536 21.4952 0 20.7673 0H18.3605C17.7486 0 17.4664 0.346868 17.3134 0.729362C17.3134 0.729362 16.0895 3.92607 14.3556 6.00254C13.7946 6.60361 13.5396 6.79486 13.2336 6.79486C13.0807 6.79486 12.8592 6.60361 12.8592 6.0572V0.94799C12.8592 0.292247 12.6816 0 12.1716 0H8.38945C8.00703 0 7.77703 0.304346 7.77703 0.592784C7.77703 1.21441 8.64393 1.35777 8.73328 3.10641V6.90419C8.73328 7.73684 8.59295 7.8878 8.28696 7.8878C7.47104 7.8878 5.48632 4.67682 4.30919 1.00261C4.0785 0.288474 3.84712 0 3.23201 0H0.825199C0.137539 0 0 0.346868 0 0.729362C0 1.41244 0.815961 4.80039 3.79925 9.2812C5.7881 12.3412 8.59025 14 11.1401 14C12.67 14 12.8592 13.6316 12.8592 12.997V10.6842C12.8592 9.94737 13.0042 9.80032 13.4886 9.80032C13.8456 9.80032 14.4576 9.99156 15.8855 11.467C17.5174 13.2156 17.7864 14 18.7043 14H21.1112C21.7988 14 22.1426 13.6316 21.9443 12.9045C21.7272 12.1799 20.9481 11.1286 19.9143 9.88227C19.3533 9.17191 18.5118 8.40692 18.2568 8.02434C17.8999 7.5326 18.0019 7.31397 18.2568 6.87686C18.2568 6.87686 21.1892 2.45067 21.4952 0.947987Z" fill="#A7A39C"/>
</svg>
