<svg width="14" height="8" viewBox="0 0 14 8" fill="none" xmlns="http://www.w3.org/2000/svg">
<path d="M13.7156 1.64194L7.47566 7.8052C7.41367 7.86688 7.33971 7.91588 7.2581 7.94932C7.17648 7.98277 7.08886 8 7.00034 8C6.91183 8 6.8242 7.98277 6.74259 7.94932C6.66097 7.91588 6.58701 7.86688 6.52502 7.8052L0.285111 1.64194C0.102386 1.46042 -2.96533e-07 1.21611 -3.07657e-07 0.961618C-3.18782e-07 0.707126 0.102386 0.462813 0.285111 0.281293C0.375024 0.192201 0.482188 0.121452 0.600368 0.0731606C0.718548 0.0248694 0.845386 9.16721e-07 0.973502 9.11121e-07C1.10162 9.05521e-07 1.22846 0.0248694 1.34664 0.0731606C1.46482 0.121452 1.57198 0.192201 1.66189 0.281293L7.00034 5.55389L12.3374 0.281292C12.4274 0.192262 12.5347 0.121571 12.6529 0.0733222C12.7711 0.0250734 12.898 0.000227841 13.0262 0.000227836C13.1543 0.00022783 13.2812 0.0250734 13.3994 0.0733222C13.5176 0.121571 13.6249 0.192262 13.7149 0.281292C13.8976 0.462813 14 0.707126 14 0.961617C14 1.21611 13.8976 1.46042 13.7149 1.64194" fill="#BEBAB5"/>
</svg>
