<svg width="32" height="32" viewBox="0 0 32 32" fill="none" xmlns="http://www.w3.org/2000/svg">
<path d="M16 32C24.8366 32 32 24.8366 32 16C32 7.16344 24.8366 0 16 0C7.16344 0 0 7.16344 0 16C0 24.8366 7.16344 32 16 32Z" fill="#229ED9"/>
<path d="M6.83813 15.1926L22.8012 9.07487C23.5421 8.80883 24.1892 9.25452 23.9491 10.3681L23.9504 10.3667L21.2325 23.0944C21.0311 23.9967 20.4916 24.2162 19.7369 23.791L15.5978 20.7589L13.6014 22.6706C13.3806 22.8901 13.1944 23.0752 12.7667 23.0752L13.0605 18.8884L20.7316 12C21.0655 11.7079 20.6571 11.5433 20.217 11.8341L10.7371 17.7666L6.65049 16.4995C5.76335 16.2197 5.74403 15.6177 6.83813 15.1926Z" fill="white"/>
</svg>
