<svg width="22" height="20" viewBox="0 0 22 20" fill="none" xmlns="http://www.w3.org/2000/svg">
<path d="M19.5397 2.52708H2.46067V17.4716L12.3787 7.55058C12.5789 7.35071 12.8503 7.23846 13.1332 7.23846C13.4161 7.23846 13.6874 7.35071 13.8877 7.55058L19.5382 13.2116L19.5397 2.52708ZM0.326172 1.45308C0.328131 1.17268 0.440286 0.904301 0.638421 0.705885C0.836557 0.507469 1.10478 0.394934 1.38517 0.392578H20.6152C20.7544 0.392578 20.8922 0.420019 21.0208 0.473333C21.1494 0.526647 21.2662 0.604786 21.3645 0.703282C21.4629 0.801779 21.5409 0.918699 21.594 1.04736C21.6471 1.17601 21.6744 1.31388 21.6742 1.45308V18.5426C21.6722 18.823 21.5601 19.0914 21.3619 19.2898C21.1638 19.4882 20.8956 19.6007 20.6152 19.6031H1.38517C1.10417 19.6027 0.834813 19.4908 0.636255 19.2919C0.437697 19.0931 0.326172 18.8236 0.326172 18.5426V1.45308ZM6.73117 8.93208C6.30901 8.93208 5.89632 8.80689 5.54531 8.57235C5.19429 8.33781 4.92071 8.00444 4.75915 7.61442C4.5976 7.22439 4.55533 6.79521 4.63769 6.38116C4.72005 5.96711 4.92334 5.58677 5.22185 5.28826C5.52037 4.98974 5.9007 4.78645 6.31475 4.70409C6.7288 4.62173 7.15798 4.664 7.54801 4.82556C7.93804 4.98711 8.2714 5.2607 8.50594 5.61171C8.74049 5.96273 8.86567 6.37541 8.86567 6.79758C8.86567 7.36368 8.64079 7.9066 8.24049 8.3069C7.8402 8.70719 7.29728 8.93208 6.73117 8.93208Z" fill="white"/>
</svg>
