<svg width="22" height="22" viewBox="0 0 22 22" fill="none" xmlns="http://www.w3.org/2000/svg">
<path d="M11.0003 0.166992C16.9803 0.166992 21.8337 5.02033 21.8337 11.0003C21.8337 16.9912 16.9803 21.8337 11.0003 21.8337C5.00949 21.8337 0.166992 16.9912 0.166992 11.0003C0.166992 5.02033 5.00949 0.166992 11.0003 0.166992ZM15.1712 7.43616C15.2903 7.05699 14.9437 6.69949 14.5645 6.81866L9.01783 8.55199C8.79033 8.62783 8.60616 8.80116 8.54116 9.02866L6.80783 14.5862C6.68866 14.9545 7.04616 15.312 7.41449 15.1928L12.9395 13.4595C13.167 13.3945 13.3512 13.2103 13.4162 12.9828L15.1712 7.43616Z" fill="#00D9B2"/>
</svg>
