<svg width="16" height="16" viewBox="0 0 16 16" fill="none" xmlns="http://www.w3.org/2000/svg">
<path fill-rule="evenodd" clip-rule="evenodd" d="M16 8C16 12.4183 12.4183 16 8 16C3.58172 16 0 12.4183 0 8C0 3.58172 3.58172 0 8 0C12.4183 0 16 3.58172 16 8ZM11.0313 5.78329C11.2562 5.55835 11.2562 5.19365 11.0313 4.96871C10.8064 4.74376 10.4416 4.74376 10.2167 4.96871L8 7.18528L5.78329 4.96871C5.55835 4.74376 5.19365 4.74376 4.96871 4.96871L4.91716 5.02769C4.74533 5.25346 4.76251 5.5771 4.96871 5.78329L7.18528 8L4.96871 10.2167C4.74376 10.4416 4.74376 10.8064 4.96871 11.0313C5.19365 11.2562 5.55835 11.2562 5.78329 11.0313L8 8.81471L10.2167 11.0313C10.4416 11.2562 10.8064 11.2562 11.0313 11.0313L11.0828 10.9723C11.2547 10.7465 11.2375 10.4229 11.0313 10.2167L8.81472 8L11.0313 5.78329Z" fill="#BEBAB5"/>
</svg>
