<svg width="21" height="22" viewBox="0 0 21 22" fill="none" xmlns="http://www.w3.org/2000/svg">
<path d="M14.9544 4.49984V10.9998C14.9544 12.1915 15.9294 13.1665 17.1211 13.1665H18.2044V20.7498C18.2044 21.3457 18.6919 21.8332 19.2878 21.8332C19.8836 21.8332 20.3711 21.3457 20.3711 20.7498V1.39067C20.3711 0.686504 19.7103 0.166504 19.0278 0.329004C16.6878 0.903171 14.9544 2.88567 14.9544 4.49984ZM9.53776 7.74984H7.37109V1.24984C7.37109 0.654004 6.88359 0.166504 6.28776 0.166504C5.69193 0.166504 5.20443 0.654004 5.20443 1.24984V7.74984H3.03776V1.24984C3.03776 0.654004 2.55026 0.166504 1.95443 0.166504C1.35859 0.166504 0.871094 0.654004 0.871094 1.24984V7.74984C0.871094 10.144 2.81026 12.0832 5.20443 12.0832V20.7498C5.20443 21.3457 5.69193 21.8332 6.28776 21.8332C6.88359 21.8332 7.37109 21.3457 7.37109 20.7498V12.0832C9.76526 12.0832 11.7044 10.144 11.7044 7.74984V1.24984C11.7044 0.654004 11.2169 0.166504 10.6211 0.166504C10.0253 0.166504 9.53776 0.654004 9.53776 1.24984V7.74984Z" fill="white"/>
</svg>
