<svg width="24" height="24" viewBox="0 0 24 24" fill="none" xmlns="http://www.w3.org/2000/svg">
<path d="M1.38209 7.5789L0.557667 4.92021C0.21557 3.8156 0.821266 2.59063 1.91181 2.18513L6.22039 0.58132C7.31045 0.175821 8.38733 0.881187 9.35295 1.52787C9.9475 1.92558 10.8436 2.23632 12.1941 2.23632C13.4592 2.23632 14.2815 1.96319 14.8164 1.60108C15.7789 0.950262 16.6903 0.17534 17.7809 0.58132L22.0895 2.18513C23.1796 2.59063 23.7857 3.8156 23.4436 4.92021L22.6197 7.5789C22.2776 8.68351 21.2487 9.29258 20.3226 8.93942L18.6454 8.29841V21.4458C18.6454 22.6017 17.7014 23.5388 16.537 23.5388H12.1947H11.8078H7.46551C6.30112 23.5388 5.3571 22.6017 5.3571 21.4458V8.29841C5.3571 8.29841 4.60595 8.58519 3.67986 8.93942C2.7531 9.29258 1.72419 8.68351 1.38209 7.5789Z" fill="#4AA6DA"/>
</svg>
