<svg width="24" height="24" viewBox="0 0 24 24" fill="none" xmlns="http://www.w3.org/2000/svg">
<path d="M23.5386 4.37447C23.5411 2.34582 21.8986 0.699376 19.8699 0.696925C18.3345 0.695102 16.9599 1.64846 16.4237 3.08723C13.6192 1.78517 10.3834 1.78517 7.57896 3.08723C6.87349 1.18523 4.75974 0.215218 2.85774 0.920682C0.955739 1.62615 -0.0142741 3.73996 0.69119 5.64196C1.03669 6.57338 1.74467 7.32517 2.65378 7.7258C-0.10032 12.8883 1.85203 19.306 7.01454 22.0601C12.177 24.8142 18.5947 22.8619 21.3488 17.6993C23.0115 14.5827 23.0115 10.8424 21.3488 7.7258C22.6778 7.14057 23.5364 5.82656 23.5386 4.37447ZM5.38412 4.12305C5.03837 4.78659 4.42844 5.27327 3.70469 5.46308C3.66119 5.46623 3.61745 5.46623 3.57395 5.46308C3.39262 5.47107 3.21827 5.39275 3.10381 5.2519C2.61783 4.63889 2.72085 3.74794 3.33385 3.26196C3.94686 2.77598 4.8378 2.879 5.32378 3.49201C5.46131 3.67529 5.48368 3.92041 5.38161 4.12557L5.38412 4.12305ZM15.1792 8.27891L15.1892 8.27388C15.8835 8.27388 16.4463 8.83667 16.4463 9.53094C16.4463 10.2252 15.8835 10.788 15.1892 10.788C14.4949 10.788 13.9322 10.2252 13.9322 9.53094C13.9349 8.84257 14.4908 8.28444 15.1792 8.27891ZM8.82345 8.27891L8.83351 8.27388C9.52778 8.27388 10.0906 8.83667 10.0906 9.53094C10.0906 10.2252 9.52778 10.788 8.83351 10.788C8.13923 10.788 7.57644 10.2252 7.57644 9.53094C7.57921 8.84257 8.13508 8.28444 8.82345 8.27891ZM12.0013 20.8445C9.23577 20.8445 6.97305 18.9187 6.97305 16.5529C6.97305 14.4234 8.80334 12.6585 11.1943 12.3241C10.445 12.5525 9.92112 13.2285 9.88693 14.0111C9.88693 15.0168 10.8348 15.8389 12.0013 15.8389C13.1679 15.8389 14.1157 15.0168 14.1157 14.0111C14.0819 13.2322 13.5629 12.5582 12.8184 12.3267C15.2093 12.6585 17.0296 14.4259 17.0296 16.5529C17.0296 18.9187 14.7668 20.8445 12.0013 20.8445ZM20.8988 5.2695L20.8913 5.25692C20.7768 5.39778 20.6025 5.47609 20.4211 5.46811C20.38 5.46924 20.3388 5.46755 20.2979 5.46308C19.5779 5.27616 18.9695 4.79539 18.621 4.13814C18.521 3.93437 18.5433 3.69175 18.6788 3.50961C19.1648 2.8966 20.0558 2.79358 20.6688 3.27956C21.2818 3.76554 21.3848 4.65649 20.8988 5.2695Z" fill="#EF5D5D"/>
</svg>
