<svg width="119" height="42" viewBox="0 0 119 42" fill="none" xmlns="http://www.w3.org/2000/svg">
<path d="M14.294 41.3627C14.6768 41.3627 15.0172 41.2378 15.2724 41.0295C15.4851 40.8629 15.5702 40.613 15.5702 40.3214C15.5702 39.5301 15.0172 38.4471 14.6343 37.6974L14.1238 36.8644C13.826 36.3646 13.5708 35.8231 13.3155 35.2816L12.6348 33.7405C12.2945 32.9908 11.4862 30.9082 10.6779 29.0339L12.9752 27.0347L14.2514 25.9517C14.7194 25.6185 15.1873 25.2437 15.6553 24.9521L16.4636 24.4106C17.3144 23.8275 18.5907 22.8279 18.5907 22.0365L18.5481 21.7866C18.2503 21.2035 17.6547 20.8286 16.7614 20.8286C15.7829 20.8286 14.4641 21.2451 12.8901 22.2864C12.4647 22.5363 12.0818 22.8279 11.6564 23.1611C10.5928 23.9525 8.63593 25.4936 7.01935 27.0347L7.18952 22.6613L7.14698 21.495C6.93427 16.1637 5.06244 13.7896 3.23316 13.7896L2.80774 13.8312C1.57404 14.1228 1.36133 16.6218 1.36133 18.4545V20.0372C1.36133 24.6605 0 32.1161 0 36.7811C0 37.4891 0.0425415 38.1556 0.127625 38.7387C0.382874 40.4047 1.48895 41.2794 2.59503 41.2794C3.44586 41.2794 4.2967 40.7796 4.80719 39.8216C5.65803 38.2389 6.21107 35.2816 6.5514 32.2827C6.80665 32.1161 7.10444 31.9495 7.40223 31.6996C8.16798 33.6572 9.06135 35.6148 9.61439 36.6978C9.86964 37.1976 10.0823 37.6558 10.3376 38.0723C11.6989 40.4047 13.1879 41.3627 14.294 41.3627Z" fill="#A68C6F"/>
<path d="M23.2333 39.655C23.9565 39.655 24.7223 39.4884 25.5731 39.1969L26.3814 38.8636C28.0405 38.0723 29.4444 36.8644 30.5505 35.4482C30.6781 35.7814 30.8483 36.1147 31.0184 36.4062C32.0394 38.1972 33.7411 39.5301 35.5278 39.5301C36.166 39.5301 36.8466 39.3635 37.5273 38.9053C39.3991 37.6558 40.6328 35.6565 41.5262 33.4906C42.377 31.3664 42.8875 29.0756 43.3129 27.118L43.9511 27.1596L44.6743 27.118C45.3549 27.118 45.9931 27.0763 46.5886 27.0347L46.4185 27.951C46.2058 28.9923 46.1207 29.9919 46.1207 30.8666C46.1207 33.1991 46.7163 34.9901 47.5246 36.4062C48.5455 38.1972 50.2898 39.5301 52.034 39.5301C52.7146 39.5301 53.3527 39.3218 54.0334 38.9053C57.0964 36.8227 57.1389 31.2415 57.1389 30.9499C56.7986 31.9912 54.4163 36.4895 52.8422 36.4895C52.2467 36.4895 51.8212 35.948 51.566 34.5319C51.4384 33.9904 51.3958 33.4073 51.3958 32.7825C51.3958 31.7829 51.5235 30.7 51.7362 29.617C51.7787 29.3255 51.8213 29.0339 51.9063 28.7007C51.9489 28.3259 51.9914 27.9093 51.9914 27.4512C51.9914 26.2016 51.6511 24.7438 50.3323 24.2857C49.9494 24.1607 49.5665 24.0774 49.1411 24.0774C47.3118 24.0774 45.44 25.3686 43.6107 25.5352C43.6533 25.2437 43.6533 24.9521 43.6533 24.7022C43.6533 23.3694 43.1002 22.453 42.2919 21.9532C42.0367 21.8283 41.7814 21.7033 41.5262 21.62C41.1859 21.495 40.8455 21.4534 40.5477 21.4534C39.3991 21.4534 38.4207 22.1198 38.4207 23.4943L38.4632 23.9108C38.6334 25.0771 39.4842 26.2849 41.5262 26.8264L42.0792 26.9514C41.9516 27.5345 41.7389 28.1593 41.5262 28.784C41.1008 29.867 40.6328 30.9915 40.1649 32.0328C39.314 33.7405 37.5698 36.4895 36.2936 36.4895C35.7405 36.4895 35.3151 35.948 35.0599 34.5736C34.9323 34.0321 34.8897 33.449 34.8897 32.7825C34.8897 31.8246 35.0173 30.7 35.23 29.617C35.2726 29.3255 35.3151 29.0339 35.4002 28.7424C35.4428 28.3675 35.4853 27.951 35.4853 27.4928C35.4853 26.2016 35.145 24.7438 33.8262 24.3273C33.4008 24.1607 33.0604 24.1191 32.7201 24.1191C31.0184 24.1191 30.3803 25.7851 30.3803 25.8268L30.1676 26.6598C29.9549 25.8268 29.4019 24.9105 28.2532 24.244C27.6151 23.8692 26.977 23.6193 26.3814 23.536C26.0411 23.4527 25.7433 23.4527 25.403 23.4527C21.7444 23.4527 18.5538 27.3262 18.0858 30.3251C18.0007 30.9082 17.9156 31.533 17.9156 32.1578C17.9156 35.948 19.6598 39.655 23.2333 39.655ZM24.382 37.9473C23.361 37.9473 22.9355 36.906 22.9355 35.4482C22.9355 32.9075 24.3394 29.1589 26.3389 27.9093H26.3814C27.0195 27.4928 27.53 27.3262 27.9554 27.3262C29.5295 27.3262 29.6996 29.742 29.7847 31.658V32.1161C29.7847 32.6992 29.572 33.9904 28.0831 35.5315C27.53 36.073 26.977 36.6145 26.4665 36.9893L26.3814 37.0726C25.5306 37.6558 24.8925 37.9473 24.382 37.9473ZM42.4196 25.5352C42.2069 25.5352 41.9942 25.4936 41.7814 25.4103C41.6964 25.4103 41.6113 25.3686 41.5262 25.327C40.9306 25.0771 40.5052 24.4939 40.5052 23.9525C40.5052 23.5776 40.6754 23.2444 41.0582 22.9945C41.1433 22.9112 41.2709 22.8279 41.3986 22.8279L41.5262 22.8695C41.9091 22.9112 42.2919 23.3277 42.4196 23.9108L42.4621 24.6605L42.4196 25.5352Z" fill="#A68C6F"/>
<path d="M59.5874 39.7383C60.8637 39.7383 62.6929 38.9469 63.1609 34.8651C63.7565 29.867 65.2029 28.076 66.0963 27.6178L66.0537 27.9926C65.841 29.0339 65.7559 30.0336 65.7559 30.9082C65.7559 33.2407 66.3515 35.0734 67.1598 36.4479C67.6703 37.3225 69.4145 39.3218 70.7333 39.3218C71.0736 39.3218 71.414 39.1969 71.6692 38.8636C72.2222 38.2389 72.435 35.7814 72.5626 34.8651C73.1582 29.867 74.6046 28.076 75.4979 27.6178C75.4554 27.7427 75.4129 27.8677 75.4129 27.9926C75.2002 29.0339 75.1151 30.0336 75.1151 30.9082C75.1151 33.2407 75.7106 35.0734 76.5189 36.4479C77.5825 38.2389 79.2841 39.5717 81.0283 39.5717C81.709 39.5717 82.3897 39.4051 83.0278 38.9469C86.0908 36.8644 86.1333 31.2831 86.1333 30.9915C85.793 32.0328 83.4107 36.5312 81.7941 36.5312C81.241 36.5312 80.8156 36.0314 80.5604 34.6152C80.4328 33.9904 80.3902 33.3657 80.3902 32.7409C80.3902 31.4081 80.6029 30.0336 80.9007 28.7424L80.9433 27.7427C80.9433 25.2437 79.4968 24.0774 77.7526 24.0774C75.7957 24.0774 73.4134 25.5769 72.3499 28.3259C71.5841 30.2418 71.2012 31.8246 71.0311 32.9908C71.0311 31.5747 71.2438 30.1169 71.499 28.7424C71.5416 28.3675 71.5841 28.0343 71.5841 27.7011C71.5841 27.3679 71.5416 27.0763 71.499 26.7848C71.414 25.7435 70.9885 24.7022 69.8825 24.3273L69.2869 24.2024C68.9891 24.1191 68.6487 24.0774 68.351 24.0774C66.394 24.0774 64.0543 25.5769 62.9907 28.3259C62.1399 30.4084 61.7996 32.0745 61.6294 33.2824V32.8242C61.6294 31.4914 61.7996 30.0752 62.0974 28.7424C62.1399 28.4092 62.1824 27.951 62.1824 27.5345C62.1824 26.2433 61.8847 24.7855 60.5233 24.3273C60.1404 24.2024 59.8001 24.1607 59.4598 24.1607C57.7581 24.1607 57.0775 25.8268 57.0775 25.8268C56.9073 26.5349 56.7371 27.2429 56.6095 27.9926C56.4393 28.8673 56.3542 30.2835 56.3542 31.8246C56.3542 35.0317 56.7797 38.7803 58.2261 39.4468C58.2261 39.4468 58.8217 39.7383 59.5874 39.7383Z" fill="#A68C6F"/>
<path d="M90.8947 39.5301C91.5753 39.5301 92.256 39.3635 92.9366 38.9053C96.0422 36.7811 96.0422 30.9499 96.0422 30.9499C95.7018 31.9912 93.277 36.4895 91.7029 36.4895C91.1499 36.4895 90.6819 35.9897 90.4692 34.5736C90.3416 34.0321 90.2991 33.4073 90.2991 32.7409C90.2991 31.7829 90.4267 30.7 90.5969 29.617L90.767 28.7007C90.8096 28.3259 90.8521 27.9093 90.8521 27.4512C90.8521 26.16 90.5118 24.7438 89.2355 24.2857C88.8527 24.1607 88.4698 24.1191 88.172 24.1191C86.4278 24.1191 85.7897 25.7851 85.7897 25.7851C85.577 26.4932 85.4493 27.2013 85.2792 27.951C85.0665 28.9923 85.0239 29.9086 85.0239 30.7833C85.0239 33.1991 85.6195 34.9901 86.4278 36.4062C87.4488 38.1972 89.1505 39.5301 90.8947 39.5301Z" fill="#A68C6F"/>
<path d="M111.513 39.7383C114.788 39.7383 117.979 36.7394 118.702 33.1991C118.957 32.2827 119 31.4081 119 30.4501C117.809 34.0737 115.171 36.4895 113.044 36.4895C112.151 36.4895 111.3 36.0314 110.789 35.0317C110.364 34.1987 110.066 32.9908 110.066 31.4081C110.066 30.4917 110.151 29.4504 110.364 28.2842L110.407 28.2009C110.534 27.7011 110.789 26.3266 110.789 26.2849C111.13 24.7438 111.64 23.286 112.193 22.1198C113.47 21.9532 114.746 21.5783 115.894 20.8703C116.192 20.662 116.362 20.2872 116.362 19.9539C116.362 19.7457 116.32 19.5791 116.235 19.4125C116.022 19.0793 115.682 18.9127 115.299 18.9127C115.129 18.9127 114.916 18.9543 114.746 19.0793C114.32 19.3292 113.852 19.5374 113.427 19.704C113.597 19.2042 113.767 18.6628 113.767 18.1213C113.767 17.5382 113.555 16.9967 113.002 16.7051C112.534 16.4552 112.108 16.3719 111.725 16.3719C111.385 16.3719 111.045 16.4552 110.789 16.5385C110.024 16.7884 109.471 17.2883 109.428 17.3716C108.365 18.4961 108.407 18.5795 107.514 19.9956C106.238 19.7457 104.919 19.4125 103.642 19.0793C103.728 18.7461 103.77 18.4128 103.77 18.1213C103.77 17.5382 103.6 17.0384 103.047 16.7051C102.579 16.4552 102.154 16.3719 101.728 16.3719C101.388 16.3719 101.09 16.4552 100.835 16.5385C100.069 16.7884 99.516 17.2883 99.4309 17.3716C99.2182 17.5798 99.0055 17.8297 98.8353 18.0796L97.8994 18.038C96.6657 18.038 95.4745 18.2879 94.4535 18.9543C94.1132 19.1209 93.943 19.4958 93.943 19.829C93.943 20.0372 93.9856 20.2455 94.1132 20.4121C94.3259 20.7453 94.6662 20.9119 95.0491 20.9119C95.2193 20.9119 95.432 20.8286 95.6021 20.7453C96.1552 20.3705 96.7508 20.2039 97.4314 20.1206L97.1762 20.5371C96.0701 22.6196 95.1767 25.1604 94.8364 28.2426C94.7513 28.9506 94.7088 29.6587 94.7088 30.2835C94.7088 33.0741 95.432 35.115 96.453 36.6145C97.6867 38.5304 99.2607 39.4468 100.835 39.6967L101.515 39.7383C103.472 39.7383 105.387 38.697 106.791 37.1143C107.982 38.697 109.386 39.4884 110.789 39.6967L111.513 39.7383ZM103.089 36.5312C102.154 36.5312 101.345 36.0314 100.835 35.0317C100.367 34.1987 100.112 33.0325 100.112 31.4914C100.112 30.575 100.197 29.4921 100.409 28.2842V28.2009C100.537 27.7011 100.792 26.3266 100.835 26.2849C101.175 24.7022 101.686 23.2027 102.281 21.9949L102.834 20.8703L106.578 21.745C105.727 23.5776 105.089 25.7435 104.791 28.2426C104.706 28.909 104.664 29.5754 104.664 30.2002C104.664 32.366 105.089 34.0737 105.727 35.4482C104.834 36.1147 103.94 36.5312 103.089 36.5312Z" fill="#A68C6F"/>
<path d="M89.2788 18.4909C90.2602 19.2799 92.0683 18.9429 92.9053 18.404C93.7424 17.865 95.125 16.5291 95.8722 14.6699C96.7882 12.3908 97.235 8.6163 97.159 6.66805C97.1387 6.15014 96.8412 5.72797 96.3331 5.62562C95.9998 5.55848 95.5355 5.49649 94.9013 5.46473C92.907 5.36482 89.8161 5.98944 87.3613 7.98852C85.3391 9.63537 84.275 11.987 84.1714 13.3262C84.1108 14.1104 83.8294 15.9873 85.1371 18.0483C86.4448 20.1094 88.101 21.0234 88.101 21.0234C89.7185 22.016 91.985 22.3691 91.9999 22.152C92.0149 21.9348 91.8872 22.2075 89.7788 21.1388C85.4707 18.5406 87.0458 13.6948 88.8079 11.7367C90.7957 9.52792 93.1348 8.81626 93.5474 9.06273C93.8498 9.51974 91.5407 9.79551 89.6972 12.4038C88.1582 14.5813 87.8326 17.3285 89.2788 18.4909Z" fill="#59D2BC"/>
</svg>
