<svg width="95" height="34" viewBox="0 0 95 34" fill="none" xmlns="http://www.w3.org/2000/svg">
<path d="M11.4638 33.1546C11.7692 33.1546 12.0407 33.0549 12.2444 32.8888C12.4141 32.7558 12.482 32.5565 12.482 32.3238C12.482 31.6925 12.0407 30.8285 11.7353 30.2303L11.328 29.5657C11.0904 29.167 10.8868 28.735 10.6831 28.303L10.1401 27.0735C9.86856 26.4753 9.22369 24.8138 8.57882 23.3185L10.4116 21.7234L11.4298 20.8594C11.8032 20.5936 12.1765 20.2945 12.5498 20.0619L13.1947 19.6299C13.8735 19.1647 14.8917 18.3672 14.8917 17.7358L14.8578 17.5364C14.6202 17.0712 14.145 16.7721 13.4323 16.7721C12.6517 16.7721 11.5995 17.1044 10.3437 17.9352C10.0043 18.1346 9.69885 18.3672 9.35945 18.633C8.51094 19.2644 6.94969 20.4939 5.65995 21.7234L5.79571 18.2343L5.76177 17.3038C5.59207 13.0504 4.09869 11.1562 2.63926 11.1562L2.29986 11.1895C1.31558 11.4221 1.14588 13.4159 1.14588 14.878V16.1408C1.14588 19.8293 0.0597916 25.7775 0.0597916 29.4993C0.0597916 30.0642 0.0937319 30.5959 0.161613 31.0611C0.365255 32.3903 1.2477 33.0881 2.13015 33.0881C2.80896 33.0881 3.48777 32.6894 3.89505 31.9251C4.57386 30.6623 5.01508 28.303 5.28661 25.9104C5.49025 25.7775 5.72783 25.6446 5.96542 25.4452C6.57634 27.007 7.28909 28.5688 7.73031 29.4328C7.93396 29.8316 8.10366 30.1971 8.3073 30.5294C9.39339 32.3903 10.5813 33.1546 11.4638 33.1546Z" fill="#BEBAB5"/>
<path d="M18.5957 31.7922C19.1727 31.7922 19.7836 31.6592 20.4625 31.4266L21.1073 31.1608C22.431 30.5294 23.551 29.5657 24.4335 28.4359C24.5353 28.7018 24.6711 28.9676 24.8068 29.2002C25.6214 30.6291 26.979 31.6925 28.4045 31.6925C28.9136 31.6925 29.4566 31.5595 29.9997 31.194C31.4931 30.1971 32.4773 28.6021 33.1901 26.8741C33.8689 25.1794 34.2762 23.3517 34.6156 21.7899L35.1247 21.8231L35.7017 21.7899C36.2447 21.7899 36.7538 21.7567 37.229 21.7234L37.0932 22.4545C36.9235 23.2852 36.8557 24.0828 36.8557 24.7806C36.8557 26.6415 37.3308 28.0704 37.9757 29.2002C38.7902 30.6291 40.1818 31.6925 41.5734 31.6925C42.1164 31.6925 42.6255 31.5263 43.1686 31.194C45.6123 29.5325 45.6462 25.0797 45.6462 24.8471C45.3747 25.6778 43.474 29.2667 42.2182 29.2667C41.7431 29.2667 41.4037 28.8347 41.2 27.7049C41.0982 27.2729 41.0643 26.8076 41.0643 26.3092C41.0643 25.5117 41.1661 24.6477 41.3358 23.7837C41.3697 23.5511 41.4037 23.3185 41.4715 23.0526C41.5055 22.7536 41.5394 22.4213 41.5394 22.0557C41.5394 21.0588 41.2679 19.8958 40.2157 19.5302C39.9103 19.4306 39.6048 19.3641 39.2654 19.3641C37.806 19.3641 36.3126 20.3942 34.8532 20.5271C34.8871 20.2945 34.8871 20.0619 34.8871 19.8625C34.8871 18.7992 34.4459 18.0681 33.801 17.6694C33.5974 17.5697 33.3937 17.47 33.1901 17.4035C32.9186 17.3038 32.647 17.2706 32.4095 17.2706C31.4931 17.2706 30.7124 17.8023 30.7124 18.8989L30.7464 19.2312C30.8821 20.1616 31.561 21.1253 33.1901 21.5573L33.6313 21.657C33.5295 22.1222 33.3598 22.6206 33.1901 23.1191C32.8507 23.9831 32.4773 24.8803 32.104 25.711C31.4252 27.0735 30.0336 29.2667 29.0154 29.2667C28.5742 29.2667 28.2348 28.8347 28.0312 27.7381C27.9293 27.3061 27.8954 26.8409 27.8954 26.3092C27.8954 25.5449 27.9972 24.6477 28.1669 23.7837C28.2009 23.5511 28.2348 23.3185 28.3027 23.0859C28.3366 22.7868 28.3706 22.4545 28.3706 22.089C28.3706 21.0588 28.099 19.8958 27.0469 19.5635C26.7075 19.4306 26.436 19.3973 26.1644 19.3973C24.8068 19.3973 24.2977 20.7265 24.2977 20.7598L24.128 21.4244C23.9583 20.7598 23.5171 20.0287 22.6007 19.497C22.0916 19.1979 21.5825 18.9986 21.1073 18.9321C20.8358 18.8656 20.5982 18.8656 20.3267 18.8656C17.4078 18.8656 14.8623 21.956 14.489 24.3486C14.4211 24.8138 14.3532 25.3123 14.3532 25.8107C14.3532 28.8347 15.7447 31.7922 18.5957 31.7922ZM19.5121 30.4297C18.6976 30.4297 18.3582 29.599 18.3582 28.4359C18.3582 26.4089 19.4782 23.4182 21.0734 22.4213H21.1073C21.6164 22.089 22.0237 21.956 22.3631 21.956C23.6189 21.956 23.7547 23.8834 23.8226 25.412V25.7775C23.8226 26.2427 23.6529 27.2729 22.4649 28.5024C22.0237 28.9344 21.5825 29.3664 21.1752 29.6654L21.1073 29.7319C20.4285 30.1971 19.9194 30.4297 19.5121 30.4297ZM33.9028 20.5271C33.7331 20.5271 33.5634 20.4939 33.3937 20.4275C33.3259 20.4275 33.258 20.3942 33.1901 20.361C32.7149 20.1616 32.3755 19.6964 32.3755 19.2644C32.3755 18.9653 32.5113 18.6995 32.8167 18.5001C32.8846 18.4336 32.9865 18.3672 33.0883 18.3672L33.1901 18.4004C33.4956 18.4336 33.801 18.7659 33.9028 19.2312L33.9368 19.8293L33.9028 20.5271Z" fill="#BEBAB5"/>
<path d="M47.5996 31.8586C48.6178 31.8586 50.0773 31.2272 50.4506 27.9707C50.9258 23.9831 52.0798 22.5542 52.7925 22.1887L52.7586 22.4877C52.5889 23.3185 52.521 24.116 52.521 24.8138C52.521 26.6747 52.9962 28.1368 53.641 29.2334C54.0483 29.9313 55.4399 31.5263 56.492 31.5263C56.7635 31.5263 57.035 31.4266 57.2387 31.1608C57.6799 30.6623 57.8496 28.7018 57.9514 27.9707C58.4266 23.9831 59.5806 22.5542 60.2933 22.1887C60.2594 22.2883 60.2254 22.388 60.2254 22.4877C60.0557 23.3185 59.9879 24.116 59.9879 24.8138C59.9879 26.6747 60.463 28.1368 61.1079 29.2334C61.9564 30.6623 63.314 31.7257 64.7056 31.7257C65.2486 31.7257 65.7917 31.5928 66.3008 31.2272C68.7445 29.5657 68.7784 25.1129 68.7784 24.8803C68.5069 25.711 66.6062 29.2999 65.3165 29.2999C64.8753 29.2999 64.5359 28.9011 64.3322 27.7713C64.2304 27.2729 64.1965 26.7744 64.1965 26.276C64.1965 25.2126 64.3662 24.116 64.6038 23.0859L64.6377 22.2883C64.6377 20.2945 63.4837 19.3641 62.0922 19.3641C60.5309 19.3641 58.6302 20.5604 57.7817 22.7536C57.1708 24.2821 56.8653 25.5449 56.7296 26.4753C56.7296 25.3455 56.8993 24.1825 57.1029 23.0859C57.1369 22.7868 57.1708 22.521 57.1708 22.2551C57.1708 21.9893 57.1369 21.7567 57.1029 21.524C57.035 20.6933 56.6956 19.8625 55.8132 19.5635L55.338 19.4638C55.1005 19.3973 54.8289 19.3641 54.5913 19.3641C53.0301 19.3641 51.1634 20.5604 50.3149 22.7536C49.6361 24.4151 49.3645 25.7443 49.2288 26.708V26.3424C49.2288 25.2791 49.3645 24.1492 49.6021 23.0859C49.6361 22.82 49.67 22.4545 49.67 22.1222C49.67 21.0921 49.4324 19.929 48.3463 19.5635C48.0409 19.4638 47.7693 19.4306 47.4978 19.4306C46.1402 19.4306 45.5971 20.7598 45.5971 20.7598C45.4614 21.3247 45.3256 21.8896 45.2238 22.4877C45.088 23.1856 45.0202 24.3154 45.0202 25.5449C45.0202 28.1036 45.3596 31.0943 46.5135 31.626C46.5135 31.626 46.9887 31.8586 47.5996 31.8586Z" fill="#BEBAB5"/>
<path d="M72.5771 31.6925C73.1201 31.6925 73.6632 31.5595 74.2062 31.194C76.6839 29.4993 76.6839 24.8471 76.6839 24.8471C76.4123 25.6778 74.4777 29.2667 73.2219 29.2667C72.7807 29.2667 72.4074 28.8679 72.2377 27.7381C72.1359 27.3061 72.1019 26.8076 72.1019 26.276C72.1019 25.5117 72.2037 24.6477 72.3395 23.7837L72.4753 23.0526C72.5092 22.7536 72.5431 22.4213 72.5431 22.0557C72.5431 21.0256 72.2716 19.8958 71.2534 19.5302C70.9479 19.4306 70.6425 19.3973 70.4049 19.3973C69.0133 19.3973 68.5042 20.7265 68.5042 20.7265C68.3345 21.2914 68.2327 21.8563 68.097 22.4545C67.9273 23.2852 67.8933 24.0163 67.8933 24.7141C67.8933 26.6415 68.3685 28.0704 69.0133 29.2002C69.8279 30.6291 71.1855 31.6925 72.5771 31.6925Z" fill="#BEBAB5"/>
<path d="M89.0265 31.8586C91.6399 31.8586 94.1854 29.4661 94.7624 26.6415C94.966 25.9104 95 25.2126 95 24.4483C94.0497 27.3393 91.9454 29.2667 90.2483 29.2667C89.5356 29.2667 88.8568 28.9011 88.4495 28.1036C88.1101 27.439 87.8725 26.4753 87.8725 25.2126C87.8725 24.4815 87.9404 23.6508 88.1101 22.7203L88.144 22.6539C88.2459 22.2551 88.4495 21.1585 88.4495 21.1253C88.721 19.8958 89.1283 18.7327 89.5695 17.8023C90.5878 17.6694 91.606 17.3703 92.5224 16.8054C92.7599 16.6392 92.8957 16.3401 92.8957 16.0743C92.8957 15.9082 92.8617 15.7752 92.7939 15.6423C92.6242 15.3765 92.3527 15.2436 92.0472 15.2436C91.9114 15.2436 91.7417 15.2768 91.606 15.3765C91.2666 15.5759 90.8932 15.742 90.5538 15.8749C90.6896 15.4762 90.8253 15.0442 90.8253 14.6122C90.8253 14.147 90.6556 13.715 90.2144 13.4824C89.8411 13.283 89.5016 13.2165 89.1962 13.2165C88.9247 13.2165 88.6531 13.283 88.4495 13.3494C87.8386 13.5488 87.3974 13.9476 87.3634 14.014C86.5149 14.9113 86.5489 14.9777 85.8361 16.1075C84.8179 15.9082 83.7657 15.6423 82.7475 15.3765C82.8154 15.1106 82.8493 14.8448 82.8493 14.6122C82.8493 14.147 82.7136 13.7482 82.2724 13.4824C81.899 13.283 81.5596 13.2165 81.2202 13.2165C80.9487 13.2165 80.7111 13.283 80.5075 13.3494C79.8965 13.5488 79.4553 13.9476 79.3874 14.014C79.2177 14.1802 79.048 14.3796 78.9123 14.579L78.1656 14.5457C77.1813 14.5457 76.231 14.7451 75.4164 15.2768C75.1449 15.4097 75.0091 15.7088 75.0091 15.9746C75.0091 16.1408 75.0431 16.3069 75.1449 16.4398C75.3146 16.7057 75.5861 16.8386 75.8916 16.8386C76.0273 16.8386 76.197 16.7721 76.3328 16.7057C76.774 16.4066 77.2492 16.2737 77.7922 16.2072L77.5886 16.5395C76.7061 18.201 75.9934 20.2281 75.7219 22.6871C75.654 23.252 75.62 23.8169 75.62 24.3154C75.62 26.5418 76.197 28.1701 77.0116 29.3664C77.9959 30.8949 79.2517 31.626 80.5075 31.8254L81.0505 31.8586C82.6118 31.8586 84.1391 31.0279 85.2591 29.7651C86.2094 31.0279 87.3295 31.6592 88.4495 31.8254L89.0265 31.8586ZM82.3063 29.2999C81.5596 29.2999 80.9147 28.9011 80.5075 28.1036C80.1341 27.439 79.9305 26.5086 79.9305 25.2791C79.9305 24.548 79.9984 23.684 80.1681 22.7203V22.6539C80.2699 22.2551 80.4735 21.1585 80.5075 21.1253C80.779 19.8625 81.1863 18.6663 81.6614 17.7026L82.1027 16.8054L85.0894 17.5032C84.4106 18.9653 83.9015 20.6933 83.6639 22.6871C83.596 23.2188 83.5621 23.7505 83.5621 24.2489C83.5621 25.9769 83.9015 27.3393 84.4106 28.4359C83.6979 28.9676 82.9851 29.2999 82.3063 29.2999Z" fill="#BEBAB5"/>
<path d="M71.2879 14.9074C72.071 15.5368 73.5134 15.2679 74.1812 14.838C74.8491 14.408 75.9521 13.3422 76.5483 11.8589C77.2791 10.0406 77.6355 7.02921 77.5749 5.47487C77.5587 5.06167 77.3214 4.72486 76.916 4.6432C76.6501 4.58963 76.2796 4.54018 75.7737 4.51484C74.1826 4.43513 71.7166 4.93346 69.7582 6.52837C68.1448 7.84225 67.2959 9.71843 67.2132 10.7869C67.1648 11.4125 66.9403 12.9099 67.9836 14.5543C69.0269 16.1986 70.3483 16.9278 70.3483 16.9278C71.6387 17.7198 73.447 18.0014 73.4589 17.8282C73.4708 17.655 73.3689 17.8725 71.6868 17.0199C68.2497 14.947 69.5064 11.0809 70.9123 9.51876C72.4982 7.75652 74.3643 7.18875 74.6935 7.38539C74.9348 7.74999 73.0925 7.97001 71.6217 10.051C70.3939 11.7882 70.1342 13.9799 71.2879 14.9074Z" fill="#BEBAB5"/>
</svg>
