<?xml version="1.0" standalone="no"?>
<!DOCTYPE svg PUBLIC "-//W3C//DTD SVG 20010904//EN"
 "http://www.w3.org/TR/2001/REC-SVG-20010904/DTD/svg10.dtd">
<svg version="1.0" xmlns="http://www.w3.org/2000/svg"
 width="520.000000pt" height="520.000000pt" viewBox="0 0 520.000000 520.000000"
 preserveAspectRatio="xMidYMid meet">
<metadata>
Created by potrace 1.14, written by Peter Selinger 2001-2017
</metadata>
<g transform="translate(0.000000,520.000000) scale(0.100000,-0.100000)"
fill="#000000" stroke="none">
<path d="M575 5185 c-150 -28 -252 -82 -361 -190 -90 -89 -141 -171 -183 -293
l-26 -77 0 -2030 0 -2030 27 -78 c74 -219 231 -376 453 -454 l80 -28 2035 0
2035 0 78 27 c108 37 206 97 285 177 80 81 133 167 170 276 l27 80 0 2025 0
2025 -23 75 c-39 124 -88 206 -177 296 -91 92 -178 145 -300 184 l-80 25
-1985 2 c-1613 1 -1998 -1 -2055 -12z m2612 -781 c56 -27 92 -64 125 -128 28
-53 30 -156 5 -206 -10 -19 -218 -262 -462 -539 -245 -277 -445 -507 -445
-512 0 -18 40 -48 55 -43 9 4 290 318 625 699 681 774 646 740 775 740 59 0
79 -5 124 -30 29 -16 68 -49 86 -72 58 -76 70 -195 28 -277 -10 -19 -290 -344
-623 -722 -334 -380 -606 -697 -608 -709 -2 -12 4 -28 13 -35 14 -12 21 -12
41 0 13 8 211 229 440 490 229 261 437 497 463 523 90 94 216 98 331 12 109
-81 138 -242 62 -353 -15 -22 -226 -265 -469 -541 -244 -276 -443 -510 -443
-520 0 -27 27 -46 50 -35 10 5 140 146 287 314 206 234 279 310 313 328 84 42
193 22 275 -50 57 -50 86 -105 92 -177 10 -114 18 -104 -578 -781 -297 -338
-562 -637 -587 -663 -122 -126 -333 -253 -492 -296 -233 -63 -438 -50 -628 39
-110 52 -183 108 -237 185 -111 155 -130 346 -56 555 39 111 85 183 172 272
123 123 285 218 375 218 53 0 39 -18 -57 -76 -198 -122 -344 -311 -390 -504
-20 -86 -16 -197 10 -255 44 -100 103 -137 220 -137 133 0 234 54 339 181 155
185 221 399 253 814 13 177 7 246 -27 286 -29 34 -70 43 -217 42 -502 -1 -962
-365 -1007 -795 -16 -155 7 -280 74 -401 30 -53 34 -65 20 -65 -47 0 -270 304
-374 510 -57 113 -138 325 -174 457 -74 269 -106 521 -106 830 0 325 18 408
105 502 90 96 224 123 338 68 64 -32 100 -70 134 -143 20 -45 25 -80 38 -267
7 -119 19 -225 25 -236 12 -24 46 -44 60 -36 5 3 301 337 658 743 357 405 665
751 684 768 33 29 62 43 123 58 37 9 110 -4 162 -30z"/>
</g>
</svg>
