<svg width="24" height="24" viewBox="0 0 24 24" fill="none" xmlns="http://www.w3.org/2000/svg">
<path d="M18.7156 9.64194L12.4757 15.8052C12.4137 15.8669 12.3397 15.9159 12.2581 15.9493C12.1765 15.9828 12.0889 16 12.0003 16C11.9118 16 11.8242 15.9828 11.7426 15.9493C11.661 15.9159 11.587 15.8669 11.525 15.8052L5.28511 9.64194C5.10239 9.46042 5 9.21611 5 8.96162C5 8.70713 5.10239 8.46281 5.28511 8.28129C5.37502 8.1922 5.48219 8.12145 5.60037 8.07316C5.71855 8.02487 5.84539 8 5.9735 8C6.10162 8 6.22846 8.02487 6.34664 8.07316C6.46482 8.12145 6.57198 8.1922 6.66189 8.28129L12.0003 13.5539L17.3374 8.28129C17.4274 8.19226 17.5347 8.12157 17.6529 8.07332C17.7711 8.02507 17.898 8.00023 18.0262 8.00023C18.1543 8.00023 18.2812 8.02507 18.3994 8.07332C18.5176 8.12157 18.6249 8.19226 18.7149 8.28129C18.8976 8.46281 19 8.70713 19 8.96162C19 9.21611 18.8976 9.46042 18.7149 9.64194" fill="#BEBAB5"/>
</svg>
