<svg width="90" height="59" viewBox="0 0 90 59" fill="none" xmlns="http://www.w3.org/2000/svg">
<path fill-rule="evenodd" clip-rule="evenodd" d="M62.816 1.79903C66.0355 0.189023 67.6875 0.43643 67.729 2.04644C67.7695 4.15179 67.4391 6.95893 67.2321 8.98181C65.9945 19.9635 64.0126 28.9217 63.8477 40.2333C69.1736 26.4445 73.5907 16.9494 79.3295 5.18398C81.1459 1.42712 82.3431 2.12891 83.8291 1.42712C89.6503 -1.17411 89.8563 0.435899 89.072 3.65591C86.2654 15.3394 79.0816 52.2876 77.9674 57.9444C77.637 59.5959 75.8206 58.9351 75.4077 58.2748C73.2608 55.4262 70.9485 55.3842 71.1959 53.4443C72.5176 44.0322 77.2241 20.2114 78.4213 14.5966C72.1871 27.3112 65.7466 43.2884 62.4452 52.2876C61.7429 54.187 60.4633 54.0636 59.679 52.6595C58.5223 50.6361 56.3755 49.6459 56.0461 47.3341C54.8894 39.9438 57.3252 25.8252 57.6556 16.8669C54.3116 26.6094 48.6149 45.6002 46.1376 54.145C45.1059 57.696 41.6795 57.0766 42.5877 53.6912C46.385 39.283 54.5186 13.8938 58.027 4.77004C58.8527 2.58328 61.04 2.70725 62.816 1.79903ZM42.2568 0.0240858C41.1416 -0.223321 37.9216 1.51012 35.9402 1.79956C35.3214 1.96503 34.7431 2.58382 34.5372 3.07863C31.3985 10.3029 28.5919 17.1569 26.1977 23.3484C22.5819 24.0115 18.9759 24.7272 15.3809 25.4953C18.312 18.0646 21.2437 10.6754 24.0918 3.61494C25.4954 0.0650545 21.7805 -0.265355 20.3344 3.28507C18.477 7.86768 14.9675 16.495 11.0872 26.528C8.2386 27.2298 5.14202 28.014 2.00501 28.9638C-0.306778 29.5826 -0.389778 30.2013 0.600913 31.606C1.17873 32.3487 2.25242 32.2663 2.78927 32.8446C4.15187 34.2476 4.97762 35.9406 7.41232 36.188C5.18353 41.9678 3.03614 47.8715 1.13776 53.5273C-0.100871 57.1187 3.40805 57.862 4.72915 54.0641C6.876 47.9955 9.14629 41.8444 11.5001 35.6097C13.4405 35.1974 18.1056 34.2067 22.4403 33.2154C19.0138 42.7105 16.7845 49.8529 15.8758 53.3618C15.7114 54.0221 16.0412 54.3525 16.1647 54.6824C17.2799 56.3339 18.4355 56.4164 19.9215 58.5222C20.2934 59.1006 21.6555 59.389 22.1514 57.9854C25.1106 49.0016 28.2626 40.0824 31.605 31.2341C32.8851 30.9037 35.1974 30.3668 36.6005 28.303C39.0777 24.5871 39.78 25.3309 40.4403 24.2157C41.1831 22.7712 40.6462 21.491 38.0046 21.7799C38.0046 21.7799 37.0133 21.8629 35.1144 22.0694C38.0865 14.5141 40.7298 8.11562 42.5457 3.2026C43.1645 1.51012 43.248 0.271493 42.2568 0.0240858Z" fill="white"/>
<path fill-rule="evenodd" clip-rule="evenodd" d="M39.3534 46.9381C39.7828 46.3933 40.1722 45.8309 40.5234 45.3116C42.0876 42.9972 40.5649 41.6367 38.9549 42.9993C38.725 43.2105 38.4861 43.4409 38.2488 43.6803C37.9848 42.8545 37.7229 42.0281 37.463 41.2009C38.201 40.2964 38.9192 39.368 39.5322 38.4167C42.1196 34.4039 37.056 32.1006 34.8671 34.7019C33.712 36.0645 34.0009 37.4265 34.3308 38.6236C34.4265 38.9833 34.5755 39.4973 34.7601 40.1209C33.9573 40.9594 33.1809 41.8229 32.4319 42.7099C29.9136 45.6005 30.6138 49.3223 33.2576 50.1411C34.8517 50.6354 36.3558 49.915 37.6588 48.7657C37.7216 48.9296 37.7817 49.0855 37.8402 49.2334C38.542 50.9674 40.7304 50.4305 39.8631 48.3252C39.7237 47.9714 39.5492 47.4952 39.3534 46.9381ZM35.7695 43.3004C35.9833 43.9746 36.2137 44.6827 36.4436 45.3606C36.1557 45.6005 35.8636 45.8431 35.5694 46.0134C34.5457 46.6056 33.7939 45.9719 35.115 44.197C35.331 43.8905 35.5524 43.5936 35.7695 43.3004ZM36.5957 38.2454C36.5197 38.0533 36.476 37.8649 36.4361 37.7154C35.6955 34.9487 38.8666 35.6878 37.2624 37.509C37.0347 37.767 36.8277 38.0224 36.5957 38.2454Z" fill="white"/>
</svg>
