<svg width="74" height="74" viewBox="0 0 74 74" fill="none" xmlns="http://www.w3.org/2000/svg">
<path fill-rule="evenodd" clip-rule="evenodd" d="M1.34099 58.1609C0.94536 58.1672 0.794792 58.1805 0.683827 58.197C0.572862 58.2135 0.500323 58.2327 0.4419 58.2531C0.319564 58.3017 0.239967 58.3287 0.138804 58.4781C0.0556786 58.6287 0.0556786 58.733 0.0599917 58.8859C0.0639127 58.9549 0.0737153 59.0345 0.0933205 59.1345C0.112926 59.2341 0.142725 59.3537 0.192915 59.5094C0.242712 59.6646 0.312506 59.8568 0.389358 60.0454C0.841675 61.0113 1.41395 61.9163 2.09265 62.7391C2.76001 63.5421 3.51677 64.2315 4.33117 64.8612C5.16096 65.501 6.03843 66.0764 6.9559 66.5825C7.89382 67.1016 8.89681 67.569 9.96961 67.9929C11.0726 68.4276 12.1988 68.8011 13.3429 69.112C17.0353 70.0879 20.8187 70.6835 26.4117 70.9882C32.0046 71.2928 39.4079 71.3066 45.5365 70.9572C51.665 70.6078 56.5216 69.8942 61.2841 68.7622C62.7208 68.3838 64.1276 67.8882 65.362 67.3385C66.5955 66.7884 67.6573 66.1837 68.6039 65.5128C69.5504 64.8419 70.3836 64.1056 71.1373 63.2116C71.8909 62.3176 72.5657 61.2656 73.0993 60.1485C73.3252 59.634 73.5244 59.1012 73.146 58.6056C73.1067 58.559 73.0626 58.5168 73.0143 58.4797C72.9529 58.4328 72.8873 58.3919 72.8182 58.3574C72.7153 58.3045 72.6059 58.2655 72.4928 58.2413C72.3118 58.2026 72.1279 58.1787 71.943 58.1699H3.01762C2.45882 58.1587 1.89988 58.1557 1.34099 58.1609ZM71.1459 17.7331C71.5588 17.7135 71.9721 17.6743 72.234 17.6351C72.4959 17.5959 72.6069 17.5563 72.6974 17.5187C72.788 17.481 72.8574 17.445 72.9174 17.4061C73.2354 17.1779 73.2683 16.9709 73.3158 16.7466C73.3295 16.6639 73.3381 16.5694 73.3389 16.4576C73.3397 16.3459 73.3326 16.2165 73.3138 16.0553C73.2938 15.8946 73.2617 15.7021 73.206 15.459C73.1406 15.1808 73.0655 14.905 72.9809 14.632C72.801 14.0544 72.5461 13.5027 72.1218 12.826C71.6984 12.1488 71.1063 11.3474 70.2778 10.4534C69.45 9.55976 68.3847 8.57441 67.2311 7.67453C66.0661 6.76735 64.8293 5.95643 63.5328 5.24977C61.2355 4.02484 58.7986 3.0736 55.6072 2.23214C52.4175 1.39069 48.4737 0.660202 44.0465 0.288097C39.6193 -0.084009 34.7086 -0.0973405 30.2311 0.257905C25.7537 0.61315 21.71 1.33658 18.4288 2.17921C15.1481 3.02184 12.6304 3.98327 10.2523 5.22467C9.07816 5.83247 7.93518 6.4987 6.82769 7.22087C5.88569 7.83508 4.98059 8.50412 4.11708 9.22451C3.33327 9.88089 2.65767 10.5263 2.05854 11.3046C1.45941 12.0826 0.936342 12.9934 0.534044 13.9537C0.412454 14.226 0.305519 14.5047 0.213696 14.7885C0.142162 15.0087 0.0864717 15.2339 0.0470523 15.4621C0.0171573 15.6328 0.00141966 15.8056 0 15.9789C0 16.1306 0.0129394 16.2647 0.0360735 16.3859C0.0995941 16.6878 0.198796 16.947 0.501499 17.223C0.584233 17.296 0.679514 17.363 0.792048 17.4253C0.904581 17.4873 1.03398 17.5442 1.18925 17.5936C1.34452 17.643 1.52489 17.6853 1.74486 17.7151C1.96483 17.7445 2.2244 17.7602 2.48358 17.7598L71.1459 17.7331Z" fill="white"/>
<path fill-rule="evenodd" clip-rule="evenodd" d="M24.0984 32.9295C25.0132 32.1289 25.2339 31.3278 25.2492 30.5071L25.2555 22.3784C25.25 22.0522 25.1696 21.7244 24.8093 21.3982C24.7393 21.3371 24.6643 21.2822 24.585 21.2339C24.4922 21.1773 24.3949 21.1285 24.294 21.088C23.9298 20.941 23.5153 20.883 23.0934 20.9131C22.955 20.9232 22.8175 20.9438 22.6821 20.9747C22.5599 21.0025 22.4401 21.0398 22.3237 21.0865C22.2227 21.1269 22.1251 21.1755 22.032 21.2319C21.9523 21.28 21.8768 21.3348 21.8065 21.3958C21.4482 21.7185 21.3631 22.0428 21.3564 22.3761L21.3709 29.9535C21.3584 30.2425 21.318 30.5428 20.9051 30.8436C20.4483 31.1212 19.8946 31.1984 19.2924 30.8404C18.8967 30.5526 18.8379 30.2562 18.827 29.9472L18.8191 22.4098C18.8128 22.0773 18.7309 21.744 18.3631 21.4115C18.2917 21.3495 18.2153 21.2936 18.1345 21.2445C18.04 21.1872 17.941 21.1378 17.8385 21.0967C17.4699 20.9484 17.0495 20.8892 16.6218 20.921C16.4822 20.9316 16.3437 20.9527 16.2073 20.9841C16.0846 21.0123 15.9644 21.0503 15.8478 21.0978C15.7387 21.1421 15.6415 21.1919 15.5552 21.2449C15.4754 21.2937 15.4 21.3493 15.3298 21.4111C14.971 21.7385 14.8883 22.0667 14.8844 22.4059L14.8746 30.5056C14.8746 30.6851 14.8902 30.8647 14.9189 31.038C15.0322 31.6725 15.3008 32.3049 16.0273 32.9339C16.1971 33.0778 16.3928 33.2193 16.619 33.3534C16.8658 33.4987 17.124 33.6238 17.3911 33.7275C17.6797 33.8404 18.0004 33.94 18.349 34.018C19.0454 34.1756 19.8621 34.2384 20.6424 34.1811C21.0187 34.1541 21.3926 34.0998 21.7611 34.0184C22.0897 33.946 22.4123 33.8485 22.726 33.7267C23.017 33.613 23.2754 33.4855 23.5032 33.3507C23.731 33.2158 23.9278 33.0734 24.0984 32.9295ZM28.3727 37.0407C28.2664 36.9479 28.1522 36.8643 28.0316 36.791C27.8907 36.7055 27.743 36.6318 27.5901 36.5706C27.4142 36.4998 27.233 36.4429 27.0482 36.4004C26.6287 36.3058 26.1975 36.2741 25.7687 36.3063C25.5519 36.3228 25.3417 36.3553 25.1457 36.4004C24.9496 36.4455 24.7685 36.5039 24.6038 36.5706C24.4395 36.6369 24.2921 36.7118 24.1623 36.791C24.0416 36.8643 23.9275 36.9479 23.8212 37.0407C23.2793 37.5309 23.1511 38.0233 23.142 38.5303V53.858C23.142 53.9706 23.1503 54.0831 23.1675 54.1921C23.2354 54.5858 23.3879 54.9712 23.8251 55.3645C23.9239 55.4515 24.0368 55.5358 24.1666 55.6154C24.2964 55.695 24.4438 55.7707 24.6081 55.8374C25.1594 56.0597 25.786 56.1487 26.4239 56.102C26.6396 56.0856 26.8494 56.053 27.045 56.0075C27.2295 55.9653 27.4103 55.9084 27.5857 55.8374C27.75 55.7707 27.8971 55.695 28.0273 55.6154C28.1574 55.5358 28.27 55.4515 28.3688 55.3645C28.9142 54.8689 29.0432 54.3709 29.0518 53.858V38.5303C29.0432 38.0347 28.9212 37.5364 28.3727 37.0407ZM20.4644 51.596L15.371 46.0234L20.5106 40.4697C21.2282 39.4933 21.3411 38.5178 20.6169 37.512C20.4855 37.3408 20.3352 37.1849 20.1687 37.0474C19.6139 36.5936 18.9274 36.3314 18.2113 36.2997C17.9944 36.2907 17.7771 36.3051 17.5632 36.3424C16.9817 36.4442 16.4464 36.725 16.032 37.1454L9.3706 44.346L9.38668 38.5072C9.37923 38.0202 9.26081 37.5301 8.71736 37.0435C8.61206 36.9524 8.49896 36.8708 8.37937 36.7996C8.23956 36.7158 8.09307 36.6436 7.94139 36.5839C7.76646 36.515 7.5863 36.4602 7.40264 36.42C6.77644 36.2836 6.12766 36.2887 5.50368 36.4349C5.30763 36.482 5.1257 36.5412 4.96101 36.609C4.79633 36.6769 4.64851 36.7529 4.51833 36.8337C4.39721 36.9079 4.28269 36.9924 4.17602 37.0862C3.63335 37.5799 3.50082 38.0759 3.49023 38.5856L3.50435 53.9121C3.5118 54.3933 3.62669 54.8842 4.15014 55.3625C4.24346 55.4453 4.3509 55.5257 4.47402 55.6017C4.59714 55.6774 4.73634 55.7488 4.892 55.8123C5.04806 55.8758 5.22098 55.9319 5.40958 55.9758C5.98362 56.1091 6.64745 56.1248 7.31285 55.977C7.50575 55.9342 7.69505 55.8765 7.87904 55.8044C8.05157 55.7366 8.20645 55.6601 8.34251 55.5794C8.47896 55.4986 8.5962 55.4139 8.69932 55.3269C9.2518 54.8454 9.39295 54.3595 9.40432 53.8663L9.36237 47.8565L15.9869 55.1508C16.7712 55.9483 17.5891 56.133 18.3992 56.0475C18.8243 55.9941 19.2347 55.8574 19.6068 55.6452C19.8053 55.5326 19.9923 55.4009 20.1652 55.252C21.1396 54.3791 21.4066 53.3365 21.007 52.3829C20.8758 52.0896 20.6919 51.8229 20.4644 51.596ZM3.99252 33.7584C4.04977 33.8063 4.11368 33.8522 4.18975 33.8953C4.41187 34.0165 4.65495 34.0944 4.90612 34.1251C5.11276 34.1533 5.39821 34.1721 5.68327 34.1721H9.6388C9.90739 34.1721 10.1756 34.1545 10.4265 34.1204C10.9476 34.0427 11.357 33.9435 11.8099 33.6934C12.0676 33.5447 12.3088 33.3689 12.5294 33.1691C13.0936 32.6488 13.3979 32.1273 13.5834 31.6066C13.7041 31.2583 13.7732 30.8942 13.7884 30.5259C13.7974 30.3197 13.7912 30.097 13.7618 29.8602C13.7319 29.6201 13.6812 29.3832 13.61 29.152C13.5467 28.9474 13.4587 28.7512 13.3481 28.5678C13.1543 28.2804 12.9396 28.0077 12.7058 27.7518C12.5594 27.591 12.3927 27.45 12.2098 27.3323C12.0527 27.2296 11.8879 27.1391 11.7169 27.0617C11.945 26.9098 12.1615 26.7412 12.3647 26.5575C12.6255 26.3219 12.8431 26.0425 13.0078 25.7321C13.1251 25.5104 13.2081 25.2721 13.254 25.0255C13.3359 24.5436 13.3199 23.8426 13.1097 23.2262C13.0073 22.9215 12.8553 22.6357 12.66 22.3804C12.5545 22.2404 12.431 22.0973 12.2361 21.9373C12.0412 21.7773 11.7754 21.6005 11.4966 21.4492C11.3367 21.3651 11.17 21.2947 10.9982 21.2386C10.7744 21.1646 10.5454 21.1069 10.3132 21.0661C10.0081 21.012 9.70022 20.9748 9.39099 20.9547H5.66915C5.42722 20.9547 5.18451 20.9743 4.97474 21.0124C4.78948 21.0443 4.60864 21.098 4.43599 21.1723C4.28307 21.2394 4.15446 21.3186 4.04388 21.4096C3.93429 21.4992 3.83897 21.6049 3.76118 21.7232C3.58865 21.9793 3.50906 22.3181 3.50906 22.6568V32.4998C3.50906 32.5959 3.51258 32.6923 3.52199 32.7817C3.56317 33.1111 3.63531 33.4436 3.99252 33.7584ZM7.31285 23.5877L8.2782 23.5994C8.62404 23.6116 8.9487 23.6806 9.26317 24.0284C9.32394 24.1002 9.37884 24.1809 9.42432 24.2715C9.6737 24.8161 9.6039 25.3235 9.25807 25.7454C8.92596 26.0975 8.59659 26.1383 8.27938 26.1434L7.31285 26.1309V23.5877ZM7.31285 28.5819L8.47033 28.5799C8.85499 28.6105 9.21376 28.6893 9.55764 29.1093C9.62155 29.1924 9.67723 29.2861 9.72232 29.3904C9.76741 29.4947 9.80231 29.6096 9.8227 29.7312C9.8862 30.1056 9.81374 30.4904 9.61841 30.8161C9.56019 30.9121 9.49054 31.0007 9.41099 31.08C9.01536 31.4544 8.62325 31.4956 8.24448 31.4748L7.31245 31.4666V28.5819H7.31285ZM53.4563 34.1725H58.6717C58.9567 34.1658 59.2422 34.1027 59.5308 33.7612C59.915 33.2385 59.9833 32.6288 59.7841 31.9583C59.7536 31.8669 59.7151 31.7783 59.6692 31.6936C59.6295 31.6204 59.5836 31.5508 59.5319 31.4854C59.2492 31.1459 58.9646 31.0737 58.6705 31.0651L55.7297 31.0463L55.7387 28.9905L58.069 29.0026C58.4039 28.9944 58.7481 28.9364 59.0912 28.5149C59.468 27.9792 59.5453 27.3385 59.2414 26.6504C59.2005 26.5655 59.151 26.4851 59.0936 26.4104C58.7603 25.9968 58.425 25.9266 58.0721 25.9164H55.7082V24.0904L58.4023 24.097C58.7034 24.0853 59.012 24.0143 59.319 23.7159C59.3826 23.6516 59.4429 23.5779 59.499 23.494C59.8052 23.0003 59.8829 22.4118 59.6437 21.7864C59.6045 21.691 59.5558 21.5998 59.4982 21.5142C59.1496 21.0371 58.792 20.9684 58.4168 20.9555H53.4559C53.1858 20.9555 52.9031 21.0076 52.6349 21.1414C52.5102 21.2041 52.3914 21.2825 52.2847 21.3774C51.9208 21.704 51.7585 22.1161 51.7577 22.5082L51.764 32.5237C51.764 32.648 51.7801 32.7723 51.8138 32.8993C51.8467 33.026 51.8981 33.1554 51.9632 33.2758C52.0283 33.3969 52.1079 33.5095 52.1953 33.6087C52.598 34.0455 53.0266 34.1662 53.4563 34.1725ZM71.6185 31.7693L69.0401 28.4705C69.0463 28.4721 69.0514 28.4721 69.0883 28.4588C69.2145 28.4204 69.5576 28.2294 69.8258 27.9753C70.8006 27.0088 70.957 26.0403 71.0359 25.0741C71.0994 24.2492 70.9249 23.443 70.283 22.5788C70.0925 22.3295 69.8759 22.1013 69.6368 21.8981C68.9393 21.3025 68.0668 20.9528 67.3073 20.9575H62.4061C62.0551 20.9677 61.7007 21.0135 61.3599 21.4233C61.3125 21.4841 61.2658 21.5554 61.22 21.6425C61.1741 21.7295 61.1298 21.8318 61.0929 21.9722C61.0521 22.1354 61.0263 22.3019 61.0157 22.4698V32.8029C61.0157 32.8739 61.0211 32.9448 61.0317 33.0134C61.0729 33.2573 61.1682 33.4993 61.436 33.7408C61.4964 33.7945 61.5662 33.8467 61.6466 33.8961C61.7262 33.9451 61.8175 33.9917 61.9183 34.0329C62.2696 34.1741 62.6649 34.227 63.0707 34.1984C63.2122 34.1882 63.3518 34.167 63.482 34.1376C63.6122 34.1078 63.7341 34.0698 63.8435 34.0263C63.9537 33.9823 64.0525 33.9329 64.1392 33.8812C64.2266 33.829 64.3015 33.7745 64.3666 33.7185C64.7195 33.4079 64.8077 33.0942 64.814 32.775L64.8202 29.0858L68.2268 33.6173C68.3331 33.7655 68.5217 33.9372 68.6946 34.0263C69.3502 34.3442 69.9929 34.2294 70.7265 33.822C70.8453 33.7514 70.9602 33.6726 71.0641 33.5891C71.7511 33.0146 72.0345 32.3696 71.6185 31.7693ZM66.8247 26.1901C66.4945 26.55 66.1691 26.6288 65.8507 26.6586C65.7856 26.6626 65.8001 26.6622 65.5672 26.6716C65.4017 26.6786 65.1131 26.6896 64.8249 26.7006V23.6261C65.1568 23.6285 65.4887 23.6319 65.8205 23.6363C65.8487 23.6367 65.8605 23.6371 65.8719 23.6379C66.2051 23.6579 66.5188 23.7359 66.8282 24.0594C66.8909 24.1276 66.9486 24.2052 66.9992 24.2927C67.3591 24.993 67.2579 25.6478 66.8247 26.1901ZM70.9786 45.1741C70.9428 45.0509 70.8962 44.9312 70.8394 44.8161C70.7947 44.7268 70.7411 44.6422 70.6794 44.5636C70.5677 44.4203 70.4263 44.3029 70.265 44.2194C70.1692 44.1696 70.0689 44.1291 69.9654 44.0982C69.8271 44.0568 69.6854 44.0278 69.5419 44.0115C69.3432 43.9885 69.1432 43.9779 68.9432 43.9798L64.3709 44.008C63.8372 43.9814 63.2828 44.0602 62.7374 44.4993C62.6241 44.593 62.517 44.702 62.4174 44.8275C62.3178 44.953 62.2261 45.0957 62.1473 45.2549C61.8951 45.7642 61.7995 46.361 61.8869 46.9621C61.9151 47.1543 61.9626 47.3362 62.0249 47.5017C62.0861 47.6671 62.1614 47.8165 62.2461 47.9487C62.6735 48.5795 63.1252 48.7407 63.5894 48.8262C63.7396 48.8501 63.8913 48.8693 64.0121 48.8815C64.2435 48.9038 64.3897 48.9042 64.5665 48.9007C64.6897 48.8866 64.8148 48.876 64.8943 48.8717C65.0512 48.8646 65.0743 48.8717 65.15 48.9124C65.326 49.0818 65.3002 49.201 65.3323 49.4186C65.3362 49.4712 65.3355 49.5163 65.3292 49.5751C65.3115 49.7692 65.1951 50.1476 64.9943 50.4679C64.9031 50.5655 64.799 50.6502 64.685 50.7196C64.416 50.8835 64.0886 50.9976 63.7698 51.067C63.406 51.1432 63.035 51.1798 62.6633 51.1761C62.3339 51.1768 62.0038 51.151 61.703 51.1023C61.4023 51.0537 61.1302 50.9824 60.8753 50.8886C60.3667 50.6969 59.9295 50.4452 59.4684 49.9825C59.218 49.7248 58.993 49.4436 58.7967 49.1426C58.4233 48.5575 58.1734 47.9022 58.0623 47.217C57.9435 46.5057 57.9561 45.7258 58.1051 44.9648C58.2541 44.2037 58.5407 43.4602 58.943 42.7874C59.0846 42.5478 59.2685 42.3224 59.5374 42.0926C59.6707 41.9793 59.8237 41.8679 60.0076 41.7577C60.1915 41.6476 60.4059 41.5382 60.6616 41.435C60.956 41.3173 61.2591 41.2225 61.5681 41.1515C62.2873 40.9814 63.1758 40.9026 64.0011 40.9829C64.1544 41.001 64.3066 41.0269 64.485 41.0661C64.6642 41.1049 64.87 41.1566 65.3359 41.3229C65.8009 41.4888 66.5243 41.7687 67.2411 42.0644C67.9496 42.3184 68.6542 42.2647 69.3898 41.7605C69.5433 41.6513 69.6857 41.5271 69.8148 41.3899C70.452 40.6963 70.7422 39.8302 70.5218 39.0079C70.452 38.7624 70.3291 38.5353 70.1619 38.3425C70.0794 38.2464 69.9876 38.1588 69.8878 38.081C69.262 37.5846 68.586 37.1497 67.9841 36.851C67.3822 36.5518 66.8545 36.3887 66.3094 36.255C65.7464 36.1172 65.1753 36.0148 64.5995 35.9483C63.9774 35.8774 63.3517 35.8438 62.7256 35.8476C61.8753 35.8415 61.0268 35.9264 60.1946 36.1009C59.3833 36.2699 58.5945 36.5333 57.8443 36.8855C57.0954 37.2384 56.3787 37.6854 55.707 38.2457C55.0353 38.806 54.4083 39.4792 53.9257 40.1446C53.4426 40.81 53.103 41.468 52.8305 42.2196C52.558 42.9713 52.3518 43.8175 52.2416 44.6656C52.1354 45.4943 52.1164 46.3318 52.1847 47.1644C52.2477 47.9254 52.3886 48.6778 52.6051 49.41C52.8117 50.1048 53.0783 50.7455 53.3618 51.2984C53.6453 51.8513 53.9445 52.3171 54.2707 52.7421C54.5892 53.1601 54.945 53.5483 55.3337 53.902C55.7195 54.2529 56.1403 54.5689 56.6088 54.8536C57.0774 55.1383 57.5938 55.3908 58.1843 55.6096C58.8483 55.8535 59.5348 56.0314 60.2338 56.1405C61.0263 56.2679 61.9469 56.3389 62.8668 56.3365C63.3111 56.3354 63.7552 56.3163 64.198 56.2793C64.6301 56.2424 65.0433 56.1887 65.4402 56.1181C65.837 56.0475 66.2173 55.9605 66.5812 55.8562C66.9363 55.755 67.2853 55.6335 67.6265 55.4923C67.9598 55.3535 68.2774 55.1982 68.5829 55.021C68.8889 54.8444 69.1812 54.6449 69.4572 54.4242C70.0062 53.9917 70.5218 53.3977 70.8233 52.8397C70.9712 52.5661 71.057 52.3182 71.1021 52.0622L71.1609 46.6563C71.1541 46.3527 71.1321 46.0496 71.0951 45.7482C71.0724 45.5539 71.0334 45.3619 70.9786 45.1741ZM50.1525 26.9449C50.1291 26.8639 50.0986 26.7852 50.0615 26.7096C49.985 26.5469 49.827 26.3873 49.6839 26.3179C49.6212 26.2851 49.5556 26.2585 49.4878 26.2383C49.3192 26.1838 49.0699 26.1611 48.8169 26.1607L45.8166 26.143C45.4002 26.1309 44.9673 26.1748 44.5368 26.6845C44.2152 27.1115 44.1188 27.5852 44.1858 28.1078C44.2043 28.2361 44.2356 28.3572 44.276 28.4674C44.3164 28.5776 44.3662 28.6768 44.4223 28.7642C44.7026 29.181 44.999 29.2869 45.3021 29.3434C45.4009 29.359 45.5005 29.3716 45.5801 29.3794C45.7319 29.3939 45.8276 29.3939 45.9432 29.392C46.0252 29.3826 46.1063 29.3755 46.1593 29.3728C46.2749 29.3681 46.2965 29.3732 46.3522 29.421C46.4326 29.5237 46.4302 29.5986 46.4463 29.7323C46.4518 29.8307 46.4416 29.8809 46.4149 29.9852C46.3719 30.1387 46.308 30.2855 46.2251 30.4216C45.793 30.8259 45.2272 30.8765 44.6952 30.8867C44.4842 30.8874 44.2734 30.8712 44.065 30.8381C43.5275 30.7451 43.0609 30.5628 42.5986 30.1029C42.434 29.9337 42.2863 29.7489 42.1575 29.5512C41.9124 29.1669 41.7484 28.7366 41.6756 28.2866C41.5969 27.7958 41.6062 27.2948 41.703 26.8072C41.801 26.3073 41.9893 25.8191 42.2528 25.3772C42.3461 25.22 42.4664 25.0718 42.6433 24.9208C42.7307 24.8467 42.8311 24.7734 42.9519 24.7009C43.0892 24.6188 43.2329 24.5478 43.3816 24.4887C43.5749 24.4114 43.7739 24.3491 43.9768 24.3025C44.4996 24.1814 45.0382 24.1441 45.5727 24.1919C45.6738 24.2037 45.7734 24.2209 45.8911 24.2464C46.0083 24.2719 46.1432 24.306 46.4486 24.415C46.7541 24.524 47.2289 24.7075 47.6991 24.902C48.2527 25.0879 48.7895 25.0483 49.3886 24.4593C49.858 23.9359 50.067 23.2854 49.7568 22.66C49.6767 22.5147 49.5678 22.3873 49.4369 22.2855C49.0263 21.9597 48.5821 21.6742 48.1868 21.4778C47.7916 21.2813 47.4454 21.1743 47.087 21.0865C46.3494 20.9037 45.5468 20.8147 44.7352 20.819C44.1772 20.8151 43.6203 20.8708 43.0742 20.9853C42.5366 21.0986 42.0234 21.2688 41.5317 21.5005C41.04 21.7323 40.5698 22.0259 40.1287 22.3937C39.6876 22.7615 39.2763 23.2038 38.9595 23.6414C38.6553 24.0587 38.4131 24.5177 38.2404 25.0044C38.062 25.498 37.9263 26.0536 37.8545 26.6108C37.7828 27.168 37.7734 27.7267 37.8169 28.2521C37.8604 28.7776 37.9569 29.27 38.0933 29.7264C38.2205 30.1543 38.3867 30.5696 38.5897 30.9671C38.776 31.3305 38.9728 31.6364 39.1861 31.9156C39.3954 32.1898 39.6288 32.4448 39.8837 32.6774C40.137 32.9076 40.413 33.1154 40.7208 33.3024C41.0286 33.4895 41.367 33.6553 41.7556 33.7988C42.143 33.9423 42.5798 34.0635 43.0997 34.1474C43.8686 34.2697 44.7944 34.3156 45.7021 34.2384C45.9856 34.2141 46.2565 34.1788 46.5169 34.1325C46.7772 34.0862 47.027 34.0286 47.2658 33.9604C47.5046 33.8922 47.7328 33.8126 47.952 33.7216C48.1704 33.6306 48.3786 33.5283 48.5793 33.4122C48.7801 33.2962 48.9722 33.166 49.1538 33.0201C49.5137 32.7362 49.8521 32.3461 50.0505 31.9795C50.1477 31.7999 50.2038 31.6364 50.2336 31.4686L50.272 27.9181C50.2666 27.7024 50.2505 27.4868 50.2293 27.3213C50.2148 27.1938 50.189 27.0679 50.1525 26.9449ZM49.4671 37.0149C49.3602 36.9214 49.2457 36.837 49.1247 36.7627C48.9833 36.6764 48.8349 36.6018 48.6813 36.5396C48.1284 36.3161 47.4995 36.2271 46.8596 36.2746C46.6427 36.291 46.433 36.324 46.2377 36.3698C46.0416 36.4157 45.8609 36.4741 45.6962 36.5416C45.5435 36.6036 45.3963 36.6781 45.2559 36.7643C45.1265 36.8447 45.0139 36.929 44.9159 37.0164C44.3729 37.5148 44.2466 38.0147 44.2411 38.5303V45.1326C42.3763 42.9011 40.5106 40.67 39.4324 39.38C38.3541 38.09 38.0639 37.7399 37.8561 37.5019C37.6487 37.2642 37.5236 37.138 37.3836 37.0223C37.2397 36.9028 37.0848 36.7972 36.9209 36.7071C36.7435 36.61 36.5573 36.5296 36.3649 36.4671C35.7211 36.2605 35.0024 36.2303 34.2648 36.4173C34.0353 36.476 33.8122 36.5571 33.5986 36.6596C33.4086 36.75 33.2287 36.8603 33.0619 36.9886C32.4321 37.487 32.2428 38.0143 32.2377 38.5303L32.2824 53.8561C32.2827 53.9702 32.2914 54.0835 32.309 54.1933C32.378 54.5893 32.5298 54.9759 32.9689 55.3716C33.0673 55.4582 33.1791 55.5417 33.3081 55.6209C33.4371 55.7001 33.583 55.775 33.7453 55.8409C34.2899 56.0609 34.9071 56.1463 35.5352 56.0981C35.7418 56.0819 35.9468 56.05 36.1485 56.0028C36.3418 55.957 36.5214 55.8985 36.6845 55.8311C36.8476 55.7637 36.9935 55.688 37.1229 55.6076C37.2523 55.5276 37.364 55.4429 37.4628 55.3551C38.009 54.8548 38.1384 54.3505 38.1474 53.8318V46.7943L44.5787 54.9144C45.4809 55.9397 46.3843 56.1495 47.3089 56.0965C47.7268 56.0614 48.1353 55.9531 48.5158 55.7766C48.7158 55.6845 48.9079 55.5731 49.0832 55.4492C49.7549 54.972 50.1077 54.3764 50.1509 53.858L50.1493 38.5303C50.1426 38.0261 50.0207 37.5195 49.4671 37.0149ZM34.5785 34.0212C35.2337 34.3388 35.8768 34.2243 36.6104 33.8169C36.7281 33.7473 36.8407 33.6696 36.9476 33.5844C37.6353 33.0099 37.9188 32.3653 37.5028 31.7646L34.9251 28.4658C34.9306 28.4674 34.9365 28.4674 34.973 28.4541C35.0996 28.4156 35.4431 28.2251 35.7109 27.9706C36.6857 27.0041 36.8417 26.0356 36.9209 25.0698C36.9845 24.2445 36.8096 23.4387 36.1673 22.5741C35.977 22.3249 35.7605 22.0969 35.5215 21.8938C34.824 21.2982 33.9519 20.9484 33.1924 20.9535H28.29C27.9398 20.9633 27.585 21.0096 27.2442 21.4194C27.1968 21.4801 27.1501 21.5519 27.1042 21.6385C27.0488 21.7429 27.006 21.8534 26.9768 21.9679C26.936 22.1311 26.9103 22.2976 26.9 22.4655V32.799C26.9 32.8699 26.9051 32.9409 26.9156 33.0091C26.9568 33.2534 27.0517 33.4953 27.3199 33.7369C27.3807 33.7906 27.4505 33.8427 27.5305 33.8921C27.6104 33.9416 27.701 33.9878 27.8026 34.029C28.1543 34.1705 28.5491 34.2231 28.955 34.1945C29.0961 34.1843 29.2357 34.1631 29.3659 34.1337C29.4961 34.1039 29.6176 34.0662 29.7278 34.0223C29.838 33.9784 29.9368 33.929 30.0235 33.8769C30.1101 33.8251 30.185 33.7706 30.2505 33.7145C30.6034 33.404 30.6916 33.0903 30.6975 32.7711L30.7038 29.0818L34.1103 33.6134C34.217 33.76 34.4056 33.9321 34.5785 34.0212ZM32.6999 26.1662C32.3702 26.5261 32.0447 26.6049 31.7264 26.6347C31.6613 26.6382 31.6754 26.6382 31.4429 26.6477C31.2774 26.6547 30.9892 26.6657 30.7006 26.6767V23.6022C31.0323 23.6046 31.3641 23.608 31.6958 23.6124L31.7479 23.6136C32.0808 23.634 32.3941 23.7116 32.7039 24.0355C32.7662 24.1037 32.8239 24.1813 32.8748 24.2688C33.2344 24.9691 33.1332 25.6239 32.6999 26.1662Z" fill="white"/>
<path fill-rule="evenodd" clip-rule="evenodd" d="M68.4377 71.1627C68.5302 70.9702 68.5404 70.7945 68.4643 70.549C68.4214 70.4426 68.3443 70.3535 68.2452 70.2957C68.1487 70.2408 68.0581 70.2165 67.9421 70.1989C67.8635 70.1887 67.7844 70.1836 67.7052 70.1836H66.8359V72.4754H67.1822V71.4822H67.5798L68.1816 72.4754H68.569L67.9197 71.4666C68.0871 71.445 68.3189 71.3815 68.4377 71.1627ZM67.5962 71.1874H67.1826V70.4777C67.4676 70.489 67.8013 70.4353 68.0028 70.5451C68.2189 70.6823 68.1691 70.9153 68.0856 71.0505C68.0044 71.1427 67.9507 71.1564 67.8205 71.1764C67.746 71.1844 67.6711 71.1881 67.5962 71.1874Z" fill="black"/>
<path fill-rule="evenodd" clip-rule="evenodd" d="M69.5113 70.7278C69.4517 70.5341 69.3604 70.3483 69.2404 70.1793C69.1204 70.0103 68.9702 69.8573 68.7977 69.7311C68.2507 69.3398 67.6053 69.2449 66.9682 69.4417C66.7639 69.5072 66.5682 69.6056 66.3961 69.7311C66.2239 69.8566 66.073 70.0091 65.9526 70.1785C65.5813 70.7106 65.5033 71.3199 65.6809 71.9272C65.7413 72.1225 65.8318 72.3092 65.9526 72.4785C66.075 72.651 66.2245 72.8024 66.3953 72.9271C66.9376 73.3157 67.5932 73.4168 68.2295 73.2177C68.6378 73.0871 68.9926 72.8275 69.2404 72.4778C69.6066 71.9492 69.6897 71.332 69.5113 70.7278ZM68.9028 72.3135C68.7084 72.5949 68.4261 72.8039 68.1002 72.9075C67.5924 73.0632 67.074 72.9867 66.6451 72.6781C66.5078 72.577 66.3881 72.4541 66.2906 72.3143C66.1911 72.1721 66.1151 72.0148 66.0655 71.8484C66.0144 71.6787 65.9886 71.5023 65.9891 71.325C65.9891 70.985 66.0847 70.6349 66.2914 70.342C66.3902 70.2024 66.5117 70.0789 66.649 69.9785C66.7862 69.8781 66.9384 69.8013 67.0999 69.7503C67.6053 69.5974 68.1115 69.6672 68.546 69.9785C68.6824 70.0789 68.8032 70.2024 68.9012 70.3428C69 70.4827 69.0765 70.64 69.1271 70.8062C69.28 71.334 69.2043 71.8724 68.9028 72.3135Z" fill="black"/>
</svg>
