<svg width="12" height="20" viewBox="0 0 12 20" fill="none" xmlns="http://www.w3.org/2000/svg">
<path d="M2.75767 19.114L11.2321 10.6455C11.317 10.5614 11.3843 10.461 11.4303 10.3503C11.4763 10.2395 11.5 10.1206 11.5 10.0005C11.5 9.88034 11.4763 9.76141 11.4303 9.65065C11.3843 9.53989 11.317 9.43951 11.2321 9.35539L2.75767 0.886937C2.50808 0.638953 2.17215 0.5 1.82222 0.5C1.4723 0.5 1.13637 0.638953 0.886777 0.886937C0.764276 1.00896 0.666995 1.1544 0.600595 1.31479C0.534195 1.47517 0.5 1.64731 0.5 1.82118C0.5 1.99505 0.534195 2.16719 0.600595 2.32758C0.666995 2.48797 0.764276 2.6334 0.886777 2.75543L8.1366 10.0005L0.886777 17.2436C0.764359 17.3658 0.66716 17.5113 0.600818 17.6718C0.534476 17.8323 0.500313 18.0044 0.500313 18.1784C0.500313 18.3523 0.534476 18.5244 0.600818 18.6849C0.66716 18.8454 0.764359 18.9909 0.886777 19.1131C1.13637 19.361 1.4723 19.5 1.82222 19.5C2.17215 19.5 2.50808 19.361 2.75767 19.1131" fill="#E9E6E2"/>
</svg>
