<svg width="24" height="24" viewBox="0 0 24 24" fill="none" xmlns="http://www.w3.org/2000/svg">
<path d="M8.75767 21.114L17.2321 12.6455C17.317 12.5614 17.3843 12.461 17.4303 12.3503C17.4763 12.2395 17.5 12.1206 17.5 12.0005C17.5 11.8803 17.4763 11.7614 17.4303 11.6507C17.3843 11.5399 17.317 11.4395 17.2321 11.3554L8.75767 2.88694C8.50808 2.63895 8.17215 2.5 7.82222 2.5C7.4723 2.5 7.13637 2.63895 6.88678 2.88694C6.76428 3.00896 6.667 3.1544 6.60059 3.31479C6.53419 3.47517 6.5 3.64731 6.5 3.82118C6.5 3.99505 6.53419 4.16719 6.60059 4.32758C6.667 4.48797 6.76428 4.6334 6.88678 4.75543L14.1366 12.0005L6.88678 19.2436C6.76436 19.3658 6.66716 19.5113 6.60082 19.6718C6.53448 19.8323 6.50031 20.0044 6.50031 20.1784C6.50031 20.3523 6.53448 20.5244 6.60082 20.6849C6.66716 20.8454 6.76436 20.9909 6.88678 21.1131C7.13637 21.361 7.4723 21.5 7.82222 21.5C8.17215 21.5 8.50808 21.361 8.75767 21.1131" fill="white"/>
</svg>
