<svg width="24" height="24" viewBox="0 0 24 24" fill="none" xmlns="http://www.w3.org/2000/svg">
<path d="M15.2423 21.114L6.76785 12.6455C6.68304 12.5614 6.61567 12.461 6.56968 12.3503C6.52369 12.2395 6.5 12.1206 6.5 12.0005C6.5 11.8803 6.52369 11.7614 6.56968 11.6507C6.61567 11.5399 6.68304 11.4395 6.76785 11.3554L15.2423 2.88694C15.4919 2.63895 15.8278 2.5 16.1778 2.5C16.5277 2.5 16.8636 2.63895 17.1132 2.88694C17.2357 3.00896 17.333 3.1544 17.3994 3.31479C17.4658 3.47517 17.5 3.64731 17.5 3.82118C17.5 3.99505 17.4658 4.16719 17.3994 4.32758C17.333 4.48797 17.2357 4.6334 17.1132 4.75543L9.8634 12.0005L17.1132 19.2436C17.2356 19.3658 17.3328 19.5113 17.3992 19.6718C17.4655 19.8323 17.4997 20.0044 17.4997 20.1784C17.4997 20.3523 17.4655 20.5244 17.3992 20.6849C17.3328 20.8454 17.2356 20.9909 17.1132 21.1131C16.8636 21.361 16.5277 21.5 16.1778 21.5C15.8278 21.5 15.4919 21.361 15.2423 21.1131" fill="white"/>
</svg>
