<svg width="12" height="20" viewBox="0 0 12 20" fill="none" xmlns="http://www.w3.org/2000/svg">
<path d="M9.24233 19.114L0.767851 10.6455C0.683041 10.5614 0.61567 10.461 0.569679 10.3503C0.523688 10.2395 0.5 10.1206 0.5 10.0005C0.5 9.88034 0.523688 9.76141 0.569679 9.65065C0.61567 9.53989 0.683041 9.43951 0.767851 9.35539L9.24233 0.886937C9.49192 0.638953 9.82785 0.5 10.1778 0.5C10.5277 0.5 10.8636 0.638953 11.1132 0.886937C11.2357 1.00896 11.333 1.1544 11.3994 1.31479C11.4658 1.47517 11.5 1.64731 11.5 1.82118C11.5 1.99505 11.4658 2.16719 11.3994 2.32758C11.333 2.48797 11.2357 2.6334 11.1132 2.75543L3.8634 10.0005L11.1132 17.2436C11.2356 17.3658 11.3328 17.5113 11.3992 17.6718C11.4655 17.8323 11.4997 18.0044 11.4997 18.1784C11.4997 18.3523 11.4655 18.5244 11.3992 18.6849C11.3328 18.8454 11.2356 18.9909 11.1132 19.1131C10.8636 19.361 10.5277 19.5 10.1778 19.5C9.82785 19.5 9.49192 19.361 9.24233 19.1131" fill="#E9E6E2"/>
</svg>
