<svg width="109" height="32" viewBox="0 0 109 32" fill="none" xmlns="http://www.w3.org/2000/svg">
<path fill-rule="evenodd" clip-rule="evenodd" d="M105.122 32H3.81823C1.71332 32 0 30.2976 0 28.2136V3.7808C0 1.696 1.71332 0 3.81823 0H105.122C107.226 0 109 1.696 109 3.7808V28.2136C109 30.2976 107.226 32 105.122 32Z" fill="#111111"/>
<path fill-rule="evenodd" clip-rule="evenodd" d="M23.7903 15.826C23.7668 13.2476 25.921 11.9932 26.0195 11.9348C24.7995 10.1724 22.9086 9.93159 22.2441 9.91239C20.6559 9.74679 19.1154 10.854 18.3063 10.854C17.4812 10.854 16.2353 9.92839 14.8926 9.95559C13.1648 9.98199 11.5483 10.9732 10.6618 12.5124C8.83223 15.6508 10.1967 20.2628 11.9496 22.7996C12.8265 24.042 13.8511 25.4292 15.1922 25.3804C16.5042 25.3268 16.9943 24.5516 18.5776 24.5516C20.1464 24.5516 20.6067 25.3804 21.9744 25.3492C23.3825 25.3268 24.2691 24.1012 25.1152 22.8476C26.1285 21.4236 26.5354 20.0212 26.5516 19.9492C26.5185 19.938 23.8169 18.9164 23.7903 15.826Z" fill="white"/>
<path fill-rule="evenodd" clip-rule="evenodd" d="M21.2067 8.24386C21.9124 7.36946 22.3952 6.17986 22.2612 4.97266C21.2398 5.01746 19.9625 5.67266 19.2269 6.52786C18.5761 7.28146 17.9948 8.51666 18.145 9.67826C19.2923 9.76306 20.4703 9.10466 21.2067 8.24386Z" fill="white"/>
<path fill-rule="evenodd" clip-rule="evenodd" d="M43.3134 20.2724H41.4798L40.4754 17.1452H36.9841L36.0274 20.2724H34.2422L37.7011 9.62598H39.8375L43.3134 20.2724ZM40.1729 15.8321L39.2645 13.0521C39.1684 12.7681 38.9884 12.0993 38.7228 11.0465H38.6905C38.5847 11.4993 38.4143 12.1681 38.1802 13.0521L37.288 15.8321H40.1729Z" fill="white"/>
<path fill-rule="evenodd" clip-rule="evenodd" d="M52.2112 16.3391C52.2112 17.6447 51.8552 18.6767 51.143 19.4343C50.5052 20.1087 49.7131 20.4455 48.7677 20.4455C47.7471 20.4455 47.014 20.0823 46.5675 19.3559H46.5352V23.3999H44.8138V15.1223C44.8138 14.3015 44.792 13.4591 44.75 12.5951H46.2639L46.36 13.8119H46.3923C46.9663 12.8951 47.8375 12.4375 49.0066 12.4375C49.9206 12.4375 50.6836 12.7951 51.294 13.5111C51.906 14.2279 52.2112 15.1703 52.2112 16.3391ZM50.4528 16.4013C50.4528 15.6541 50.2832 15.0381 49.9425 14.5533C49.5703 14.0477 49.0705 13.7949 48.444 13.7949C48.0193 13.7949 47.6333 13.9357 47.2886 14.2133C46.943 14.4933 46.7169 14.8589 46.6111 15.3117C46.5579 15.5229 46.5312 15.6957 46.5312 15.8317V17.1117C46.5312 17.6701 46.704 18.1413 47.0496 18.5261C47.3951 18.9109 47.8441 19.1029 48.3963 19.1029C49.0447 19.1029 49.5493 18.8549 49.9102 18.3605C50.2719 17.8653 50.4528 17.2125 50.4528 16.4013Z" fill="white"/>
<path fill-rule="evenodd" clip-rule="evenodd" d="M61.1226 16.3391C61.1226 17.6447 60.7665 18.6767 60.0536 19.4343C59.4165 20.1087 58.6244 20.4455 57.679 20.4455C56.6584 20.4455 55.9253 20.0823 55.4796 19.3559H55.4473V23.3999H53.7259V15.1223C53.7259 14.3015 53.7041 13.4591 53.6621 12.5951H55.176L55.2721 13.8119H55.3044C55.8776 12.8951 56.7488 12.4375 57.9188 12.4375C58.8319 12.4375 59.5949 12.7951 60.207 13.5111C60.8166 14.2279 61.1226 15.1703 61.1226 16.3391ZM59.3684 16.4023C59.3684 15.6551 59.198 15.0391 58.8573 14.5543C58.4851 14.0487 57.9869 13.7959 57.3596 13.7959C56.9341 13.7959 56.5489 13.9367 56.2033 14.2143C55.8578 14.4943 55.6325 14.8599 55.5267 15.3127C55.4743 15.5239 55.4468 15.6967 55.4468 15.8327V17.1127C55.4468 17.6711 55.6196 18.1423 55.9635 18.5271C56.3091 18.9111 56.758 19.1039 57.3119 19.1039C57.9603 19.1039 58.4649 18.8559 58.8258 18.3615C59.1875 17.8663 59.3684 17.2135 59.3684 16.4023Z" fill="white"/>
<path fill-rule="evenodd" clip-rule="evenodd" d="M71.0849 17.2865C71.0849 18.1921 70.7676 18.9289 70.1305 19.4977C69.4305 20.1193 68.456 20.4297 67.2037 20.4297C66.0475 20.4297 65.1206 20.2089 64.4189 19.7665L64.8178 18.3449C65.5735 18.7977 66.4027 19.0249 67.3062 19.0249C67.9546 19.0249 68.4592 18.8793 68.8217 18.5897C69.1826 18.3001 69.3627 17.9113 69.3627 17.4265C69.3627 16.9945 69.2141 16.6305 68.9162 16.3353C68.6199 16.0401 68.1249 15.7657 67.4338 15.5121C65.5525 14.8169 64.6127 13.7985 64.6127 12.4593C64.6127 11.5841 64.9421 10.8665 65.6018 10.3081C66.259 9.74893 67.1359 9.46973 68.2323 9.46973C69.2101 9.46973 70.0224 9.63853 70.6707 9.97533L70.2404 11.3657C69.6348 11.0393 68.9501 10.8761 68.1839 10.8761C67.5783 10.8761 67.1052 11.0241 66.7661 11.3185C66.4794 11.5817 66.3357 11.9025 66.3357 12.2825C66.3357 12.7033 66.4996 13.0513 66.8291 13.3249C67.1157 13.5777 67.6365 13.8513 68.3922 14.1465C69.3167 14.5153 69.9957 14.9465 70.4325 15.4409C70.8677 15.9337 71.0849 16.5505 71.0849 17.2865Z" fill="white"/>
<path fill-rule="evenodd" clip-rule="evenodd" d="M76.7761 13.8754H74.8787V17.6026C74.8787 18.5506 75.213 19.0242 75.8831 19.0242C76.1907 19.0242 76.4459 18.9978 76.6477 18.945L76.6954 20.2402C76.3563 20.3658 75.9098 20.429 75.3567 20.429C74.6768 20.429 74.1456 20.2234 73.7621 19.813C73.3802 19.4018 73.188 18.7122 73.188 17.7434V13.8738H72.0576V12.5938H73.188V11.1882L74.8787 10.6826V12.5938H76.7761V13.8754Z" fill="white"/>
<path fill-rule="evenodd" clip-rule="evenodd" d="M85.3369 16.3705C85.3369 17.5505 84.9961 18.5193 84.3163 19.2769C83.6034 20.0569 82.6571 20.4457 81.4775 20.4457C80.3406 20.4457 79.4355 20.0721 78.7605 19.3249C78.0855 18.5777 77.748 17.6345 77.748 16.4977C77.748 15.3081 78.0952 14.3337 78.792 13.5761C79.4872 12.8177 80.4254 12.4385 81.605 12.4385C82.7419 12.4385 83.6567 12.8121 84.347 13.5601C85.0074 14.2857 85.3369 15.2225 85.3369 16.3705ZM83.5519 16.4254C83.5519 15.7174 83.3993 15.1102 83.0901 14.6038C82.7291 13.991 82.2132 13.6854 81.5447 13.6854C80.8527 13.6854 80.3271 13.9918 79.9662 14.6038C79.657 15.111 79.5044 15.7278 79.5044 16.4574C79.5044 17.1654 79.657 17.7726 79.9662 18.2782C80.3384 18.891 80.8584 19.1966 81.5293 19.1966C82.1866 19.1966 82.7025 18.8846 83.0747 18.2622C83.392 17.7462 83.5519 17.1326 83.5519 16.4254Z" fill="white"/>
<path fill-rule="evenodd" clip-rule="evenodd" d="M90.9323 14.0951C90.762 14.0639 90.5803 14.0479 90.3898 14.0479C89.7842 14.0479 89.3159 14.2743 88.9865 14.7279C88.6999 15.1279 88.5561 15.6335 88.5561 16.2439V20.2719H86.8356L86.8517 15.0127C86.8517 14.1279 86.8299 13.3223 86.7871 12.5959H88.2865L88.3494 14.0647H88.3971C88.5787 13.5599 88.8654 13.1535 89.2578 12.8487C89.6413 12.5743 90.0555 12.4375 90.502 12.4375C90.661 12.4375 90.8048 12.4487 90.9323 12.4687V14.0951Z" fill="white"/>
<path fill-rule="evenodd" clip-rule="evenodd" d="M98.6297 16.071C98.6297 16.3766 98.6095 16.6342 98.5667 16.8446H93.4026C93.4227 17.603 93.6722 18.183 94.1518 18.583C94.587 18.9406 95.1498 19.1198 95.8409 19.1198C96.6055 19.1198 97.3031 18.999 97.9305 18.7566L98.2002 19.9406C97.467 20.2574 96.6015 20.415 95.6027 20.415C94.4013 20.415 93.4583 20.0646 92.772 19.3646C92.0873 18.6646 91.7441 17.7246 91.7441 16.5454C91.7441 15.3878 92.0631 14.4238 92.7017 13.655C93.3703 12.8342 94.2737 12.4238 95.4106 12.4238C96.5272 12.4238 97.3726 12.8342 97.9466 13.655C98.4012 14.307 98.6297 15.1134 98.6297 16.071ZM96.9888 15.628C97.0001 15.1224 96.8879 14.6856 96.6546 14.3168C96.3566 13.8424 95.8988 13.6056 95.2828 13.6056C94.72 13.6056 94.2622 13.8368 93.9126 14.3008C93.626 14.6696 93.4556 15.112 93.4031 15.6272H96.9888V15.628Z" fill="white"/>
</svg>
