<svg width="50" height="50" viewBox="0 0 50 50" fill="none" xmlns="http://www.w3.org/2000/svg">
<path d="M49.4687 25.5622C49.4687 23.9163 49.3229 22.3538 49.0729 20.833H25.5312V30.2288H39.0104C38.4062 33.3122 36.6354 35.9163 34.0104 37.6872V43.9372H42.0521C46.7604 39.583 49.4687 33.1663 49.4687 25.5622Z" fill="#4285F4"/>
<path d="M25.5312 49.9997C32.2812 49.9997 37.9271 47.7497 42.0521 43.9372L34.0104 37.6872C31.7604 39.1872 28.9062 40.1038 25.5312 40.1038C19.0104 40.1038 13.4896 35.708 11.5104 29.7705H3.21875V36.208C7.32292 44.3747 15.7604 49.9997 25.5312 49.9997Z" fill="#34A853"/>
<path d="M11.5104 29.7712C10.9896 28.2712 10.7187 26.667 10.7187 25.0003C10.7187 23.3337 11.0104 21.7295 11.5104 20.2295V13.792H3.21875C1.51041 17.167 0.53125 20.9587 0.53125 25.0003C0.53125 29.042 1.51041 32.8337 3.21875 36.2087L11.5104 29.7712Z" fill="#FBBC05"/>
<path d="M25.5312 9.89583C29.2187 9.89583 32.5104 11.1667 35.1146 13.6458L42.2396 6.52084C37.9271 2.47917 32.2812 0 25.5312 0C15.7604 0 7.32292 5.62501 3.21875 13.7917L11.5104 20.2292C13.4896 14.2917 19.0104 9.89583 25.5312 9.89583Z" fill="#EA4335"/>
</svg>
