<svg width="20" height="20" viewBox="0 0 20 20" fill="none" xmlns="http://www.w3.org/2000/svg">
<path d="M13.6438 5.65906C13.6438 7.81535 11.8919 9.53492 9.76795 9.53492C7.64405 9.53492 5.89209 7.81535 5.89209 5.65906C5.89209 3.50277 7.64405 1.7832 9.76795 1.7832C11.8919 1.7832 13.6438 3.50277 13.6438 5.65906Z" fill="#FD4A6C" stroke="#FD4A6C"/>
<path d="M10.7079 12.7258L11.0615 13.0793L10.7079 12.7258L9.76773 13.6659L8.82755 12.7258C8.32788 12.2261 7.55469 12.2261 7.05502 12.7258C6.55535 13.2254 6.55535 13.9986 7.05502 14.4983L7.9952 15.4385L7.05502 16.3786C6.55535 16.8783 6.55535 17.6515 7.05502 18.1512C7.298 18.3942 7.61425 18.5259 7.94129 18.5259C8.26832 18.5259 8.58457 18.3942 8.82755 18.1512L9.76773 17.211L10.7079 18.1512C10.9509 18.3942 11.2671 18.5259 11.5942 18.5259C11.9212 18.5259 12.2375 18.3942 12.4804 18.1512C12.9801 17.6515 12.9801 16.8783 12.4804 16.3786L11.5403 15.4385L12.4804 14.4983L12.1269 14.1447L12.4804 14.4983C12.9801 13.9986 12.9801 13.2254 12.4804 12.7258L12.14 13.0662L12.4804 12.7258C11.9808 12.2261 11.2076 12.2261 10.7079 12.7258ZM3 18.4064C3 14.6906 6.0451 11.6768 9.76773 11.6768C13.4904 11.6768 16.5355 14.6906 16.5355 18.4064C16.5355 18.5489 16.4169 18.6675 16.2744 18.6675H3.26102C3.1186 18.6675 3 18.5489 3 18.4064Z" fill="#FD4A6C" stroke="#FD4A6C"/>
</svg>
