<svg width="16" height="16" viewBox="0 0 16 16" fill="none" xmlns="http://www.w3.org/2000/svg">
<path d="M9.79912 8.00014L15.2861 2.52614C15.4051 2.40717 15.4995 2.26592 15.5639 2.11047C15.6283 1.95502 15.6614 1.7884 15.6614 1.62014C15.6614 1.45189 15.6283 1.28527 15.5639 1.12982C15.4995 0.97437 15.4051 0.833122 15.2861 0.714145C15.1671 0.595167 15.0259 0.500789 14.8704 0.436399C14.715 0.372009 14.5484 0.338867 14.3801 0.338867C14.2119 0.338867 14.0452 0.372009 13.8898 0.436399C13.7343 0.500789 13.5931 0.595167 13.4741 0.714145L8.00012 6.20114L2.52612 0.714145C2.28495 0.478299 1.96048 0.3471 1.62316 0.349031C1.28584 0.350962 0.962897 0.485866 0.724438 0.724456C0.485979 0.963047 0.351253 1.28607 0.349509 1.62339C0.347764 1.96071 0.479143 2.2851 0.715121 2.52614L6.20212 8.00014L0.715121 13.4741C0.474835 13.7144 0.339844 14.0403 0.339844 14.3801C0.339844 14.72 0.474835 15.0459 0.715121 15.2861C0.955407 15.5264 1.28131 15.6614 1.62112 15.6614C1.96094 15.6614 2.28683 15.5264 2.52712 15.2861L8.00112 9.79914L13.4751 15.2861C13.5941 15.4051 13.7353 15.4995 13.8908 15.5639C14.0462 15.6283 14.2129 15.6614 14.3811 15.6614C14.5494 15.6614 14.716 15.6283 14.8714 15.5639C15.0269 15.4995 15.1681 15.4051 15.2871 15.2861C15.4061 15.1672 15.5005 15.0259 15.5649 14.8705C15.6293 14.715 15.6624 14.5484 15.6624 14.3801C15.6624 14.2119 15.6293 14.0453 15.5649 13.8898C15.5005 13.7344 15.4061 13.5931 15.2871 13.4741L9.79912 8.00014Z" fill="#333435"/>
</svg>
