<svg width="18" height="18" viewBox="0 0 18 18" fill="none" xmlns="http://www.w3.org/2000/svg">
<path d="M5.83301 13.9993C4.91634 13.9993 4.17467 14.7493 4.17467 15.666C4.17467 16.5827 4.91634 17.3327 5.83301 17.3327C6.74967 17.3327 7.49967 16.5827 7.49967 15.666C7.49967 14.7493 6.74967 13.9993 5.83301 13.9993ZM0.833008 0.666016V2.33268H2.49967L5.49967 8.65768L4.37467 10.6993C4.24134 10.9327 4.16634 11.2077 4.16634 11.4993C4.16634 12.416 4.91634 13.166 5.83301 13.166H15.833V11.4993H6.18301C6.06634 11.4993 5.97467 11.4077 5.97467 11.291L5.99967 11.191L6.74967 9.83268H12.958C13.583 9.83268 14.133 9.49102 14.4163 8.97435L17.3997 3.56602C17.4663 3.44935 17.4997 3.30768 17.4997 3.16602C17.4997 2.70768 17.1247 2.33268 16.6663 2.33268H4.34134L3.55801 0.666016H0.833008ZM14.1663 13.9993C13.2497 13.9993 12.508 14.7493 12.508 15.666C12.508 16.5827 13.2497 17.3327 14.1663 17.3327C15.083 17.3327 15.833 16.5827 15.833 15.666C15.833 14.7493 15.083 13.9993 14.1663 13.9993Z" fill="#A7A39C"/>
</svg>
