<svg width="17" height="16" viewBox="0 0 17 16" fill="none" xmlns="http://www.w3.org/2000/svg">
<path d="M3.09475 15.4039C2.97409 15.3171 2.88033 15.1981 2.82426 15.0605C2.76819 14.9229 2.75207 14.7723 2.77775 14.6259L3.57775 10.1749L0.286749 7.00988C0.183948 6.90872 0.110925 6.78125 0.0756536 6.6414C0.0403825 6.50155 0.0442207 6.3547 0.0867487 6.21688C0.134127 6.07614 0.219742 5.95137 0.334011 5.85653C0.448279 5.76169 0.58669 5.70052 0.733749 5.67988L5.28875 5.01988L7.29375 0.965883C7.35936 0.830895 7.46163 0.717088 7.58886 0.637468C7.71609 0.557848 7.86316 0.515625 8.01325 0.515625C8.16334 0.515625 8.3104 0.557848 8.43763 0.637468C8.56487 0.717088 8.66713 0.830895 8.73275 0.965883L10.7637 5.01988L15.3187 5.67588C15.4661 5.69643 15.6048 5.75767 15.7193 5.85271C15.8337 5.94774 15.9194 6.07282 15.9667 6.21388C16.0091 6.35156 16.0128 6.49821 15.9775 6.63786C15.9423 6.77751 15.8694 6.90481 15.7667 7.00588L12.4727 10.1659L13.2727 14.6199C13.301 14.7684 13.2859 14.9219 13.2291 15.062C13.1724 15.2021 13.0764 15.3229 12.9527 15.4099C12.8064 15.5113 12.6306 15.5616 12.4527 15.5529C12.3254 15.5536 12.1998 15.5234 12.0867 15.4649L8.01375 13.3529L3.93875 15.4649C3.80633 15.5336 3.65744 15.5643 3.50862 15.5536C3.35981 15.5428 3.21689 15.491 3.09575 15.4039H3.09475Z" fill="#BEBAB5"/>
</svg>
