<svg width="28" height="26" viewBox="0 0 28 26" fill="none" xmlns="http://www.w3.org/2000/svg">
<path d="M21.9293 15.7812C21.5847 16.1057 21.4264 16.575 21.5049 17.0353L22.6876 23.396C22.7874 23.9351 22.5533 24.4807 22.0889 24.7922C21.6339 25.1155 21.0286 25.1542 20.5323 24.8957L14.6397 21.9092C14.4349 21.8032 14.2073 21.7463 13.9745 21.7399H13.614C13.4889 21.758 13.3665 21.7968 13.2547 21.8562L7.36085 24.8569C7.06948 24.9991 6.73953 25.0495 6.41623 24.9991C5.6286 24.8543 5.10307 24.1252 5.23212 23.3559L6.41623 16.9952C6.49472 16.5311 6.3364 16.0592 5.99181 15.7295L1.18755 11.2046C0.785757 10.8258 0.64606 10.257 0.829662 9.74372C1.00794 9.23176 1.46296 8.85814 2.01243 8.7741L8.62478 7.84197C9.12769 7.79155 9.5694 7.4942 9.79557 7.05464L12.7093 1.24984C12.7784 1.12056 12.8676 1.00162 12.9754 0.900777L13.0951 0.810279C13.1576 0.743052 13.2295 0.68746 13.3093 0.642211L13.4543 0.590498L13.6805 0.5H14.2406C14.7409 0.55042 15.1812 0.841307 15.4114 1.2757L18.3637 7.05464C18.5766 7.4774 18.9903 7.77087 19.468 7.84197L26.0803 8.7741C26.6391 8.85167 27.1061 9.22659 27.291 9.74372C27.4653 10.2621 27.315 10.831 26.9052 11.2046L21.9293 15.7812Z" fill="#FAB144"/>
</svg>
