<svg width="15" height="15" viewBox="0 0 15 15" fill="none" xmlns="http://www.w3.org/2000/svg">
<path d="M9.26299 14.8939H9.21599C9.04325 14.8834 8.87881 14.8162 8.74824 14.7026C8.61767 14.589 8.52829 14.4355 8.49399 14.2659L7.28599 8.32588C7.25519 8.17511 7.18076 8.03672 7.07195 7.92791C6.96314 7.8191 6.82476 7.74467 6.67399 7.71388L0.73399 6.50588C0.564454 6.47172 0.41094 6.38254 0.297294 6.25219C0.183647 6.12183 0.11623 5.95759 0.105513 5.78498C0.0947963 5.61237 0.14138 5.44105 0.238029 5.29764C0.334677 5.15422 0.47598 5.04674 0.63999 4.99188L13.194 0.809876C13.3353 0.751288 13.4906 0.735249 13.6409 0.763731C13.7911 0.792212 13.9298 0.863973 14.0399 0.970195C14.1499 1.07642 14.2265 1.21247 14.2603 1.36165C14.2941 1.51082 14.2835 1.66661 14.23 1.80988L10.047 14.3609C9.99228 14.523 9.88607 14.6629 9.74454 14.7591C9.603 14.8553 9.43391 14.9026 9.26299 14.8939Z" fill="#A7A39C"/>
</svg>
