<svg width="20" height="20" viewBox="0 0 20 20" fill="none" xmlns="http://www.w3.org/2000/svg">
<path d="M10 20C11.9778 20 13.9112 19.4135 15.5557 18.3147C17.2002 17.2159 18.4819 15.6541 19.2388 13.8268C19.9957 11.9996 20.1937 9.98891 19.8079 8.0491C19.422 6.10929 18.4696 4.32746 17.0711 2.92894C15.6725 1.53041 13.8907 0.578004 11.9509 0.192152C10.0111 -0.193701 8.00043 0.00433284 6.17317 0.761209C4.3459 1.51809 2.78412 2.79981 1.6853 4.4443C0.58649 6.08879 0 8.02219 0 10C0 12.6522 1.05357 15.1957 2.92893 17.0711C3.85752 17.9997 4.95991 18.7363 6.17317 19.2388C7.38642 19.7413 8.68678 20 10 20ZM6.31 8.14001L9.31 5.28C9.35338 5.23768 9.40425 5.20377 9.46 5.18C9.50705 5.13754 9.56121 5.10369 9.62 5.08C9.7397 5.0271 9.86913 4.99977 10 4.99977C10.1309 4.99977 10.2603 5.0271 10.38 5.08C10.5028 5.1276 10.6149 5.19896 10.71 5.29L13.71 8.29C13.8983 8.47831 14.0041 8.7337 14.0041 9C14.0041 9.26631 13.8983 9.5217 13.71 9.71C13.5217 9.89831 13.2663 10.0041 13 10.0041C12.7337 10.0041 12.4783 9.89831 12.29 9.71L11 8.41V14C11 14.2652 10.8946 14.5196 10.7071 14.7071C10.5196 14.8946 10.2652 15 10 15C9.73478 15 9.48043 14.8946 9.29289 14.7071C9.10536 14.5196 9 14.2652 9 14V8.34L7.69 9.59C7.49772 9.773 7.24062 9.87212 6.97525 9.86556C6.70989 9.859 6.458 9.74729 6.275 9.55501C6.092 9.36272 5.99288 9.10562 5.99944 8.84026C6.00601 8.57489 6.11772 8.323 6.31 8.14001Z" fill="white"/>
</svg>
