<svg width="17" height="17" viewBox="0 0 17 17" fill="none" xmlns="http://www.w3.org/2000/svg">
<path d="M4.85469 1.45068C5.18087 1.45068 5.48142 1.62759 5.63978 1.9128L6.73816 3.89137C6.88197 4.15043 6.88875 4.46377 6.75621 4.7288L5.69805 6.84516C5.69805 6.84516 6.00471 8.42171 7.28807 9.70507C8.57148 10.9884 10.1427 11.2898 10.1427 11.2898L12.2587 10.2318C12.5239 10.0992 12.8375 10.1061 13.0967 10.2501L15.0808 11.3533C15.3658 11.5117 15.5425 11.8121 15.5425 12.1381V14.416C15.5425 15.576 14.465 16.4139 13.3659 16.043C11.1084 15.2813 7.60424 13.831 5.38323 11.6099C3.16222 9.3889 1.71189 5.88475 0.950179 3.62732C0.579313 2.52818 1.41715 1.45068 2.57715 1.45068H4.85469Z" fill="#00D9B2" stroke="#00D9B2" stroke-width="0.96" stroke-linejoin="round"/>
</svg>
