<svg width="23" height="22" viewBox="0 0 23 22" fill="none" xmlns="http://www.w3.org/2000/svg">
<path d="M15.4019 8.43271C15.2285 5.81104 14.286 3.24354 12.5419 1.10937C12.0977 0.567708 11.2852 0.567708 10.841 1.10937C9.05352 3.25437 8.05685 5.82187 7.84019 8.43271C9.22685 9.16937 10.5052 10.1227 11.621 11.2819C12.7369 10.1335 14.0152 9.18021 15.4019 8.43271V8.43271ZM8.36018 11.3035C8.20852 11.1952 8.03518 11.0977 7.87268 10.9894C8.03518 11.1085 8.20852 11.1952 8.36018 11.3035ZM15.3152 11.0327C15.1744 11.1302 15.0227 11.206 14.8819 11.3144C15.0227 11.206 15.1744 11.1302 15.3152 11.0327ZM11.621 14.7377C9.50852 11.5202 6.05268 9.28854 2.05518 8.89854C1.36185 8.83354 0.787684 9.40771 0.852684 10.101C1.34018 15.301 4.80685 19.6127 9.49768 21.2919C10.1802 21.541 10.8952 21.7252 11.6319 21.8444C12.3685 21.7144 13.0727 21.5302 13.766 21.2919C18.4569 19.6127 21.9235 15.3119 22.411 10.101C22.476 9.40771 21.891 8.83354 21.2085 8.89854C17.1894 9.28854 13.7335 11.5202 11.621 14.7377V14.7377Z" fill="white"/>
</svg>
