<svg width="24" height="24" viewBox="0 0 24 24" fill="none" xmlns="http://www.w3.org/2000/svg">
<path d="M13.12 0.593255C13.1572 1.24081 13.1992 1.97489 12.9381 2.32098C12.7726 2.54058 12.5029 2.83564 12.1514 3.16428C11.9415 3.36051 11.6228 3.37317 11.3856 3.21099C10.5982 2.67262 9.86013 2.2282 9.21789 1.87175C8.73737 1.60505 8.7821 0.900124 9.31658 0.772209C10.1788 0.565851 11.0785 0.456055 12.004 0.456055C12.3507 0.456055 12.6937 0.472574 13.0328 0.502698C13.0804 0.506925 13.1176 0.545547 13.12 0.593255Z" fill="#F47951"/>
<path d="M18.0789 9.01177C18.2987 8.97085 18.5344 8.93645 18.7878 8.90783C20.3637 8.72907 22.0677 10.6648 23.3877 12.2785C23.4841 12.3963 23.5342 12.5453 23.5251 12.6972C23.3837 15.0698 22.5262 17.2488 21.1652 19.0218C20.8353 19.4515 20.183 19.2204 20.1259 18.6816C19.8375 15.9611 19.1306 12.678 17.6967 9.87631C17.5154 9.52207 17.6877 9.08461 18.0789 9.01177Z" fill="#F47951"/>
<path d="M7.12495 5.95138C8.18839 5.73009 9.20218 5.26659 10.0841 4.73005C10.4551 4.50434 10.4513 3.97775 10.0857 3.74346C8.59716 2.78968 7.36313 2.20485 6.79495 1.95465C6.62345 1.87914 6.42671 1.88931 6.26422 1.98264C4.59372 2.94211 3.1875 4.30804 2.17761 5.94495C1.88312 6.42226 2.37817 6.97004 2.91935 6.82281C3.83691 6.57318 4.78129 6.39691 5.7147 6.22361L5.71893 6.22282C6.18293 6.13664 6.66251 6.04757 7.12495 5.95138Z" fill="#F47951"/>
<path d="M15.4709 6.66444C15.2847 6.46871 15.3207 6.14993 15.5521 6.01066C16.5313 5.42143 17.3514 5.01837 17.8925 4.85675C18.7199 4.60984 19.5338 4.44866 20.2822 4.34479C20.4843 4.31674 20.687 4.39275 20.8188 4.54853C21.8064 5.71607 22.5656 7.08239 23.0287 8.57906C23.2108 9.16741 22.4937 9.5206 22.0283 9.11723C21.0008 8.22676 19.8742 7.62292 18.6569 7.76062C18.0974 7.82386 17.6051 7.91847 17.1683 8.04473C16.8916 8.12472 16.5894 8.03085 16.4184 7.79904C16.1239 7.39985 15.8092 7.01962 15.4709 6.66444Z" fill="#F47951"/>
<path d="M13.5856 12.2485C13.9824 10.9044 14.4319 9.87472 15.1927 9.13481C15.439 8.89525 15.513 8.50956 15.3024 8.23807C15.0909 7.96536 14.8692 7.70534 14.6362 7.46077C14.5836 7.40555 14.5309 7.35092 14.478 7.29677C14.2698 7.08365 13.9383 7.05448 13.6944 7.22555C9.56611 10.1207 4.22461 15.103 3.52087 19.5036C3.4923 19.6822 3.55157 19.862 3.67684 19.9925C5.33159 21.716 7.5164 22.9251 9.9692 23.3615C10.2326 23.4083 10.4932 23.2713 10.6015 23.0266C11.5239 20.9428 12.377 17.2741 12.8976 15.034L12.8997 15.0252C13.1661 13.8793 13.3961 12.8901 13.5856 12.2485Z" fill="#F47951"/>
<path d="M12.5894 6.58041C11.3389 7.47908 10.0152 8.54118 8.75173 9.70548C6.59524 11.6926 4.1229 14.4174 2.96003 17.2936C2.75924 17.7903 2.06862 17.8986 1.81619 17.4261C0.952013 15.8086 0.460938 13.9618 0.460938 11.9997C0.460938 10.994 0.592344 10.0194 0.834472 9.08953C0.876222 8.92919 0.983165 8.79347 1.13049 8.71766C2.54721 7.98862 4.20387 7.67838 5.92598 7.35858C6.39713 7.27111 6.88449 7.18058 7.36041 7.08154C8.88394 6.76467 10.2964 6.02232 11.4317 5.22619C11.6605 5.06575 11.9677 5.06476 12.1871 5.23789C12.3362 5.35555 12.4858 5.47641 12.6358 5.6005C12.9489 5.85959 12.9194 6.34324 12.5894 6.58041Z" fill="#F47951"/>
<path d="M13.8811 5.14293C14.0934 5.32876 14.4026 5.35518 14.6428 5.20731C15.8431 4.46859 16.8716 3.95738 17.5632 3.75096C17.8037 3.67914 18.0426 3.61412 18.2789 3.55525C18.7907 3.42777 18.9621 2.77669 18.5274 2.47805C17.4844 1.76151 16.3181 1.21168 15.0663 0.867879C14.6723 0.759697 14.3118 1.0797 14.3002 1.48804C14.2844 2.04184 14.1863 2.58379 13.8602 3.01627C13.7205 3.20138 13.5222 3.42817 13.2748 3.6793C13.0013 3.95688 13.0159 4.41468 13.3164 4.66279C13.5042 4.81783 13.6926 4.97786 13.8811 5.14293Z" fill="#F47951"/>
<path d="M14.0217 15.2952C14.2847 14.1634 14.5121 13.1859 14.6923 12.5754C15.0026 11.5246 15.314 10.7554 15.7778 10.1958C16.0165 9.90769 16.4503 9.99698 16.6217 10.3296C18.2987 13.5838 19.0099 17.7041 19.1213 20.7649C19.1285 20.9617 19.0402 21.1502 18.8822 21.2676C16.9611 22.6959 14.5825 23.5433 12.0046 23.5433C11.8283 23.5433 11.714 23.3571 11.7824 23.1946C12.5874 21.2822 13.2897 18.4448 14.0217 15.2952Z" fill="#F47951"/>
</svg>
