<svg width="32" height="32" viewBox="0 0 32 32" fill="none" xmlns="http://www.w3.org/2000/svg">
<path d="M16 32C24.8366 32 32 24.8366 32 16C32 7.16344 24.8366 0 16 0C7.16344 0 0 7.16344 0 16C0 24.8366 7.16344 32 16 32Z" fill="#094EBB"/>
<path fill-rule="evenodd" clip-rule="evenodd" d="M19.8462 15.7108H17.5228C17.5228 19.5593 17.5228 24.2965 17.5228 24.2965H14.0799C14.0799 24.2965 14.0799 19.6053 14.0799 15.7108H12.4434V12.6763H14.0799V10.7136C14.0799 9.30789 14.7242 7.11133 17.5544 7.11133L20.1056 7.12147V10.0671C20.1056 10.0671 18.5554 10.0671 18.2539 10.0671C17.9525 10.0671 17.5239 10.2233 17.5239 10.8937V12.6769H20.1471L19.8462 15.7108Z" fill="white"/>
</svg>
