<svg width="22" height="20" viewBox="0 0 22 20" fill="none" xmlns="http://www.w3.org/2000/svg">
<path d="M20.6046 16.8276L15.3273 11.5503L13.0625 13.8151L18.3398 19.0924C18.9701 19.7227 19.985 19.7227 20.6046 19.0924C21.2242 18.4621 21.2242 17.4472 20.6046 16.8276Z" fill="white"/>
<path d="M17.0363 8.29185C19.0981 8.29185 20.7753 6.61464 20.7753 4.55285C20.7753 3.93325 20.6044 3.35638 20.3373 2.8436L17.4529 5.72797L15.8612 4.13622L18.7455 1.25186C18.2328 0.984788 17.6559 0.813862 17.0363 0.813862C14.9745 0.813862 13.2973 2.49107 13.2973 4.55285C13.2973 4.99085 13.3828 5.40748 13.5216 5.79206L11.5453 7.76839L9.64377 5.86684C10.0604 5.45021 10.0604 4.77719 9.64377 4.36056L8.88529 3.60208L11.1501 1.33732C9.90016 0.0874294 7.87042 0.0874294 6.62053 1.33732L3.60797 4.36056C3.19134 4.77719 3.19134 5.45021 3.60797 5.86684L4.36645 6.62532H1.65301C1.45004 6.62532 1.25775 6.7001 1.11887 6.84966C0.819751 7.14878 0.819751 7.61883 1.11887 7.91795L3.83231 10.6314C4.13143 10.9305 4.60147 10.9305 4.90059 10.6314C5.03947 10.4925 5.12493 10.3002 5.12493 10.0972V7.3838L5.87273 8.1316C6.28936 8.54823 6.96238 8.54823 7.37901 8.1316L9.28056 10.0331L2.49696 16.8167C1.86667 17.447 1.86667 18.4619 2.49696 19.0815C3.12724 19.7118 4.14211 19.7118 4.76172 19.0815L15.7864 8.06751C16.1817 8.20638 16.5983 8.29185 17.0363 8.29185Z" fill="white"/>
</svg>
