<svg width="22" height="22" viewBox="0 0 22 22" fill="none" xmlns="http://www.w3.org/2000/svg">
<path d="M14.7808 8.43271C14.6074 5.81104 13.6649 3.24354 11.9208 1.10937C11.4766 0.567708 10.6641 0.567708 10.2199 1.10937C8.43242 3.25437 7.43576 5.82187 7.21909 8.43271C8.60576 9.16937 9.88409 10.1227 10.9999 11.2819C12.1158 10.1335 13.3941 9.18021 14.7808 8.43271V8.43271ZM7.73909 11.3035C7.58742 11.1952 7.41409 11.0977 7.25159 10.9894C7.41409 11.1085 7.58742 11.1952 7.73909 11.3035ZM14.6941 11.0327C14.5533 11.1302 14.4016 11.206 14.2608 11.3144C14.4016 11.206 14.5533 11.1302 14.6941 11.0327ZM10.9999 14.7377C8.88742 11.5202 5.43159 9.28854 1.43409 8.89854C0.740758 8.83354 0.166591 9.40771 0.231591 10.101C0.719091 15.301 4.18576 19.6127 8.87659 21.2919C9.55909 21.541 10.2741 21.7252 11.0108 21.8444C11.7474 21.7144 12.4516 21.5302 13.1449 21.2919C17.8358 19.6127 21.3024 15.3119 21.7899 10.101C21.8549 9.40771 21.2699 8.83354 20.5874 8.89854C16.5683 9.28854 13.1124 11.5202 10.9999 14.7377V14.7377Z" fill="#E867CB"/>
</svg>
