<svg width="20" height="20" viewBox="0 0 20 20" fill="none" xmlns="http://www.w3.org/2000/svg">
<path d="M10 11.25C10.6904 11.25 11.25 10.6904 11.25 10C11.25 9.30964 10.6904 8.75 10 8.75C9.30964 8.75 8.75 9.30964 8.75 10C8.75 10.6904 9.30964 11.25 10 11.25Z" fill="#BEBAB5"/>
<path d="M18.7839 9.55543C18.2149 8.57043 15.0819 3.60943 9.75992 3.77043C4.83792 3.89543 1.98992 8.22043 1.21592 9.55543C1.1378 9.69073 1.09668 9.8442 1.09668 10.0004C1.09668 10.1567 1.1378 10.3101 1.21592 10.4454C1.77692 11.4154 4.77592 16.2304 10.0159 16.2304H10.2389C15.1609 16.1054 18.0179 11.7804 18.7829 10.4454C18.8612 10.3102 18.9025 10.1568 18.9027 10.0006C18.9028 9.84434 18.8619 9.69082 18.7839 9.55543ZM9.99992 13.1154C9.38383 13.1154 8.78157 12.9327 8.26932 12.5905C7.75706 12.2482 7.3578 11.7617 7.12203 11.1925C6.88627 10.6233 6.82458 9.99698 6.94477 9.39273C7.06496 8.78848 7.36164 8.23344 7.79728 7.7978C8.23292 7.36216 8.78796 7.06548 9.39221 6.94529C9.99646 6.82509 10.6228 6.88678 11.192 7.12255C11.7612 7.35832 12.2477 7.75757 12.5899 8.26983C12.9322 8.78209 13.1149 9.38434 13.1149 10.0004C13.1149 10.4095 13.0343 10.8146 12.8778 11.1925C12.7213 11.5704 12.4918 11.9138 12.2026 12.2031C11.9133 12.4923 11.5699 12.7218 11.192 12.8783C10.814 13.0349 10.409 13.1154 9.99992 13.1154Z" fill="#BEBAB5"/>
</svg>
