<svg viewBox="0 0 18 19" fill="none" xmlns="http://www.w3.org/2000/svg">
<path d="M17.4411 10.5774C17.6788 10.3087 17.7997 9.95684 17.7774 9.5992C17.755 9.24155 17.5911 8.90742 17.3218 8.67031C16.8277 8.23645 16.0111 8.15107 15.6012 8.61551L12.9519 11.6186C12.8747 11.7061 12.7026 11.7543 12.6151 11.6774C12.5943 11.6591 12.5773 11.6369 12.5651 11.612C12.5529 11.5871 12.5457 11.5601 12.544 11.5325C12.5423 11.5049 12.546 11.4772 12.555 11.451C12.564 11.4248 12.5781 11.4007 12.5964 11.3799L17.1165 6.25841C17.2343 6.12569 17.3248 5.97109 17.3826 5.80346C17.4405 5.63584 17.4647 5.45847 17.4538 5.28151C17.4429 5.10455 17.3972 4.93146 17.3192 4.77216C17.2412 4.61285 17.1324 4.47045 16.9992 4.3531C16.4888 3.90488 15.6784 3.82553 15.2278 4.3362L10.6686 9.50254C10.6498 9.5242 10.627 9.54194 10.6014 9.55474C10.5757 9.56754 10.5478 9.57513 10.5192 9.5771C10.4906 9.57906 10.4619 9.57535 10.4347 9.56617C10.4076 9.557 10.3825 9.54254 10.361 9.52365C10.3395 9.50475 10.3219 9.48178 10.3094 9.45607C10.2968 9.43037 10.2895 9.40243 10.2878 9.37388C10.2861 9.34533 10.2901 9.31673 10.2996 9.28974C10.3091 9.26274 10.3238 9.2379 10.343 9.21662L16.4105 2.33981C16.6497 2.07318 16.773 1.72264 16.7532 1.36531C16.7334 1.00798 16.5721 0.673141 16.3048 0.434444C16.0375 0.195748 15.6861 0.07275 15.3279 0.0925077C14.9697 0.112265 14.6341 0.273161 14.3948 0.539799L8.34573 7.39402C8.30715 7.43785 8.2527 7.4646 8.19435 7.4684C8.136 7.47219 8.07853 7.45273 8.03456 7.41427C8.01285 7.39515 7.99503 7.37188 7.9823 7.34592C7.96957 7.31997 7.9621 7.29176 7.96029 7.26293C7.95849 7.23409 7.9624 7.20518 7.9718 7.17785C7.9812 7.15052 7.9959 7.1253 8.01507 7.10364L8.33059 6.74612L8.33369 6.74318L8.3361 6.74099C8.60725 6.43414 9.15675 5.8124 9.76781 5.12101C10.9814 3.74783 12.4388 2.0985 12.4388 2.0985C12.8745 1.60481 12.7232 0.787857 12.2087 0.335881C12.0751 0.218804 11.9196 0.129135 11.7512 0.0719901C11.5828 0.0148459 11.4048 -0.00865263 11.2273 0.00283485C11.0498 0.0143223 10.8763 0.0605724 10.7167 0.138943C10.5572 0.217314 10.4146 0.32627 10.2973 0.459592L3.66838 7.97081C3.59713 8.05154 3.48075 8.0648 3.36941 7.96702C3.28573 7.89353 3.21432 7.74667 3.19786 7.48324L3.09377 5.81855C3.06629 5.38075 2.87682 4.99687 2.58225 4.73819C2.44298 4.61605 2.28065 4.5229 2.10479 4.46421C1.92893 4.40552 1.74308 4.38249 1.55817 4.39645C0.719478 4.45068 0.122944 5.13037 0.0561349 6.01489C-0.370221 11.6596 1.72613 14.9847 3.16361 16.5146C3.30959 16.6465 3.41961 16.7092 3.41961 16.6122L3.30144 16.3764C3.12418 16.1406 3.01026 15.7904 2.97063 15.6516C2.80969 15.0878 2.84117 14.608 2.86001 14.3209C2.86222 14.2872 2.86425 14.2562 2.86578 14.2281C2.90228 13.5561 3.40925 12.366 4.40552 11.5178C5.61488 10.4881 7.15956 10.1395 8.16204 10.1665C8.4808 10.1751 8.71466 10.2008 8.8828 10.2305C9.13909 10.2759 9.29337 10.4839 9.30952 10.7431C9.37027 11.718 9.18972 13.6137 8.75623 14.7658C8.4026 15.7056 7.72387 16.3907 7.30984 16.6703C6.89582 16.9499 5.99193 17.1396 5.49001 16.7558C4.75042 16.1903 4.88206 14.8106 5.62952 13.7022C6.18026 12.8855 6.82966 12.5088 7.21143 12.2874C7.45034 12.1488 7.58443 12.071 7.52394 11.9843C7.31392 11.8656 6.14775 12.2491 5.17529 13.3784C4.31326 14.3794 3.58989 16.8931 5.78308 18.1446C6.52114 18.5128 6.78892 18.5656 7.34166 18.6447C9.14937 18.8161 10.8243 18.0725 12.0631 16.6777L17.4411 10.5774Z"/>
</svg>
