<svg width="23" height="25" viewBox="0 0 23 25" fill="none" xmlns="http://www.w3.org/2000/svg">
<path d="M22.5514 13.9717C22.8485 13.6359 22.9997 13.1961 22.9717 12.749C22.9437 12.3019 22.7389 11.8843 22.4022 11.5879C21.7847 11.0456 20.7639 10.9388 20.2515 11.5194L16.9399 15.2732C16.8433 15.3826 16.6283 15.4429 16.5188 15.3468C16.4928 15.3239 16.4716 15.2961 16.4563 15.265C16.4411 15.2339 16.4321 15.2002 16.43 15.1656C16.4278 15.1311 16.4325 15.0965 16.4437 15.0638C16.455 15.031 16.4726 15.0008 16.4955 14.9749L22.1456 8.57302C22.2929 8.40711 22.4059 8.21386 22.4783 8.00433C22.5507 7.7948 22.5809 7.57309 22.5673 7.35189C22.5537 7.13068 22.4965 6.91433 22.399 6.7152C22.3015 6.51607 22.1656 6.33807 21.999 6.19138C21.361 5.6311 20.3481 5.53192 19.7847 6.17025L14.0857 12.6282C14.0623 12.6552 14.0337 12.6774 14.0017 12.6934C13.9697 12.7094 13.9347 12.7189 13.899 12.7214C13.8632 12.7238 13.8273 12.7192 13.7934 12.7077C13.7595 12.6962 13.7281 12.6782 13.7012 12.6546C13.6743 12.6309 13.6524 12.6022 13.6367 12.5701C13.621 12.538 13.6118 12.503 13.6097 12.4673C13.6076 12.4317 13.6127 12.3959 13.6245 12.3622C13.6364 12.3284 13.6548 12.2974 13.6787 12.2708L21.2631 3.67477C21.5622 3.34147 21.7163 2.90329 21.6915 2.45664C21.6668 2.00998 21.4652 1.59143 21.1311 1.29306C20.7969 0.994685 20.3577 0.840938 19.9099 0.865635C19.4622 0.890332 19.0426 1.09145 18.7435 1.42475L11.1822 9.99252C11.1339 10.0473 11.0659 10.0807 10.9929 10.0855C10.92 10.0902 10.8482 10.0659 10.7932 10.0178C10.7661 9.99394 10.7438 9.96484 10.7279 9.9324C10.712 9.89996 10.7026 9.86471 10.7004 9.82866C10.6981 9.79261 10.703 9.75647 10.7148 9.72231C10.7265 9.68815 10.7449 9.65663 10.7688 9.62955L11.1632 9.18265L11.1671 9.17898L11.1701 9.17623C11.5091 8.79267 12.1959 8.0155 12.9598 7.15126C14.4768 5.43479 16.2985 3.37313 16.2985 3.37313C16.8431 2.75601 16.654 1.73482 16.0109 1.16985C15.8438 1.02351 15.6495 0.911418 15.439 0.839988C15.2285 0.768557 15.006 0.739184 14.7841 0.753544C14.5623 0.767903 14.3454 0.825715 14.1459 0.923679C13.9464 1.02164 13.7683 1.15784 13.6216 1.32449L5.33548 10.7135C5.24642 10.8144 5.10094 10.831 4.96177 10.7088C4.85717 10.6169 4.76791 10.4333 4.74733 10.104L4.61722 8.02319C4.58286 7.47594 4.34602 6.99609 3.97781 6.67274C3.80373 6.52006 3.60081 6.40362 3.38099 6.33026C3.16116 6.25691 2.92886 6.22811 2.69772 6.24556C1.64935 6.31336 0.90368 7.16296 0.820169 8.26861C0.287224 15.3245 2.90766 19.4808 4.70452 21.3932C4.88698 21.5582 5.02451 21.6364 5.02451 21.5152L4.8768 21.2205C4.65522 20.9258 4.51283 20.488 4.46329 20.3145C4.26212 19.6098 4.30147 19.01 4.32502 18.6511C4.32777 18.6091 4.33032 18.5703 4.33223 18.5351C4.37785 17.6951 5.01157 16.2075 6.2569 15.1472C7.7686 13.8601 9.69945 13.4244 10.9525 13.4581C11.351 13.4689 11.6433 13.501 11.8535 13.5382C12.1739 13.5949 12.3667 13.8549 12.3869 14.1789C12.4628 15.3975 12.2372 17.7671 11.6953 19.2072C11.2532 20.382 10.4048 21.2384 9.88731 21.5879C9.36977 21.9374 8.23991 22.1745 7.61251 21.6947C6.68803 20.9879 6.85258 19.2632 7.7869 17.8777C8.47532 16.8569 9.28708 16.386 9.76429 16.1092C10.0629 15.936 10.2305 15.8388 10.1549 15.7303C9.8924 15.582 8.43468 16.0613 7.21911 17.4729C6.14157 18.7243 5.23736 21.8664 7.97885 23.4308C8.90143 23.891 9.23616 23.957 9.92707 24.0559C12.1867 24.2701 14.2804 23.3406 15.8289 21.5971L22.5514 13.9717Z" fill="#00D9B2"/>
</svg>
