<svg width="24" height="24" viewBox="0 0 24 24" fill="none" xmlns="http://www.w3.org/2000/svg">
<path d="M7.63919 14.3578C7.01919 14.0678 6.30919 13.9378 5.54919 14.0178C3.81919 14.2078 2.34919 15.5578 2.05919 17.2778C1.57919 20.0478 3.94919 22.4178 6.70919 21.9378C8.42919 21.6378 9.77919 20.1778 9.96919 18.4478C10.0492 17.6878 9.91919 16.9878 9.62919 16.3578L11.9992 13.9978L14.3592 16.3578C14.0692 16.9778 13.9392 17.6878 14.0192 18.4478C14.2092 20.1778 15.5592 21.6478 17.2792 21.9378C20.0492 22.4178 22.4092 20.0478 21.9292 17.2878C21.6292 15.5678 20.1692 14.2178 18.4392 14.0278C17.6792 13.9478 16.9792 14.0778 16.3492 14.3678L13.9992 11.9978L21.5892 4.40781C22.4792 3.51781 21.8492 1.99781 20.5892 1.99781H20.5792C20.2092 1.99781 19.8492 2.14781 19.5792 2.40781L7.63919 14.3578ZM7.99919 17.9978C7.99919 19.0978 7.10919 19.9978 5.99919 19.9978C4.88919 19.9978 3.99919 19.0978 3.99919 17.9978C3.99919 16.8978 4.88919 15.9978 5.99919 15.9978C7.10919 15.9978 7.99919 16.8978 7.99919 17.9978ZM19.9992 17.9978C19.9992 19.0978 19.1092 19.9978 17.9992 19.9978C16.8892 19.9978 15.9992 19.0978 15.9992 17.9978C15.9992 16.8978 16.8892 15.9978 17.9992 15.9978C19.1092 15.9978 19.9992 16.8978 19.9992 17.9978ZM12.4992 11.9978C12.4992 12.2778 12.2792 12.4978 11.9992 12.4978C11.7192 12.4978 11.4992 12.2778 11.4992 11.9978C11.4992 11.7178 11.7192 11.4978 11.9992 11.4978C12.2792 11.4978 12.4992 11.7178 12.4992 11.9978ZM2.40919 4.40781L8.99919 10.9978L10.9992 8.99781L4.40919 2.40781C4.14919 2.14781 3.78919 1.99781 3.40919 1.99781H3.39919C2.14919 1.99781 1.51919 3.51781 2.40919 4.40781Z" fill="#34C5BC"/>
</svg>
