<svg width="30" height="29" viewBox="0 0 30 29" fill="none" xmlns="http://www.w3.org/2000/svg">
<path d="M23.2225 28.0896C22.9861 28.0906 22.7529 28.0349 22.5425 27.9271L15.0062 23.9821L7.46997 27.9271C7.22527 28.0558 6.94937 28.1133 6.67364 28.0929C6.39791 28.0726 6.1334 27.9754 5.9102 27.8122C5.687 27.649 5.51406 27.4265 5.41105 27.1699C5.30803 26.9134 5.27908 26.633 5.32747 26.3608L6.80497 18.0408L0.71622 12.1308C0.521163 11.94 0.383714 11.6981 0.31957 11.4328C0.255427 11.1676 0.267176 10.8896 0.353475 10.6307C0.439773 10.3718 0.597143 10.1424 0.80761 9.96872C1.01808 9.795 1.27316 9.68398 1.54372 9.64832L9.96622 8.42207L13.675 0.840825C13.7959 0.590888 13.9848 0.380084 14.22 0.232579C14.4553 0.0850731 14.7273 0.00683594 15.005 0.00683594C15.2826 0.00683594 15.5547 0.0850731 15.7899 0.232579C16.0251 0.380084 16.214 0.590888 16.335 0.840825L20.085 8.40707L28.5125 9.63707C28.783 9.67273 29.0381 9.78375 29.2486 9.95747C29.459 10.1312 29.6164 10.3606 29.7027 10.6195C29.789 10.8784 29.8008 11.1563 29.7366 11.4216C29.6725 11.6868 29.535 11.9287 29.34 12.1196L23.2512 18.0308L24.7287 26.3508C24.7717 26.5688 24.7645 26.7937 24.7076 27.0085C24.6507 27.2233 24.5456 27.4223 24.4002 27.5904C24.2549 27.7584 24.0732 27.8912 23.8689 27.9786C23.6646 28.0659 23.4431 28.1056 23.2212 28.0946L23.2225 28.0896ZM15.0062 20.8483C15.2432 20.8423 15.4776 20.8983 15.6862 21.0108L21.2575 23.9658L20.1937 17.7446C20.1525 17.507 20.17 17.263 20.2447 17.0338C20.3195 16.8046 20.4491 16.5971 20.6225 16.4296L25.0562 12.0996L18.85 11.1833C18.6225 11.1375 18.4089 11.0386 18.2267 10.8949C18.0445 10.7511 17.8988 10.5664 17.8012 10.3558L15.0062 4.81583L12.2137 10.3571C12.1067 10.5694 11.9501 10.7528 11.757 10.8916C11.564 11.0305 11.3403 11.1207 11.105 11.1546L4.89872 12.0708L9.33247 16.4008C9.5058 16.5684 9.63549 16.7758 9.71022 17.0051C9.78496 17.2343 9.80247 17.4783 9.76122 17.7158L8.69747 23.8633L14.2687 20.9083C14.5048 20.8207 14.7605 20.8004 15.0075 20.8496L15.0062 20.8483Z" fill="#E9E6E2"/>
</svg>
