<svg width="24" height="24" viewBox="0 0 24 24" fill="none" xmlns="http://www.w3.org/2000/svg">
<path d="M18.5781 23.2719C18.389 23.2727 18.2024 23.2281 18.0341 23.1419L12.0051 19.9859L5.97607 23.1419C5.78032 23.2448 5.5596 23.2908 5.33901 23.2745C5.11842 23.2583 4.90682 23.1805 4.72826 23.05C4.5497 22.9194 4.41135 22.7414 4.32894 22.5361C4.24653 22.3309 4.22336 22.1066 4.26207 21.8889L5.44407 15.2329L0.573074 10.5049C0.417028 10.3522 0.307069 10.1587 0.255754 9.94647C0.204439 9.73427 0.213838 9.51191 0.282877 9.30479C0.351916 9.09767 0.477812 8.91415 0.646186 8.77517C0.81456 8.6362 1.01862 8.54738 1.23507 8.51886L7.97307 7.53786L10.9401 1.47286C11.0368 1.27291 11.1879 1.10426 11.3761 0.986258C11.5643 0.868254 11.7819 0.805664 12.0041 0.805664C12.2262 0.805664 12.4438 0.868254 12.632 0.986258C12.8202 1.10426 12.9713 1.27291 13.0681 1.47286L16.0681 7.52586L22.8101 8.50986C23.0265 8.53838 23.2306 8.6272 23.399 8.76617C23.5673 8.90515 23.6932 9.08867 23.7623 9.29579C23.8313 9.50291 23.8407 9.72526 23.7894 9.93747C23.7381 10.1497 23.6281 10.3432 23.4721 10.4959L18.6011 15.2249L19.7831 21.8809C19.8175 22.0552 19.8117 22.2352 19.7662 22.407C19.7206 22.5788 19.6365 22.738 19.5203 22.8725C19.404 23.0069 19.2587 23.1132 19.0952 23.1831C18.9318 23.2529 18.7546 23.2847 18.5771 23.2759L18.5781 23.2719ZM12.0051 17.4789C12.1946 17.474 12.3822 17.5189 12.5491 17.6089L17.0061 19.9729L16.1551 14.9959C16.1221 14.8058 16.1361 14.6106 16.1959 14.4272C16.2557 14.2439 16.3594 14.0779 16.4981 13.9439L20.0451 10.4799L15.0801 9.74686C14.8981 9.71016 14.7272 9.63111 14.5815 9.51609C14.4357 9.40108 14.3191 9.25334 14.2411 9.08486L12.0051 4.65286L9.77107 9.08586C9.68547 9.25572 9.56014 9.40242 9.40572 9.5135C9.2513 9.62457 9.07235 9.69673 8.88407 9.72386L3.91907 10.4569L7.46607 13.9209C7.60474 14.0549 7.70849 14.2209 7.76828 14.4042C7.82806 14.5876 7.84207 14.7828 7.80907 14.9729L6.95807 19.8909L11.4151 17.5269C11.6039 17.4568 11.8085 17.4405 12.0061 17.4799L12.0051 17.4789Z" fill="#333435"/>
</svg>
