<svg width="19" height="19" viewBox="0 0 19 19" fill="none" xmlns="http://www.w3.org/2000/svg">
<path d="M17.9007 9.5C18.5078 9.5 19.0066 9.99384 18.9365 10.5969C18.7154 12.4987 17.9234 14.2988 16.6519 15.753C15.1382 17.4844 13.0477 18.6078 10.7685 18.9149C8.48927 19.222 6.17601 18.6919 4.258 17.4228C2.33998 16.1538 0.947431 14.2321 0.338756 12.0143C-0.269919 9.79646 -0.0533908 7.43313 0.948161 5.36284C1.94971 3.29255 3.66828 1.65588 5.78497 0.756515C7.90165 -0.142847 10.2727 -0.243824 12.4582 0.472322C14.2938 1.07381 15.8938 2.21742 17.0546 3.73992C17.4227 4.22274 17.2459 4.90199 16.7238 5.2119C16.2017 5.52182 15.5331 5.34311 15.1484 4.87342C14.2715 3.80286 13.1029 2.99729 11.7736 2.56168C10.0939 2.01128 8.27157 2.08889 6.64477 2.7801C5.01797 3.47132 3.69715 4.7292 2.9274 6.32035C2.15764 7.91149 1.99123 9.72785 2.45903 11.4324C2.92683 13.1369 3.99709 14.6139 5.4712 15.5892C6.94532 16.5645 8.72319 16.972 10.4749 16.7359C12.2266 16.4999 13.8333 15.6365 14.9967 14.3058C15.9175 13.2526 16.5111 11.9634 16.7187 10.5952C16.8098 9.99496 17.2935 9.5 17.9007 9.5Z" fill="white"/>
</svg>
