<svg width="24" height="24" viewBox="0 0 24 24" fill="none" xmlns="http://www.w3.org/2000/svg">
<path fill-rule="evenodd" clip-rule="evenodd" d="M19.0134 17.6543C18.6268 17.2704 18.0072 17.2704 17.6207 17.6543C17.4203 17.8562 17.3076 18.1304 17.3076 18.4164C17.3076 18.6615 17.3904 18.898 17.5403 19.0877L17.6207 19.1785L19.7407 21.6082C20.2576 22.1306 21.0955 22.1306 21.6124 21.6082C22.1292 21.0858 22.1292 20.2388 21.6124 19.7164H21.568L19.0134 17.6543ZM16.6429 4.53936C15.0343 2.91344 12.8526 2 10.5776 2C5.84034 2 2 5.88166 2 10.6699C2 15.4582 5.84034 19.3399 10.5776 19.3399C15.3149 19.3399 19.1553 15.4582 19.1553 10.6699C19.1553 8.37052 18.2516 6.16529 16.6429 4.53936ZM10.6292 17.1429C14.1796 17.1429 17.0578 14.2648 17.0578 10.7144C17.0578 7.16396 14.1796 4.28579 10.6292 4.28579C7.07878 4.28579 4.20061 7.16396 4.20061 10.7144C4.20061 14.2648 7.07878 17.1429 10.6292 17.1429Z" fill="#BEBAB5"/>
</svg>
