<svg width="20" height="22" viewBox="0 0 20 22" fill="none" xmlns="http://www.w3.org/2000/svg">
<path d="M14.3333 4.49984V10.9998C14.3333 12.1915 15.3083 13.1665 16.5 13.1665H17.5833V20.7498C17.5833 21.3457 18.0708 21.8332 18.6667 21.8332C19.2625 21.8332 19.75 21.3457 19.75 20.7498V1.39067C19.75 0.686504 19.0892 0.166504 18.4067 0.329004C16.0667 0.903171 14.3333 2.88567 14.3333 4.49984ZM8.91667 7.74984H6.75V1.24984C6.75 0.654004 6.2625 0.166504 5.66667 0.166504C5.07083 0.166504 4.58333 0.654004 4.58333 1.24984V7.74984H2.41667V1.24984C2.41667 0.654004 1.92917 0.166504 1.33333 0.166504C0.7375 0.166504 0.25 0.654004 0.25 1.24984V7.74984C0.25 10.144 2.18917 12.0832 4.58333 12.0832V20.7498C4.58333 21.3457 5.07083 21.8332 5.66667 21.8332C6.2625 21.8332 6.75 21.3457 6.75 20.7498V12.0832C9.14417 12.0832 11.0833 10.144 11.0833 7.74984V1.24984C11.0833 0.654004 10.5958 0.166504 10 0.166504C9.40417 0.166504 8.91667 0.654004 8.91667 1.24984V7.74984Z" fill="#3CCAC1"/>
</svg>
