<svg width="18" height="16" viewBox="0 0 18 16" fill="none" xmlns="http://www.w3.org/2000/svg">
<path d="M6.55923 0.678711H11.4402L13.0652 2.30571H16.3192C16.5349 2.30571 16.7416 2.39137 16.8941 2.54383C17.0466 2.6963 17.1322 2.90309 17.1322 3.11871V14.5077C17.1322 14.7233 17.0466 14.9301 16.8941 15.0826C16.7416 15.2351 16.5349 15.3207 16.3192 15.3207H1.67823C1.46261 15.3207 1.25582 15.2351 1.10336 15.0826C0.95089 14.9301 0.865234 14.7233 0.865234 14.5077V3.11871C0.865234 2.90309 0.95089 2.6963 1.10336 2.54383C1.25582 2.39137 1.46261 2.30571 1.67823 2.30571H4.93223L6.55923 0.678711ZM8.99923 13.6947C9.9646 13.6947 10.9083 13.4084 11.711 12.8721C12.5136 12.3358 13.1393 11.5735 13.5087 10.6816C13.8781 9.7897 13.9748 8.8083 13.7864 7.86147C13.5981 6.91465 13.1332 6.04494 12.4506 5.36232C11.768 4.6797 10.8983 4.21483 9.95147 4.0265C9.00465 3.83816 8.02324 3.93482 7.13136 4.30426C6.23947 4.67369 5.47716 5.2993 4.94083 6.10197C4.4045 6.90465 4.11823 7.84834 4.11823 8.81371C4.11823 9.45478 4.24452 10.0896 4.48987 10.6818C4.73523 11.2741 5.09485 11.8122 5.5482 12.2655C6.00155 12.7187 6.53974 13.0782 7.13205 13.3235C7.72436 13.5687 8.35917 13.6948 9.00023 13.6947H8.99923ZM8.99923 12.0677C8.35565 12.0677 7.72653 11.8769 7.19141 11.5193C6.65629 11.1618 6.23922 10.6536 5.99293 10.059C5.74664 9.46437 5.6822 8.8101 5.80776 8.17889C5.93332 7.54767 6.24323 6.96787 6.69831 6.51279C7.15339 6.05771 7.7332 5.74779 8.36441 5.62224C8.99562 5.49668 9.64989 5.56112 10.2445 5.80741C10.8391 6.05369 11.3473 6.47077 11.7048 7.00589C12.0624 7.541 12.2532 8.17013 12.2532 8.81371C12.2532 9.67655 11.9105 10.5041 11.3005 11.1143C10.6905 11.7245 9.86308 12.0674 9.00023 12.0677H8.99923Z" fill="#A7A39C"/>
</svg>
