<svg width="24" height="21" viewBox="0 0 24 21" fill="none" xmlns="http://www.w3.org/2000/svg">
<path d="M12 8C14.2091 8 16 6.20914 16 4C16 1.79086 14.2091 0 12 0C9.79086 0 8 1.79086 8 4C8 6.20914 9.79086 8 12 8Z" fill="white"/>
<path d="M4 21C6.20914 21 8 19.2091 8 17C8 14.7909 6.20914 13 4 13C1.79086 13 0 14.7909 0 17C0 19.2091 1.79086 21 4 21Z" fill="white"/>
<path d="M20 21C22.2091 21 24 19.2091 24 17C24 14.7909 22.2091 13 20 13C17.7909 13 16 14.7909 16 17C16 19.2091 17.7909 21 20 21Z" fill="white"/>
</svg>
