<svg width="24" height="24" viewBox="0 0 24 24" fill="none" xmlns="http://www.w3.org/2000/svg">
<g clip-path="url(#clip0)">
<path d="M16 12C16 14.2091 14.2091 16 12 16C9.79086 16 8 14.2091 8 12C8 9.79086 9.79086 8 12 8C14.2091 8 16 9.79086 16 12ZM10.2152 12C10.2152 12.9857 11.0143 13.7848 12 13.7848C12.9857 13.7848 13.7848 12.9857 13.7848 12C13.7848 11.0143 12.9857 10.2152 12 10.2152C11.0143 10.2152 10.2152 11.0143 10.2152 12Z" fill="#BEBAB5"/>
<path d="M3.76021 9.17101L4.64066 8.35828C8.79688 4.52177 15.2031 4.52177 19.3593 8.35828L20.2398 9.17101C21.8913 10.6955 21.8913 13.3045 20.2398 14.829L19.3593 15.6417C15.2031 19.4782 8.79688 19.4782 4.64066 15.6417L3.76021 14.829C2.10871 13.3045 2.10871 10.6955 3.76021 9.17101Z" stroke="#BEBAB5" stroke-width="2.3"/>
</g>
<defs>
<clipPath id="clip0">
<rect width="24" height="24" fill="white"/>
</clipPath>
</defs>
</svg>
