<svg width="24" height="24" viewBox="0 0 24 24" fill="none" xmlns="http://www.w3.org/2000/svg">
<path d="M9.57186 1.63235C10.9032 0.290928 13.0766 0.290928 14.4194 1.62211L15.25 2.45154C15.5687 2.77011 16.0011 2.95329 16.4562 2.95329H17.6283C19.5172 2.95329 21.0534 4.48814 21.0534 6.37682V7.54986C21.0534 8.00382 21.2355 8.43617 21.5541 8.75475L22.3734 9.57394C23.022 10.2111 23.3747 11.0758 23.3747 11.986C23.3861 12.8962 23.0334 13.762 22.3961 14.4094L21.5541 15.2514C21.2355 15.5699 21.0534 16.0023 21.0534 16.4585V17.6293C21.0534 19.518 19.5172 21.0551 17.6283 21.0551H16.4562C16.0011 21.0551 15.5687 21.236 15.25 21.5546L14.4307 22.3738C13.7594 23.0462 12.8832 23.375 12.007 23.375C11.1308 23.375 10.2546 23.0462 9.58323 22.3863L8.75256 21.5546C8.43394 21.236 8.00154 21.0551 7.54637 21.0551H6.37432C4.48539 21.0551 2.9492 19.518 2.9492 17.6293V16.4585C2.9492 16.0023 2.76714 15.5699 2.44852 15.24L1.62923 14.4322C0.297868 13.1021 0.286489 10.9279 1.61785 9.58645L2.44852 8.75475C2.76714 8.43617 2.9492 8.00382 2.9492 7.53734V6.37682C2.9492 4.48814 4.48539 2.95329 6.37432 2.95329H7.54637C8.00154 2.95329 8.43394 2.77011 8.75256 2.45154L9.57186 1.63235ZM14.9314 13.9316C14.3738 13.9316 13.9301 14.3764 13.9301 14.9214C13.9301 15.4789 14.3738 15.9227 14.9314 15.9227C15.4776 15.9227 15.9214 15.4789 15.9214 14.9214C15.9214 14.3764 15.4776 13.9316 14.9314 13.9316ZM15.6255 8.36791C15.2387 7.98221 14.6128 7.98221 14.2259 8.36791L8.37705 14.216C7.99016 14.6028 7.99016 15.24 8.37705 15.6268C8.55911 15.8203 8.80945 15.9227 9.07117 15.9227C9.34427 15.9227 9.59461 15.8203 9.77668 15.6268L15.6255 9.77987C16.0124 9.39303 16.0124 8.75475 15.6255 8.36791ZM9.08255 8.08347C8.53636 8.08347 8.08119 8.52719 8.08119 9.07332C8.08119 9.63196 8.53636 10.0746 9.08255 10.0746C9.62875 10.0746 10.0725 9.63196 10.0725 9.07332C10.0725 8.52719 9.62875 8.08347 9.08255 8.08347Z" fill="#FF6A6A"/>
</svg>
