<svg width="197" height="186" viewBox="0 0 197 186" fill="none" xmlns="http://www.w3.org/2000/svg">
<rect x="4" y="3" width="183" height="183" rx="66" fill="url(#paint0_linear)"/>
<g filter="url(#filter0_f)">
<rect x="16.3125" y="37.4663" width="8.20628" height="107.502" rx="4.10314" fill="url(#paint1_linear)"/>
</g>
<g filter="url(#filter1_f)">
<rect x="172.227" y="37.4663" width="8.20628" height="110.785" rx="4.10314" fill="url(#paint2_linear)"/>
</g>
<g filter="url(#filter2_f)">
<rect x="38.4648" y="25.1572" width="8.20628" height="114.067" rx="4.10314" transform="rotate(-90 38.4648 25.1572)" fill="url(#paint3_linear)"/>
</g>
<path fill-rule="evenodd" clip-rule="evenodd" d="M155.513 105.678C157.153 103.82 157.987 101.387 157.833 98.9142C157.678 96.4413 156.548 94.1311 154.69 92.4916C151.283 89.4918 145.65 88.9014 142.823 92.1127L124.55 112.877C124.017 113.482 122.831 113.815 122.227 113.284C122.083 113.157 121.966 113.003 121.882 112.831C121.798 112.659 121.748 112.473 121.736 112.282C121.725 112.091 121.75 111.899 121.812 111.718C121.875 111.537 121.972 111.37 122.098 111.227L153.274 75.815C154.087 74.8973 154.711 73.8284 155.11 72.6694C155.509 71.5104 155.676 70.284 155.601 69.0604C155.526 67.8369 155.21 66.6401 154.672 65.5386C154.134 64.4371 153.384 63.4525 152.466 62.6411C148.945 59.542 143.356 58.9934 140.247 62.5242L108.801 98.2459C108.672 98.3956 108.514 98.5183 108.338 98.6068C108.161 98.6953 107.968 98.7478 107.771 98.7614C107.574 98.775 107.376 98.7493 107.188 98.6859C107.001 98.6224 106.828 98.5225 106.68 98.3918C106.531 98.2611 106.41 98.1023 106.324 97.9246C106.237 97.7468 106.186 97.5537 106.175 97.3563C106.163 97.1589 106.191 96.9611 106.256 96.7745C106.322 96.5879 106.423 96.416 106.556 96.269L148.405 48.7206C150.055 46.877 150.906 44.4533 150.769 41.9826C150.632 39.512 149.52 37.1968 147.676 35.5464C145.833 33.8959 143.409 33.0455 140.938 33.1821C138.468 33.3187 136.152 34.4312 134.502 36.2748L92.7798 83.6669C92.5137 83.97 92.1382 84.155 91.7357 84.1812C91.3333 84.2075 90.9369 84.0729 90.6336 83.807C90.4838 83.6748 90.361 83.5138 90.2732 83.3344C90.1854 83.1549 90.1338 82.9599 90.1214 82.7605C90.1089 82.5611 90.1359 82.3612 90.2007 82.1723C90.2656 81.9833 90.367 81.8089 90.4992 81.6592L92.6754 79.1872C92.6822 79.1795 92.6895 79.1732 92.6968 79.1669C92.7025 79.162 92.7081 79.1571 92.7134 79.1517C94.5821 77.0318 98.3675 72.7382 102.578 67.9625C110.951 58.4656 121.005 47.0619 121.011 47.0521C124.016 43.6386 122.973 37.99 119.424 34.8649C118.502 34.0554 117.43 33.4354 116.268 33.0402C115.107 32.6451 113.879 32.4827 112.655 32.5621C111.431 32.6415 110.234 32.9613 109.133 33.5032C108.033 34.0451 107.05 34.7984 106.24 35.7202L60.5188 87.655C60.0273 88.2132 59.2246 88.3049 58.4567 87.6288C57.8795 87.1207 57.387 86.1053 57.2734 84.2838C57.0227 80.2654 56.5555 72.7737 56.5555 72.7737C56.3659 69.7466 55.0591 67.0924 53.0274 65.3037C52.0668 64.4592 50.9471 63.8151 49.7342 63.4094C48.5212 63.0036 47.2394 62.8443 45.964 62.9409C40.1793 63.3158 36.0648 68.0154 35.604 74.1312C32.6632 113.162 47.1234 136.152 57.0382 146.73C58.0444 147.642 58.8027 148.074 58.8027 147.404L57.9876 145.774C56.765 144.144 55.9793 141.722 55.706 140.762C54.5959 136.864 54.813 133.547 54.943 131.561C54.9582 131.329 54.9722 131.114 54.9828 130.92C55.2345 126.274 58.7313 118.045 65.6028 112.18C73.9441 105.06 84.5983 102.65 91.5127 102.837C93.7112 102.896 95.3243 103.074 96.484 103.279C98.2517 103.593 99.3158 105.031 99.4272 106.823C99.8462 113.564 98.6009 126.671 95.611 134.637C93.1719 141.136 88.4905 145.873 85.6348 147.806C82.7792 149.739 76.5448 151.051 73.0828 148.397C67.9817 144.487 68.8897 134.947 74.0451 127.284C77.8437 121.637 82.3229 119.032 84.956 117.501C86.6038 116.543 87.5287 116.005 87.1115 115.405C85.663 114.585 77.6195 117.236 70.9121 125.044C64.9664 131.966 59.9772 149.347 75.1043 158C80.1949 160.545 82.0419 160.911 85.8542 161.458C98.3226 162.643 109.875 157.501 118.42 147.857L155.513 105.678Z" fill="url(#paint4_linear)"/>
<g filter="url(#filter3_f)">
<path d="M140.844 36.5532L96.4483 87.4929" stroke="url(#paint5_linear)" stroke-width="8" stroke-linecap="round" stroke-linejoin="round"/>
</g>
<g filter="url(#filter4_f)">
<path d="M144.895 65.8457L112.12 103.583" stroke="url(#paint6_linear)" stroke-width="8" stroke-linecap="round" stroke-linejoin="round"/>
</g>
<g filter="url(#filter5_f)">
<path d="M108.633 37.563L76.6371 74.1349" stroke="url(#paint7_linear)" stroke-width="8" stroke-linecap="round" stroke-linejoin="round"/>
</g>
<g filter="url(#filter6_f)">
<path d="M146.904 97.1025L116.876 131.93" stroke="url(#paint8_linear)" stroke-opacity="0.9" stroke-width="8" stroke-linecap="round" stroke-linejoin="round"/>
</g>
<g filter="url(#filter7_f)">
<path d="M48.0898 68.3413L50.531 90.0487" stroke="url(#paint9_linear)" stroke-opacity="0.8" stroke-width="6" stroke-linecap="round" stroke-linejoin="round"/>
</g>
<g filter="url(#filter8_f)">
<path d="M75.1016 155.201C81.6222 158.522 98.4128 161.612 113.41 147.404" stroke="white" stroke-opacity="0.3" stroke-width="2"/>
</g>
<defs>
<filter id="filter0_f" x="0.3125" y="21.4663" width="40.207" height="139.502" filterUnits="userSpaceOnUse" color-interpolation-filters="sRGB">
<feFlood flood-opacity="0" result="BackgroundImageFix"/>
<feBlend mode="normal" in="SourceGraphic" in2="BackgroundImageFix" result="shape"/>
<feGaussianBlur stdDeviation="8" result="effect1_foregroundBlur"/>
</filter>
<filter id="filter1_f" x="156.227" y="21.4663" width="40.207" height="142.785" filterUnits="userSpaceOnUse" color-interpolation-filters="sRGB">
<feFlood flood-opacity="0" result="BackgroundImageFix"/>
<feBlend mode="normal" in="SourceGraphic" in2="BackgroundImageFix" result="shape"/>
<feGaussianBlur stdDeviation="8" result="effect1_foregroundBlur"/>
</filter>
<filter id="filter2_f" x="22.4648" y="0.951172" width="146.066" height="40.2061" filterUnits="userSpaceOnUse" color-interpolation-filters="sRGB">
<feFlood flood-opacity="0" result="BackgroundImageFix"/>
<feBlend mode="normal" in="SourceGraphic" in2="BackgroundImageFix" result="shape"/>
<feGaussianBlur stdDeviation="8" result="effect1_foregroundBlur"/>
</filter>
<filter id="filter3_f" x="78.7871" y="28.6538" width="79.7168" height="66.7388" filterUnits="userSpaceOnUse" color-interpolation-filters="sRGB">
<feFlood flood-opacity="0" result="BackgroundImageFix"/>
<feBlend mode="normal" in="SourceGraphic" in2="BackgroundImageFix" result="shape"/>
<feGaussianBlur stdDeviation="1.5" result="effect1_foregroundBlur"/>
</filter>
<filter id="filter4_f" x="96.9824" y="57.9463" width="63.0508" height="53.5356" filterUnits="userSpaceOnUse" color-interpolation-filters="sRGB">
<feFlood flood-opacity="0" result="BackgroundImageFix"/>
<feBlend mode="normal" in="SourceGraphic" in2="BackgroundImageFix" result="shape"/>
<feGaussianBlur stdDeviation="1.5" result="effect1_foregroundBlur"/>
</filter>
<filter id="filter5_f" x="61.7383" y="29.6636" width="61.793" height="52.3706" filterUnits="userSpaceOnUse" color-interpolation-filters="sRGB">
<feFlood flood-opacity="0" result="BackgroundImageFix"/>
<feBlend mode="normal" in="SourceGraphic" in2="BackgroundImageFix" result="shape"/>
<feGaussianBlur stdDeviation="1.5" result="effect1_foregroundBlur"/>
</filter>
<filter id="filter6_f" x="102.281" y="89.2031" width="59.2188" height="50.6265" filterUnits="userSpaceOnUse" color-interpolation-filters="sRGB">
<feFlood flood-opacity="0" result="BackgroundImageFix"/>
<feBlend mode="normal" in="SourceGraphic" in2="BackgroundImageFix" result="shape"/>
<feGaussianBlur stdDeviation="1.5" result="effect1_foregroundBlur"/>
</filter>
<filter id="filter7_f" x="36.2656" y="59.6665" width="26.0898" height="39.0571" filterUnits="userSpaceOnUse" color-interpolation-filters="sRGB">
<feFlood flood-opacity="0" result="BackgroundImageFix"/>
<feBlend mode="normal" in="SourceGraphic" in2="BackgroundImageFix" result="shape"/>
<feGaussianBlur stdDeviation="2.5" result="effect1_foregroundBlur"/>
</filter>
<filter id="filter8_f" x="71.6484" y="143.678" width="45.4492" height="18.3213" filterUnits="userSpaceOnUse" color-interpolation-filters="sRGB">
<feFlood flood-opacity="0" result="BackgroundImageFix"/>
<feBlend mode="normal" in="SourceGraphic" in2="BackgroundImageFix" result="shape"/>
<feGaussianBlur stdDeviation="1.5" result="effect1_foregroundBlur"/>
</filter>
<linearGradient id="paint0_linear" x1="95.9103" y1="3" x2="95.9103" y2="192.155" gradientUnits="userSpaceOnUse">
<stop stop-color="#00F9CC"/>
<stop offset="0.90008" stop-color="#00C29F"/>
<stop offset="1" stop-color="#00D6AF"/>
</linearGradient>
<linearGradient id="paint1_linear" x1="26.9807" y1="37.4663" x2="24.0649" y2="146.912" gradientUnits="userSpaceOnUse">
<stop stop-color="#69FFE4" stop-opacity="0.51"/>
<stop offset="0.524631" stop-color="#69FFE4" stop-opacity="0.87"/>
<stop offset="1" stop-color="#69FFE4" stop-opacity="0"/>
</linearGradient>
<linearGradient id="paint2_linear" x1="182.895" y1="37.4663" x2="179.798" y2="150.249" gradientUnits="userSpaceOnUse">
<stop stop-color="#69FFE4" stop-opacity="0.51"/>
<stop offset="0.524631" stop-color="#69FFE4" stop-opacity="0.87"/>
<stop offset="1" stop-color="#69FFE4" stop-opacity="0"/>
</linearGradient>
<linearGradient id="paint3_linear" x1="42.568" y1="25.1572" x2="42.568" y2="139.224" gradientUnits="userSpaceOnUse">
<stop stop-color="#94FFEC" stop-opacity="0.51"/>
<stop offset="0.524631" stop-color="#80FFE8"/>
<stop offset="1" stop-color="#96FFEC" stop-opacity="0"/>
</linearGradient>
<linearGradient id="paint4_linear" x1="91.4015" y1="36.5532" x2="96.2919" y2="164.52" gradientUnits="userSpaceOnUse">
<stop stop-color="white"/>
<stop offset="0.716008" stop-color="#E6FFF8"/>
<stop offset="1" stop-color="#EBFFFA"/>
</linearGradient>
<linearGradient id="paint5_linear" x1="137.721" y1="59.7974" x2="92.2892" y2="71.9707" gradientUnits="userSpaceOnUse">
<stop stop-color="#FAFFFD"/>
<stop offset="1" stop-color="#FAFFFD" stop-opacity="0"/>
</linearGradient>
<linearGradient id="paint6_linear" x1="145.497" y1="81.2489" x2="108.773" y2="91.089" gradientUnits="userSpaceOnUse">
<stop stop-color="#FAFFFD"/>
<stop offset="1" stop-color="#FAFFFD" stop-opacity="0"/>
</linearGradient>
<linearGradient id="paint7_linear" x1="112.133" y1="50.6245" x2="73.1373" y2="61.0733" gradientUnits="userSpaceOnUse">
<stop stop-color="#FAFFFD"/>
<stop offset="1" stop-color="#FAFFFD" stop-opacity="0"/>
</linearGradient>
<linearGradient id="paint8_linear" x1="150.252" y1="109.596" x2="113.528" y2="119.436" gradientUnits="userSpaceOnUse">
<stop stop-color="#FAFFFD"/>
<stop offset="1" stop-color="#FAFFFD" stop-opacity="0"/>
</linearGradient>
<linearGradient id="paint9_linear" x1="52.2166" y1="72.7204" x2="40.2885" y2="86.4645" gradientUnits="userSpaceOnUse">
<stop stop-color="#F6FDFB"/>
<stop offset="1" stop-color="#F6FDFB" stop-opacity="0"/>
</linearGradient>
</defs>
</svg>
