<svg width="114" height="68" viewBox="0 0 114 68" fill="none" xmlns="http://www.w3.org/2000/svg">
<path d="M109.531 28.566C106.646 28.1742 103.509 28.7881 100.555 30.2493C100.69 29.2766 100.788 28.299 100.848 27.3189C103.848 26.7068 106.652 25.124 108.419 22.7458C110.94 19.4248 111.675 14.675 110.336 10.3543C109.59 7.94262 108.702 5.67222 107.701 3.61079C107.01 2.18477 105.313 1.59447 103.891 2.29485C98.1245 5.16443 94.0683 12.6232 94.8332 19.4953C95.0173 21.7253 95.1435 21.8727 95.2003 24.2131C95.5502 39.9564 84.5417 53.4203 69.8372 56.2864C68.2897 56.5885 67.2796 58.1051 67.5746 59.6723C67.8668 61.2022 69.3181 62.2664 70.9114 61.9681C72.6435 61.6304 74.3347 61.1662 75.9775 60.5868C78.3987 64.2114 82.0187 66.0769 86.0815 66.0769C89.2152 66.0769 92.4101 64.8965 94.8786 62.7503C96.8461 61.1575 98.555 59.3247 100.002 57.7321C101.09 56.5338 100.987 54.6701 99.7879 53.6006C97.1448 51.2432 94.0552 50.3213 91.4695 49.9745C92.1301 49.2227 92.7654 48.4566 93.3662 47.6528C96.105 48.7976 98.7916 49.236 101.936 48.0993C105.841 46.803 109.251 43.2732 110.514 38.9441C111.185 36.8007 111.605 34.4765 111.972 31.8361C112.191 30.2573 111.106 28.785 109.531 28.566Z" fill="#E9E6E2"/>
<path d="M15.8742 48.7466C17.4799 48.7466 19.0753 48.2973 20.6341 47.6472C21.2344 48.4504 21.8686 49.2159 22.529 49.9671C19.9613 50.3111 16.8634 51.2309 14.2128 53.5945C13.0119 54.6656 12.9127 56.5295 13.9985 57.7253C15.4456 59.3177 17.1543 61.1502 19.0441 62.6775C21.585 64.8825 24.8132 66.0769 27.9301 66.0769C31.9397 66.0769 35.6076 64.1855 38.0219 60.5791C39.6645 61.1583 41.3565 61.6226 43.089 61.9605C44.6826 62.259 46.1335 61.1943 46.4257 59.6651C46.7208 58.098 45.7104 56.5819 44.1632 56.2799C30.5496 53.6273 18.4285 40.9198 18.8002 24.2178C18.8513 22.1352 19.0563 20.7949 19.1678 19.5222C19.9488 12.6832 15.8932 5.1767 10.1098 2.29901C8.6878 1.59029 6.99009 2.18606 6.29987 3.61469C5.29808 5.67572 4.41028 7.94588 3.66439 10.3569C2.32576 14.6767 3.06043 19.4258 5.56235 22.7208C7.34384 25.1181 10.1516 26.7046 13.1519 27.3176C13.2125 28.298 13.3109 29.2757 13.4454 30.2486C10.4999 28.7917 7.36835 28.1759 4.46879 28.5652C2.89248 28.7844 1.80938 30.2571 2.02805 31.8347C2.39548 34.4746 2.81535 36.7983 3.46947 38.8877C5.09878 44.4632 10.0352 48.7466 15.8742 48.7466Z" fill="#E9E6E2"/>
</svg>
